{
	"asset":{
		"generator":"Khronos glTF Blender I/O v4.2.57",
		"version":"2.0"
	},
	"extensionsUsed":[
		"KHR_materials_specular"
	],
	"scene":0,
	"scenes":[
		{
			"name":"Scene",
			"nodes":[
				1
			]
		}
	],
	"nodes":[
		{
			"mesh":0,
			"name":"Cloth",
			"translation":[
				0,
				0,
				-0.1798200011253357
			]
		},
		{
			"children":[
				0
			],
			"name":"d_Scene_Node"
		}
	],
	"materials":[
		{
			"extensions":{
				"KHR_materials_specular":{
					"specularFactor":0.15000000596046448
				}
			},
			"name":"FABRIC 1 Copy 2_2740391"
		},
		{
			"extensions":{
				"KHR_materials_specular":{
					"specularFactor":0.15000000596046448
				}
			},
			"name":"FABRIC 1 Copy 1_2740382"
		}
	],
	"meshes":[
		{
			"name":"Cloth_mesh.003",
			"primitives":[
				{
					"attributes":{
						"POSITION":0,
						"NORMAL":1,
						"TEXCOORD_0":2
					},
					"indices":3,
					"material":0
				},
				{
					"attributes":{
						"POSITION":4,
						"NORMAL":5,
						"TEXCOORD_0":6
					},
					"indices":7,
					"material":1
				}
			]
		}
	],
	"accessors":[
		{
			"bufferView":0,
			"componentType":5126,
			"count":107681,
			"max":[
				1.755968689918518,
				7.262134552001953,
				0.3978304862976074
			],
			"min":[
				-1.7842967510223389,
				-5.7487711906433105,
				-1.7213878631591797
			],
			"type":"VEC3"
		},
		{
			"bufferView":1,
			"componentType":5126,
			"count":107681,
			"type":"VEC3"
		},
		{
			"bufferView":2,
			"componentType":5126,
			"count":107681,
			"type":"VEC2"
		},
		{
			"bufferView":3,
			"componentType":5125,
			"count":625944,
			"type":"SCALAR"
		},
		{
			"bufferView":4,
			"componentType":5126,
			"count":106463,
			"max":[
				2.007150888442993,
				7.094892501831055,
				1.5734589099884033
			],
			"min":[
				-2.061410903930664,
				-5.903313636779785,
				-0.3687620460987091
			],
			"type":"VEC3"
		},
		{
			"bufferView":5,
			"componentType":5126,
			"count":106463,
			"type":"VEC3"
		},
		{
			"bufferView":6,
			"componentType":5126,
			"count":106463,
			"type":"VEC2"
		},
		{
			"bufferView":7,
			"componentType":5125,
			"count":618660,
			"type":"SCALAR"
		}
	],
	"bufferViews":[
		{
			"buffer":0,
			"byteLength":1292172,
			"byteOffset":0,
			"target":34962
		},
		{
			"buffer":0,
			"byteLength":1292172,
			"byteOffset":1292172,
			"target":34962
		},
		{
			"buffer":0,
			"byteLength":861448,
			"byteOffset":2584344,
			"target":34962
		},
		{
			"buffer":0,
			"byteLength":2503776,
			"byteOffset":3445792,
			"target":34963
		},
		{
			"buffer":0,
			"byteLength":1277556,
			"byteOffset":5949568,
			"target":34962
		},
		{
			"buffer":0,
			"byteLength":1277556,
			"byteOffset":7227124,
			"target":34962
		},
		{
			"buffer":0,
			"byteLength":851704,
			"byteOffset":8504680,
			"target":34962
		},
		{
			"buffer":0,
			"byteLength":2474640,
			"byteOffset":9356384,
			"target":34963
		}
	],
	"buffers":[
		{
			"byteLength":11831024,
			"uri":"Long%20Dress2.bin"
		}
	]
}
