{
	"asset":{
		"generator":"Khronos glTF Blender I/O v4.2.57",
		"version":"2.0"
	},
	"extensionsUsed":[
		"KHR_materials_specular"
	],
	"scene":0,
	"scenes":[
		{
			"name":"Scene",
			"nodes":[
				0,
				1,
				3
			]
		}
	],
	"nodes":[
		{
			"name":"r_Scene_Node"
		},
		{
			"name":"r_Scene_Node.001"
		},
		{
			"mesh":0,
			"name":"Cloth"
		},
		{
			"children":[
				2
			],
			"name":"uu_Scene_Node"
		}
	],
	"materials":[
		{
			"extensions":{
				"KHR_materials_specular":{
					"specularFactor":0.15000000596046448
				}
			},
			"name":"Rib_1X1_486gsm Copy 2_691380"
		},
		{
			"extensions":{
				"KHR_materials_specular":{
					"specularFactor":0.15000000596046448
				}
			},
			"name":"Rib_1X1_486gsm Copy 4_691399"
		},
		{
			"extensions":{
				"KHR_materials_specular":{
					"specularFactor":0.15000000596046448
				}
			},
			"name":"Rib_1X1_486gsm Copy 3_691391"
		}
	],
	"meshes":[
		{
			"name":"Cloth_mesh.003",
			"primitives":[
				{
					"attributes":{
						"POSITION":0,
						"NORMAL":1,
						"TEXCOORD_0":2
					},
					"indices":3,
					"material":0
				},
				{
					"attributes":{
						"POSITION":4,
						"NORMAL":5,
						"TEXCOORD_0":6
					},
					"indices":7,
					"material":1
				},
				{
					"attributes":{
						"POSITION":8,
						"NORMAL":9,
						"TEXCOORD_0":10
					},
					"indices":11,
					"material":2
				}
			]
		}
	],
	"accessors":[
		{
			"bufferView":0,
			"componentType":5126,
			"count":30204,
			"max":[
				1.523282766342163,
				2.552597999572754,
				1.4261151552200317
			],
			"min":[
				-1.5166223049163818,
				-2.3819284439086914,
				-1.3541970252990723
			],
			"type":"VEC3"
		},
		{
			"bufferView":1,
			"componentType":5126,
			"count":30204,
			"type":"VEC3"
		},
		{
			"bufferView":2,
			"componentType":5126,
			"count":30204,
			"type":"VEC2"
		},
		{
			"bufferView":3,
			"componentType":5123,
			"count":169644,
			"type":"SCALAR"
		},
		{
			"bufferView":4,
			"componentType":5126,
			"count":6656,
			"max":[
				1.4851187467575073,
				2.4539270401000977,
				0.733836829662323
			],
			"min":[
				-1.4686863422393799,
				0.501622200012207,
				-1.2606703042984009
			],
			"type":"VEC3"
		},
		{
			"bufferView":5,
			"componentType":5126,
			"count":6656,
			"type":"VEC3"
		},
		{
			"bufferView":6,
			"componentType":5126,
			"count":6656,
			"type":"VEC2"
		},
		{
			"bufferView":7,
			"componentType":5123,
			"count":33792,
			"type":"SCALAR"
		},
		{
			"bufferView":8,
			"componentType":5126,
			"count":24992,
			"max":[
				1.4860711097717285,
				2.491520881652832,
				0.35122326016426086
			],
			"min":[
				-1.4850753545761108,
				-2.3873653411865234,
				-1.3634339570999146
			],
			"type":"VEC3"
		},
		{
			"bufferView":9,
			"componentType":5126,
			"count":24992,
			"type":"VEC3"
		},
		{
			"bufferView":10,
			"componentType":5126,
			"count":24992,
			"type":"VEC2"
		},
		{
			"bufferView":11,
			"componentType":5123,
			"count":143436,
			"type":"SCALAR"
		}
	],
	"bufferViews":[
		{
			"buffer":0,
			"byteLength":362448,
			"byteOffset":0,
			"target":34962
		},
		{
			"buffer":0,
			"byteLength":362448,
			"byteOffset":362448,
			"target":34962
		},
		{
			"buffer":0,
			"byteLength":241632,
			"byteOffset":724896,
			"target":34962
		},
		{
			"buffer":0,
			"byteLength":339288,
			"byteOffset":966528,
			"target":34963
		},
		{
			"buffer":0,
			"byteLength":79872,
			"byteOffset":1305816,
			"target":34962
		},
		{
			"buffer":0,
			"byteLength":79872,
			"byteOffset":1385688,
			"target":34962
		},
		{
			"buffer":0,
			"byteLength":53248,
			"byteOffset":1465560,
			"target":34962
		},
		{
			"buffer":0,
			"byteLength":67584,
			"byteOffset":1518808,
			"target":34963
		},
		{
			"buffer":0,
			"byteLength":299904,
			"byteOffset":1586392,
			"target":34962
		},
		{
			"buffer":0,
			"byteLength":299904,
			"byteOffset":1886296,
			"target":34962
		},
		{
			"buffer":0,
			"byteLength":199936,
			"byteOffset":2186200,
			"target":34962
		},
		{
			"buffer":0,
			"byteLength":286872,
			"byteOffset":2386136,
			"target":34963
		}
	],
	"buffers":[
		{
			"byteLength":2673008,
			"uri":"Top%20Female.bin"
		}
	]
}
