{
	"asset":{
		"generator":"Khronos glTF Blender I/O v4.2.57",
		"version":"2.0"
	},
	"extensionsUsed":[
		"KHR_materials_specular"
	],
	"scene":0,
	"scenes":[
		{
			"name":"Scene",
			"nodes":[
				1
			]
		}
	],
	"nodes":[
		{
			"mesh":0,
			"name":"Cloth"
		},
		{
			"children":[
				0
			],
			"name":"f_Scene_Node"
		}
	],
	"materials":[
		{
			"extensions":{
				"KHR_materials_specular":{
					"specularFactor":0.15000000596046448
				}
			},
			"name":"FABRIC 1 Copy 5_10796260"
		},
		{
			"extensions":{
				"KHR_materials_specular":{
					"specularFactor":0.15000000596046448
				}
			},
			"name":"FABRIC 1 Copy 2_10763399"
		},
		{
			"extensions":{
				"KHR_materials_specular":{
					"specularFactor":0.15000000596046448
				}
			},
			"name":"FABRIC 1_10407604"
		},
		{
			"extensions":{
				"KHR_materials_specular":{
					"specularFactor":0.15000000596046448
				}
			},
			"name":"FABRIC 1 Copy 7_10815968"
		},
		{
			"extensions":{
				"KHR_materials_specular":{
					"specularFactor":0.15000000596046448
				}
			},
			"name":"FABRIC 1 Copy 1_10756823"
		},
		{
			"extensions":{
				"KHR_materials_specular":{
					"specularFactor":0.15000000596046448
				}
			},
			"name":"FABRIC 1 Copy 4_10789684"
		},
		{
			"extensions":{
				"KHR_materials_specular":{
					"specularFactor":0.15000000596046448
				}
			},
			"name":"FABRIC 1 Copy 6_10809398"
		},
		{
			"extensions":{
				"KHR_materials_specular":{
					"specularFactor":0.15000000596046448
				}
			},
			"name":"FABRIC 1 Copy 3_10769975"
		},
		{
			"extensions":{
				"KHR_materials_specular":{
					"specularFactor":0.15000000596046448
				}
			},
			"name":"FABRIC 1 Copy 8_10822538"
		}
	],
	"meshes":[
		{
			"name":"Cloth_mesh.001",
			"primitives":[
				{
					"attributes":{
						"POSITION":0,
						"NORMAL":1,
						"TEXCOORD_0":2
					},
					"indices":3,
					"material":0
				},
				{
					"attributes":{
						"POSITION":4,
						"NORMAL":5,
						"TEXCOORD_0":6
					},
					"indices":7,
					"material":1
				},
				{
					"attributes":{
						"POSITION":8,
						"NORMAL":9,
						"TEXCOORD_0":10
					},
					"indices":11,
					"material":2
				},
				{
					"attributes":{
						"POSITION":12,
						"NORMAL":13,
						"TEXCOORD_0":14
					},
					"indices":15,
					"material":3
				},
				{
					"attributes":{
						"POSITION":16,
						"NORMAL":17,
						"TEXCOORD_0":18
					},
					"indices":19,
					"material":4
				},
				{
					"attributes":{
						"POSITION":20,
						"NORMAL":21,
						"TEXCOORD_0":22
					},
					"indices":23,
					"material":5
				},
				{
					"attributes":{
						"POSITION":24,
						"NORMAL":25,
						"TEXCOORD_0":26
					},
					"indices":27,
					"material":6
				},
				{
					"attributes":{
						"POSITION":28,
						"NORMAL":29,
						"TEXCOORD_0":30
					},
					"indices":31,
					"material":7
				},
				{
					"attributes":{
						"POSITION":32,
						"NORMAL":33,
						"TEXCOORD_0":34
					},
					"indices":35,
					"material":8
				}
			]
		}
	],
	"accessors":[
		{
			"bufferView":0,
			"componentType":5126,
			"count":31742,
			"max":[
				2.378551721572876,
				2.3211355209350586,
				0.3582860827445984
			],
			"min":[
				-0.002511372324079275,
				-3.0386881828308105,
				-1.3528244495391846
			],
			"type":"VEC3"
		},
		{
			"bufferView":1,
			"componentType":5126,
			"count":31742,
			"type":"VEC3"
		},
		{
			"bufferView":2,
			"componentType":5126,
			"count":31742,
			"type":"VEC2"
		},
		{
			"bufferView":3,
			"componentType":5123,
			"count":183780,
			"type":"SCALAR"
		},
		{
			"bufferView":4,
			"componentType":5126,
			"count":27560,
			"max":[
				2.3625648021698,
				2.1110410690307617,
				1.346415638923645
			],
			"min":[
				-0.006973295006901026,
				-3.024153709411621,
				0.017163854092359543
			],
			"type":"VEC3"
		},
		{
			"bufferView":5,
			"componentType":5126,
			"count":27560,
			"type":"VEC3"
		},
		{
			"bufferView":6,
			"componentType":5126,
			"count":27560,
			"type":"VEC2"
		},
		{
			"bufferView":7,
			"componentType":5123,
			"count":158508,
			"type":"SCALAR"
		},
		{
			"bufferView":8,
			"componentType":5126,
			"count":12351,
			"max":[
				1.653280258178711,
				2.6774253845214844,
				1.3950128555297852
			],
			"min":[
				-1.6395715475082397,
				1.732992172241211,
				-0.9932951331138611
			],
			"type":"VEC3"
		},
		{
			"bufferView":9,
			"componentType":5126,
			"count":12351,
			"type":"VEC3"
		},
		{
			"bufferView":10,
			"componentType":5126,
			"count":12351,
			"type":"VEC2"
		},
		{
			"bufferView":11,
			"componentType":5123,
			"count":66378,
			"type":"SCALAR"
		},
		{
			"bufferView":12,
			"componentType":5126,
			"count":5923,
			"max":[
				1.8397549390792847,
				1.2416667938232422,
				-0.32321950793266296
			],
			"min":[
				0.5470971465110779,
				-0.5830287933349609,
				-1.3716310262680054
			],
			"type":"VEC3"
		},
		{
			"bufferView":13,
			"componentType":5126,
			"count":5923,
			"type":"VEC3"
		},
		{
			"bufferView":14,
			"componentType":5126,
			"count":5923,
			"type":"VEC2"
		},
		{
			"bufferView":15,
			"componentType":5123,
			"count":33468,
			"type":"SCALAR"
		},
		{
			"bufferView":16,
			"componentType":5126,
			"count":33762,
			"max":[
				0.528614342212677,
				2.1203670501708984,
				1.3337100744247437
			],
			"min":[
				-2.2546234130859375,
				-3.017704486846924,
				-0.07633426040410995
			],
			"type":"VEC3"
		},
		{
			"bufferView":17,
			"componentType":5126,
			"count":33762,
			"type":"VEC3"
		},
		{
			"bufferView":18,
			"componentType":5126,
			"count":33762,
			"type":"VEC2"
		},
		{
			"bufferView":19,
			"componentType":5123,
			"count":192186,
			"type":"SCALAR"
		},
		{
			"bufferView":20,
			"componentType":5126,
			"count":31811,
			"max":[
				0.02669893018901348,
				2.3208084106445312,
				0.35865622758865356
			],
			"min":[
				-2.3090903759002686,
				-3.0359725952148438,
				-1.3524900674819946
			],
			"type":"VEC3"
		},
		{
			"bufferView":21,
			"componentType":5126,
			"count":31811,
			"type":"VEC3"
		},
		{
			"bufferView":22,
			"componentType":5126,
			"count":31811,
			"type":"VEC2"
		},
		{
			"bufferView":23,
			"componentType":5123,
			"count":184206,
			"type":"SCALAR"
		},
		{
			"bufferView":24,
			"componentType":5126,
			"count":5865,
			"max":[
				-0.5148404240608215,
				1.2427778244018555,
				-0.3563152253627777
			],
			"min":[
				-1.844993233680725,
				-0.5733375549316406,
				-1.3703542947769165
			],
			"type":"VEC3"
		},
		{
			"bufferView":25,
			"componentType":5126,
			"count":5865,
			"type":"VEC3"
		},
		{
			"bufferView":26,
			"componentType":5126,
			"count":5865,
			"type":"VEC2"
		},
		{
			"bufferView":27,
			"componentType":5123,
			"count":33156,
			"type":"SCALAR"
		},
		{
			"bufferView":28,
			"componentType":5126,
			"count":2357,
			"max":[
				-1.209139347076416,
				1.846634864807129,
				0.9494921565055847
			],
			"min":[
				-1.8177529573440552,
				0.7725095748901367,
				0.21986618638038635
			],
			"type":"VEC3"
		},
		{
			"bufferView":29,
			"componentType":5126,
			"count":2357,
			"type":"VEC3"
		},
		{
			"bufferView":30,
			"componentType":5126,
			"count":2357,
			"type":"VEC2"
		},
		{
			"bufferView":31,
			"componentType":5123,
			"count":12828,
			"type":"SCALAR"
		},
		{
			"bufferView":32,
			"componentType":5126,
			"count":4137,
			"max":[
				1.6777111291885376,
				2.683333396911621,
				1.2282229661941528
			],
			"min":[
				-1.6535555124282837,
				1.5457544326782227,
				-1.1062017679214478
			],
			"type":"VEC3"
		},
		{
			"bufferView":33,
			"componentType":5126,
			"count":4137,
			"type":"VEC3"
		},
		{
			"bufferView":34,
			"componentType":5126,
			"count":4137,
			"type":"VEC2"
		},
		{
			"bufferView":35,
			"componentType":5123,
			"count":20274,
			"type":"SCALAR"
		}
	],
	"bufferViews":[
		{
			"buffer":0,
			"byteLength":380904,
			"byteOffset":0,
			"target":34962
		},
		{
			"buffer":0,
			"byteLength":380904,
			"byteOffset":380904,
			"target":34962
		},
		{
			"buffer":0,
			"byteLength":253936,
			"byteOffset":761808,
			"target":34962
		},
		{
			"buffer":0,
			"byteLength":367560,
			"byteOffset":1015744,
			"target":34963
		},
		{
			"buffer":0,
			"byteLength":330720,
			"byteOffset":1383304,
			"target":34962
		},
		{
			"buffer":0,
			"byteLength":330720,
			"byteOffset":1714024,
			"target":34962
		},
		{
			"buffer":0,
			"byteLength":220480,
			"byteOffset":2044744,
			"target":34962
		},
		{
			"buffer":0,
			"byteLength":317016,
			"byteOffset":2265224,
			"target":34963
		},
		{
			"buffer":0,
			"byteLength":148212,
			"byteOffset":2582240,
			"target":34962
		},
		{
			"buffer":0,
			"byteLength":148212,
			"byteOffset":2730452,
			"target":34962
		},
		{
			"buffer":0,
			"byteLength":98808,
			"byteOffset":2878664,
			"target":34962
		},
		{
			"buffer":0,
			"byteLength":132756,
			"byteOffset":2977472,
			"target":34963
		},
		{
			"buffer":0,
			"byteLength":71076,
			"byteOffset":3110228,
			"target":34962
		},
		{
			"buffer":0,
			"byteLength":71076,
			"byteOffset":3181304,
			"target":34962
		},
		{
			"buffer":0,
			"byteLength":47384,
			"byteOffset":3252380,
			"target":34962
		},
		{
			"buffer":0,
			"byteLength":66936,
			"byteOffset":3299764,
			"target":34963
		},
		{
			"buffer":0,
			"byteLength":405144,
			"byteOffset":3366700,
			"target":34962
		},
		{
			"buffer":0,
			"byteLength":405144,
			"byteOffset":3771844,
			"target":34962
		},
		{
			"buffer":0,
			"byteLength":270096,
			"byteOffset":4176988,
			"target":34962
		},
		{
			"buffer":0,
			"byteLength":384372,
			"byteOffset":4447084,
			"target":34963
		},
		{
			"buffer":0,
			"byteLength":381732,
			"byteOffset":4831456,
			"target":34962
		},
		{
			"buffer":0,
			"byteLength":381732,
			"byteOffset":5213188,
			"target":34962
		},
		{
			"buffer":0,
			"byteLength":254488,
			"byteOffset":5594920,
			"target":34962
		},
		{
			"buffer":0,
			"byteLength":368412,
			"byteOffset":5849408,
			"target":34963
		},
		{
			"buffer":0,
			"byteLength":70380,
			"byteOffset":6217820,
			"target":34962
		},
		{
			"buffer":0,
			"byteLength":70380,
			"byteOffset":6288200,
			"target":34962
		},
		{
			"buffer":0,
			"byteLength":46920,
			"byteOffset":6358580,
			"target":34962
		},
		{
			"buffer":0,
			"byteLength":66312,
			"byteOffset":6405500,
			"target":34963
		},
		{
			"buffer":0,
			"byteLength":28284,
			"byteOffset":6471812,
			"target":34962
		},
		{
			"buffer":0,
			"byteLength":28284,
			"byteOffset":6500096,
			"target":34962
		},
		{
			"buffer":0,
			"byteLength":18856,
			"byteOffset":6528380,
			"target":34962
		},
		{
			"buffer":0,
			"byteLength":25656,
			"byteOffset":6547236,
			"target":34963
		},
		{
			"buffer":0,
			"byteLength":49644,
			"byteOffset":6572892,
			"target":34962
		},
		{
			"buffer":0,
			"byteLength":49644,
			"byteOffset":6622536,
			"target":34962
		},
		{
			"buffer":0,
			"byteLength":33096,
			"byteOffset":6672180,
			"target":34962
		},
		{
			"buffer":0,
			"byteLength":40548,
			"byteOffset":6705276,
			"target":34963
		}
	],
	"buffers":[
		{
			"byteLength":6745824,
			"uri":"Shorts.bin"
		}
	]
}
