<svg width="23" height="21" viewBox="0 0 23 21" fill="none" xmlns="http://www.w3.org/2000/svg">
<path d="M15.9187 6.65952C16.4827 6.65952 17.0313 6.72641 17.5564 6.85474C17.4235 5.46381 16.8026 4.21388 15.8681 3.2803C14.8079 2.22016 13.3447 1.56399 11.7261 1.56399C10.1092 1.56399 8.64422 2.21923 7.58408 3.2803C6.52394 4.34044 5.86867 5.80455 5.86867 7.4223C5.86867 9.03918 6.52392 10.5042 7.58408 11.5643C8.01519 11.9954 8.51317 12.3596 9.06087 12.6398C9.24976 11.2534 9.84897 9.99616 10.732 8.99756C10.0424 8.44806 9.22538 8.05037 8.33337 7.85607C8.04687 7.79461 7.86522 7.51172 7.92667 7.22521C7.98812 6.93871 8.27102 6.75706 8.55752 6.81851C9.65834 7.0571 10.6616 7.55871 11.4994 8.25463C12.6978 7.25955 14.2379 6.66035 15.9172 6.66035L15.9187 6.65952ZM18.6426 7.21718C19.4578 7.56694 20.1926 8.06855 20.8108 8.68675C22.0626 9.93851 22.838 11.6684 22.838 13.5798C22.838 15.4904 22.0635 17.2202 20.8108 18.4728C19.5591 19.7246 17.8291 20.5 15.9178 20.5C14.2386 20.5 12.6994 19.9017 11.5 18.9066C10.3016 19.9017 8.76243 20.5 7.08221 20.5C5.1716 20.5 3.44183 19.7254 2.18919 18.4728C0.937426 17.221 0.161987 15.4911 0.161987 13.5798C0.161987 12.0162 0.680766 10.5738 1.55743 9.41325C2.37537 8.33051 3.50601 7.4945 4.81467 7.04078C4.90956 5.28109 5.66333 3.69678 6.83101 2.5272C8.08278 1.27544 9.81361 0.5 11.724 0.5C13.6347 0.5 15.3644 1.27456 16.6171 2.5272C17.8245 3.73468 18.5873 5.38578 18.6416 7.21616L18.6426 7.21718ZM12.9035 14.2404C12.8303 14.2531 12.7562 14.2648 12.682 14.2748C12.363 14.3182 12.044 14.3417 11.7258 14.3417C11.1619 14.3417 10.6133 14.2748 10.0882 14.1464C10.2084 15.3955 10.7208 16.5307 11.5008 17.4263C12.2618 16.5542 12.7679 15.4534 12.9035 14.2404ZM18.5811 8.36223C18.497 8.97589 18.3316 9.56517 18.0976 10.1201C17.7306 10.9832 17.1956 11.756 16.534 12.3968C16.3234 12.6001 15.9881 12.5929 15.7848 12.3823C15.5823 12.1717 15.5886 11.8364 15.7992 11.633C16.3605 11.0899 16.8133 10.4373 17.1224 9.70887C17.3538 9.16388 17.5038 8.57553 17.5598 7.95643C17.0392 7.80459 16.4879 7.72325 15.9185 7.72325C14.5375 7.72325 13.2695 8.20045 12.2682 8.9994C12.3387 9.07984 12.4083 9.16208 12.476 9.24523C13.4323 10.4328 14.0035 11.9402 14.0035 13.5807C14.0035 15.3376 13.3482 16.9418 12.27 18.1629C13.2705 18.961 14.5394 19.4382 15.9187 19.4382C17.5356 19.4382 19.0006 18.783 20.0607 17.7219C21.1208 16.6617 21.777 15.1986 21.777 13.5799C21.777 11.963 21.1218 10.498 20.0607 9.43789C19.6296 9.00678 19.1316 8.64256 18.583 8.36239L18.5811 8.36223ZM10.0845 13.0466C10.605 13.1984 11.1554 13.2788 11.7258 13.2788C12.0077 13.2788 12.278 13.2608 12.5365 13.2246C12.6666 13.2065 12.7967 13.1839 12.9251 13.1577C12.8374 11.9313 12.3738 10.8105 11.6489 9.90951C11.601 9.84986 11.5513 9.79111 11.5007 9.73327C10.7135 10.6361 10.1984 11.784 10.0836 13.0465L10.0845 13.0466Z" fill="black"/>
</svg>
