<svg width="44" height="45" viewBox="0 0 44 45" fill="none" xmlns="http://www.w3.org/2000/svg">
<g clip-path="url(#clip0_168_1999)">
<path d="M43.7866 22.3931C43.7866 27.8407 34.2085 32.2568 22.3933 32.2568C10.5781 32.2568 1 27.8407 1 22.3931C1 19.4404 3.81072 16.7939 8.26525 14.9863" stroke="black" stroke-width="1.21344" stroke-linecap="round" stroke-linejoin="round"/>
<path d="M27.2606 41.6343C25.7903 43.0128 24.1384 43.7866 22.3927 43.7866C16.2499 43.7866 11.2695 34.2085 11.2695 22.3933C11.2695 10.5781 16.2495 1 22.3927 1C25.3745 1 28.0821 3.25659 30.0778 6.93047" stroke="black" stroke-width="1.21344" stroke-linecap="round" stroke-linejoin="round"/>
<path d="M15.0508 18.8818H18.5621V22.3931H15.0508" stroke="black" stroke-width="1.21344" stroke-linecap="round" stroke-linejoin="round"/>
<path d="M15.0508 22.3936H18.5621V25.9048H15.0508" stroke="black" stroke-width="1.21344" stroke-linecap="round" stroke-linejoin="round"/>
<path d="M24.1484 22.3931H20.6367V18.8818H24.148" stroke="black" stroke-width="1.21344" stroke-linecap="round" stroke-linejoin="round"/>
<path d="M24.148 22.3936H20.6367V25.9048H24.148V22.3936Z" stroke="black" stroke-width="1.21344" stroke-linecap="round" stroke-linejoin="round"/>
<path d="M29.7378 22.3931V25.9044H26.2266V18.8818H29.7378V22.3931Z" stroke="black" stroke-width="1.21344" stroke-linecap="round" stroke-linejoin="round"/>
<path d="M33.156 21.1938C33.7944 21.1938 34.312 20.6763 34.312 20.0378C34.312 19.3994 33.7944 18.8818 33.156 18.8818C32.5176 18.8818 32 19.3994 32 20.0378C32 20.6763 32.5176 21.1938 33.156 21.1938Z" stroke="black" stroke-width="1.21344" stroke-linecap="round" stroke-linejoin="round"/>
<path d="M5.47266 14.0176L8.2672 14.9883L7.29645 17.7829" stroke="black" stroke-width="1.21344" stroke-linecap="round" stroke-linejoin="round"/>
<path d="M30.7518 4.0498L30.0795 6.9301L27.1992 6.25785" stroke="black" stroke-width="1.21344" stroke-linecap="round" stroke-linejoin="round"/>
</g>
<defs>
<clipPath id="clip0_168_1999">
<rect width="44" height="44.7866" fill="white"/>
</clipPath>
</defs>
</svg>
