<svg width="21" height="21" viewBox="0 0 21 21" fill="none" xmlns="http://www.w3.org/2000/svg">
<path fill-rule="evenodd" clip-rule="evenodd" d="M9.33264 1.66737C9.55579 1.89053 9.55579 2.25233 9.33264 2.47549L2.47549 9.33264C2.25233 9.55579 1.89053 9.55579 1.66737 9.33264C1.44421 9.1095 1.44421 8.74767 1.66737 8.52453L8.52453 1.66737C8.74767 1.44421 9.1095 1.44421 9.33264 1.66737Z" fill="black"/>
<path fill-rule="evenodd" clip-rule="evenodd" d="M14.3292 1.67085C14.5569 1.89866 14.5569 2.26801 14.3292 2.49582L8.4958 8.32916C8.26801 8.55695 7.89864 8.55695 7.67084 8.32916C7.44305 8.10136 7.44305 7.732 7.67084 7.5042L13.5042 1.67085C13.732 1.44305 14.1014 1.44305 14.3292 1.67085Z" fill="black"/>
<path fill-rule="evenodd" clip-rule="evenodd" d="M6.31695 9.68305C6.56102 9.92711 6.56102 10.3229 6.31695 10.5669L2.56695 14.317C2.32286 14.561 1.92714 14.561 1.68306 14.317C1.43898 14.0729 1.43898 13.6771 1.68306 13.4331L5.43307 9.68305C5.67714 9.43898 6.07289 9.43898 6.31695 9.68305Z" fill="black"/>
<path fill-rule="evenodd" clip-rule="evenodd" d="M11.3047 9.69525C11.5651 9.95559 11.5651 10.3777 11.3047 10.6381L4.63807 17.3047C4.37774 17.5651 3.95561 17.5651 3.69526 17.3047C3.43491 17.0444 3.43491 16.6223 3.69526 16.3619L10.3619 9.69525C10.6223 9.43492 11.0444 9.43492 11.3047 9.69525Z" fill="black"/>
<path fill-rule="evenodd" clip-rule="evenodd" d="M17.317 3.68306C17.561 3.92714 17.561 4.32288 17.317 4.56694L13.5669 8.31695C13.3229 8.56102 12.9271 8.56102 12.683 8.31695C12.439 8.07289 12.439 7.67714 12.683 7.43308L16.4331 3.68306C16.6771 3.43898 17.0729 3.43898 17.317 3.68306Z" fill="black"/>
<path fill-rule="evenodd" clip-rule="evenodd" d="M19.317 6.68305C19.561 6.92711 19.561 7.32286 19.317 7.56693L15.5669 11.317C15.3229 11.561 14.9271 11.561 14.683 11.317C14.439 11.0729 14.439 10.6771 14.683 10.4331L18.4331 6.68305C18.6771 6.43898 19.0729 6.43898 19.317 6.68305Z" fill="black"/>
<path fill-rule="evenodd" clip-rule="evenodd" d="M13.3536 12.6464C13.5488 12.8417 13.5488 13.1583 13.3536 13.3535L12.3535 14.3536C12.1583 14.5488 11.8417 14.5488 11.6464 14.3536C11.4512 14.1583 11.4512 13.8417 11.6464 13.6465L12.6465 12.6464C12.8417 12.4512 13.1583 12.4512 13.3536 12.6464Z" fill="black"/>
<path fill-rule="evenodd" clip-rule="evenodd" d="M9.35356 16.6464C9.54881 16.8417 9.54881 17.1583 9.35356 17.3535L7.35354 19.3536C7.15829 19.5488 6.84169 19.5488 6.64644 19.3536C6.45119 19.1583 6.45119 18.8417 6.64644 18.6465L8.64646 16.6464C8.84171 16.4512 9.15831 16.4512 9.35356 16.6464Z" fill="black"/>
<path fill-rule="evenodd" clip-rule="evenodd" d="M19.3326 11.6674C19.5558 11.8905 19.5558 12.2523 19.3326 12.4755L12.4755 19.3326C12.2523 19.5558 11.8905 19.5558 11.6674 19.3326C11.4442 19.1095 11.4442 18.7477 11.6674 18.5245L18.5245 11.6674C18.7477 11.4442 19.1095 11.4442 19.3326 11.6674Z" fill="black"/>
<path fill-rule="evenodd" clip-rule="evenodd" d="M18 1.75H3C2.30964 1.75 1.75 2.30964 1.75 3V18C1.75 18.6904 2.30964 19.25 3 19.25H18C18.6904 19.25 19.25 18.6904 19.25 18V3C19.25 2.30964 18.6904 1.75 18 1.75ZM3 0.5C1.61929 0.5 0.5 1.61929 0.5 3V18C0.5 19.3807 1.61929 20.5 3 20.5H18C19.3807 20.5 20.5 19.3807 20.5 18V3C20.5 1.61929 19.3807 0.5 18 0.5H3Z" fill="black"/>
</svg>
