<svg width="11" height="12" viewBox="0 0 11 12" fill="none" xmlns="http://www.w3.org/2000/svg">
<path d="M6.17534 1.5002C6.17534 1.1274 5.87313 0.825195 5.50034 0.825195C5.12755 0.825195 4.82534 1.1274 4.82534 1.5002V5.32519H1.00019C0.627403 5.32519 0.325195 5.6274 0.325195 6.00019C0.325195 6.37299 0.627403 6.67519 1.00019 6.67519H4.82534V10.5002C4.82534 10.873 5.12755 11.1752 5.50034 11.1752C5.87313 11.1752 6.17534 10.873 6.17534 10.5002V6.67519H10.0002C10.373 6.67519 10.6752 6.37299 10.6752 6.0002C10.6752 5.6274 10.373 5.32519 10.0002 5.32519H6.17534V1.5002Z" fill="black"/>
</svg>
