{
	"asset":{
		"generator":"Khronos glTF Blender I/O v4.2.57",
		"version":"2.0"
	},
	"extensionsUsed":[
		"KHR_materials_specular"
	],
	"scene":0,
	"scenes":[
		{
			"name":"Scene",
			"nodes":[
				0,
				2
			]
		}
	],
	"nodes":[
		{
			"name":"t_Scene_Node"
		},
		{
			"mesh":0,
			"name":"Cloth"
		},
		{
			"children":[
				1
			],
			"name":"dr_Scene_Node"
		}
	],
	"materials":[
		{
			"extensions":{
				"KHR_materials_specular":{
					"specularFactor":0.15000000596046448
				}
			},
			"name":"FABRIC 1 Copy 1_3908756"
		},
		{
			"extensions":{
				"KHR_materials_specular":{
					"specularFactor":0.15000000596046448
				}
			},
			"name":"FABRIC 1 Copy 2_3908771"
		},
		{
			"extensions":{
				"KHR_materials_specular":{
					"specularFactor":0.15000000596046448
				}
			},
			"name":"FABRIC 1_3884505"
		}
	],
	"meshes":[
		{
			"name":"Cloth_mesh.007",
			"primitives":[
				{
					"attributes":{
						"POSITION":0,
						"NORMAL":1,
						"TEXCOORD_0":2
					},
					"indices":3,
					"material":0
				},
				{
					"attributes":{
						"POSITION":4,
						"NORMAL":5,
						"TEXCOORD_0":6
					},
					"indices":7,
					"material":1
				},
				{
					"attributes":{
						"POSITION":8,
						"NORMAL":9,
						"TEXCOORD_0":10
					},
					"indices":11,
					"material":2
				}
			]
		}
	],
	"accessors":[
		{
			"bufferView":0,
			"componentType":5126,
			"count":20578,
			"max":[
				1.918164849281311,
				4.1532440185546875,
				1.456864356994629
			],
			"min":[
				-1.966700553894043,
				-5.2386980056762695,
				-0.09306300431489944
			],
			"type":"VEC3"
		},
		{
			"bufferView":1,
			"componentType":5126,
			"count":20578,
			"type":"VEC3"
		},
		{
			"bufferView":2,
			"componentType":5126,
			"count":20578,
			"type":"VEC2"
		},
		{
			"bufferView":3,
			"componentType":5123,
			"count":114960,
			"type":"SCALAR"
		},
		{
			"bufferView":4,
			"componentType":5126,
			"count":23526,
			"max":[
				2.04537296295166,
				3.6884212493896484,
				0.7084288001060486
			],
			"min":[
				-1.9665861129760742,
				-5.1961870193481445,
				-1.9448401927947998
			],
			"type":"VEC3"
		},
		{
			"bufferView":5,
			"componentType":5126,
			"count":23526,
			"type":"VEC3"
		},
		{
			"bufferView":6,
			"componentType":5126,
			"count":23526,
			"type":"VEC2"
		},
		{
			"bufferView":7,
			"componentType":5123,
			"count":133032,
			"type":"SCALAR"
		},
		{
			"bufferView":8,
			"componentType":5126,
			"count":7822,
			"max":[
				1.125126838684082,
				5.966831207275391,
				0.802929699420929
			],
			"min":[
				-1.07284414768219,
				4.128894805908203,
				-0.9495908617973328
			],
			"type":"VEC3"
		},
		{
			"bufferView":9,
			"componentType":5126,
			"count":7822,
			"type":"VEC3"
		},
		{
			"bufferView":10,
			"componentType":5126,
			"count":7822,
			"type":"VEC2"
		},
		{
			"bufferView":11,
			"componentType":5123,
			"count":40812,
			"type":"SCALAR"
		}
	],
	"bufferViews":[
		{
			"buffer":0,
			"byteLength":246936,
			"byteOffset":0,
			"target":34962
		},
		{
			"buffer":0,
			"byteLength":246936,
			"byteOffset":246936,
			"target":34962
		},
		{
			"buffer":0,
			"byteLength":164624,
			"byteOffset":493872,
			"target":34962
		},
		{
			"buffer":0,
			"byteLength":229920,
			"byteOffset":658496,
			"target":34963
		},
		{
			"buffer":0,
			"byteLength":282312,
			"byteOffset":888416,
			"target":34962
		},
		{
			"buffer":0,
			"byteLength":282312,
			"byteOffset":1170728,
			"target":34962
		},
		{
			"buffer":0,
			"byteLength":188208,
			"byteOffset":1453040,
			"target":34962
		},
		{
			"buffer":0,
			"byteLength":266064,
			"byteOffset":1641248,
			"target":34963
		},
		{
			"buffer":0,
			"byteLength":93864,
			"byteOffset":1907312,
			"target":34962
		},
		{
			"buffer":0,
			"byteLength":93864,
			"byteOffset":2001176,
			"target":34962
		},
		{
			"buffer":0,
			"byteLength":62576,
			"byteOffset":2095040,
			"target":34962
		},
		{
			"buffer":0,
			"byteLength":81624,
			"byteOffset":2157616,
			"target":34963
		}
	],
	"buffers":[
		{
			"byteLength":2239240,
			"uri":"Midi%20Dress.bin"
		}
	]
}
