{
	"asset":{
		"generator":"Khronos glTF Blender I/O v4.2.57",
		"version":"2.0"
	},
	"extensionsUsed":[
		"KHR_materials_specular"
	],
	"scene":0,
	"scenes":[
		{
			"name":"Scene",
			"nodes":[
				2
			]
		}
	],
	"nodes":[
		{
			"name":"Slider_1",
			"rotation":[
				0.18751569092273712,
				0.016245068982243538,
				-0.02793113887310028,
				0.9817299842834473
			],
			"translation":[
				-0.002904329914599657,
				2.6258506774902344,
				1.2003586292266846
			]
		},
		{
			"children":[
				0
			],
			"mesh":0,
			"name":"Cloth"
		},
		{
			"children":[
				1
			],
			"name":"p_Scene_Node"
		}
	],
	"materials":[
		{
			"extensions":{
				"KHR_materials_specular":{
					"specularFactor":0.15000000596046448
				}
			},
			"name":"FABRIC 1 Copy 1_6970415"
		},
		{
			"extensions":{
				"KHR_materials_specular":{
					"specularFactor":0.15000000596046448
				}
			},
			"name":"FABRIC 1 Copy 2_6971044"
		},
		{
			"extensions":{
				"KHR_materials_specular":{
					"specularFactor":0.15000000596046448
				}
			},
			"name":"FABRIC 1 Copy 3_6971162"
		},
		{
			"extensions":{
				"KHR_materials_specular":{
					"specularFactor":0.15000000596046448
				}
			},
			"name":"FABRIC 1 Copy 4_6971610"
		},
		{
			"extensions":{
				"KHR_materials_specular":{
					"specularFactor":0.15000000596046448
				}
			},
			"name":"FABRIC 1 Copy 6_6971635"
		},
		{
			"extensions":{
				"KHR_materials_specular":{
					"specularFactor":0.15000000596046448
				}
			},
			"name":"FABRIC 1_6956446"
		},
		{
			"extensions":{
				"KHR_materials_specular":{
					"specularFactor":0.15000000596046448
				}
			},
			"name":"FABRIC 1 Copy 5_6971623"
		},
		{
			"extensions":{
				"KHR_materials_specular":{
					"specularFactor":0.15000000596046448
				}
			},
			"name":"Zipper 1_6956584"
		},
		{
			"extensions":{
				"KHR_materials_specular":{
					"specularFactor":0.15000000596046448
				}
			},
			"name":"Zipper 1_6956589"
		},
		{
			"extensions":{
				"KHR_materials_specular":{
					"specularFactor":0.15000000596046448
				}
			},
			"name":"Zipper 1_6956621"
		},
		{
			"extensions":{
				"KHR_materials_specular":{
					"specularFactor":0.15000000596046448
				}
			},
			"name":"Zipper 1_6956627"
		},
		{
			"extensions":{
				"KHR_materials_specular":{
					"specularFactor":0.15000000596046448
				}
			},
			"name":"Zipper 1_6956634"
		},
		{
			"extensions":{
				"KHR_materials_specular":{
					"specularFactor":0.15000000596046448
				}
			},
			"name":"Zipper 1_6956640"
		},
		{
			"extensions":{
				"KHR_materials_specular":{
					"specularFactor":0.15000000596046448
				}
			},
			"name":"Zipper 1_6956607"
		},
		{
			"extensions":{
				"KHR_materials_specular":{
					"specularFactor":0.15000000596046448
				}
			},
			"name":"Zipper 1_6956614"
		}
	],
	"meshes":[
		{
			"name":"Cloth_mesh.002",
			"primitives":[
				{
					"attributes":{
						"POSITION":0,
						"NORMAL":1,
						"TEXCOORD_0":2
					},
					"indices":3,
					"material":0
				},
				{
					"attributes":{
						"POSITION":4,
						"NORMAL":5,
						"TEXCOORD_0":6
					},
					"indices":7,
					"material":1
				},
				{
					"attributes":{
						"POSITION":8,
						"NORMAL":9,
						"TEXCOORD_0":10
					},
					"indices":11,
					"material":2
				},
				{
					"attributes":{
						"POSITION":12,
						"NORMAL":13,
						"TEXCOORD_0":14
					},
					"indices":15,
					"material":3
				},
				{
					"attributes":{
						"POSITION":16,
						"NORMAL":17,
						"TEXCOORD_0":18
					},
					"indices":19,
					"material":4
				},
				{
					"attributes":{
						"POSITION":20,
						"NORMAL":21,
						"TEXCOORD_0":22
					},
					"indices":23,
					"material":5
				},
				{
					"attributes":{
						"POSITION":24,
						"NORMAL":25,
						"TEXCOORD_0":26
					},
					"indices":27,
					"material":6
				},
				{
					"attributes":{
						"POSITION":28,
						"NORMAL":29,
						"TEXCOORD_0":30
					},
					"indices":31,
					"material":7
				},
				{
					"attributes":{
						"POSITION":32,
						"NORMAL":33,
						"TEXCOORD_0":34
					},
					"indices":35,
					"material":8
				},
				{
					"attributes":{
						"POSITION":36,
						"NORMAL":37,
						"TEXCOORD_0":38
					},
					"indices":39,
					"material":9
				},
				{
					"attributes":{
						"POSITION":40,
						"NORMAL":41,
						"TEXCOORD_0":42
					},
					"indices":43,
					"material":10
				},
				{
					"attributes":{
						"POSITION":44,
						"NORMAL":45,
						"TEXCOORD_0":46
					},
					"indices":47,
					"material":11
				},
				{
					"attributes":{
						"POSITION":48,
						"NORMAL":49,
						"TEXCOORD_0":50
					},
					"indices":51,
					"material":12
				},
				{
					"attributes":{
						"POSITION":52,
						"NORMAL":53,
						"TEXCOORD_0":54
					},
					"indices":55,
					"material":13
				},
				{
					"attributes":{
						"POSITION":56,
						"NORMAL":57,
						"TEXCOORD_0":58
					},
					"indices":59,
					"material":14
				}
			]
		}
	],
	"accessors":[
		{
			"bufferView":0,
			"componentType":5126,
			"count":23732,
			"max":[
				2.477727174758911,
				2.399515151977539,
				2.348775863647461
			],
			"min":[
				-2.4770355224609375,
				-4.609235763549805,
				0.04676276445388794
			],
			"type":"VEC3"
		},
		{
			"bufferView":1,
			"componentType":5126,
			"count":23732,
			"type":"VEC3"
		},
		{
			"bufferView":2,
			"componentType":5126,
			"count":23732,
			"type":"VEC2"
		},
		{
			"bufferView":3,
			"componentType":5123,
			"count":131832,
			"type":"SCALAR"
		},
		{
			"bufferView":4,
			"componentType":5126,
			"count":20948,
			"max":[
				2.5389139652252197,
				2.393383026123047,
				0.7746625542640686
			],
			"min":[
				-2.5088250637054443,
				-4.845981597900391,
				-1.0874898433685303
			],
			"type":"VEC3"
		},
		{
			"bufferView":5,
			"componentType":5126,
			"count":20948,
			"type":"VEC3"
		},
		{
			"bufferView":6,
			"componentType":5126,
			"count":20948,
			"type":"VEC2"
		},
		{
			"bufferView":7,
			"componentType":5123,
			"count":118488,
			"type":"SCALAR"
		},
		{
			"bufferView":8,
			"componentType":5126,
			"count":14056,
			"max":[
				3.209620475769043,
				0.9838571548461914,
				1.5604467391967773
			],
			"min":[
				1.2490628957748413,
				-5.024234771728516,
				-0.634207546710968
			],
			"type":"VEC3"
		},
		{
			"bufferView":9,
			"componentType":5126,
			"count":14056,
			"type":"VEC3"
		},
		{
			"bufferView":10,
			"componentType":5126,
			"count":14056,
			"type":"VEC2"
		},
		{
			"bufferView":11,
			"componentType":5123,
			"count":79692,
			"type":"SCALAR"
		},
		{
			"bufferView":12,
			"componentType":5126,
			"count":14072,
			"max":[
				-1.4180458784103394,
				0.9880752563476562,
				1.4511590003967285
			],
			"min":[
				-3.2596685886383057,
				-5.01851749420166,
				-0.6503022313117981
			],
			"type":"VEC3"
		},
		{
			"bufferView":13,
			"componentType":5126,
			"count":14072,
			"type":"VEC3"
		},
		{
			"bufferView":14,
			"componentType":5126,
			"count":14072,
			"type":"VEC2"
		},
		{
			"bufferView":15,
			"componentType":5123,
			"count":79788,
			"type":"SCALAR"
		},
		{
			"bufferView":16,
			"componentType":5126,
			"count":17356,
			"max":[
				-0.03444866091012955,
				2.9434432983398438,
				1.2293118238449097
			],
			"min":[
				-1.5727964639663696,
				1.1169967651367188,
				-1.7640926837921143
			],
			"type":"VEC3"
		},
		{
			"bufferView":17,
			"componentType":5126,
			"count":17356,
			"type":"VEC3"
		},
		{
			"bufferView":18,
			"componentType":5126,
			"count":17356,
			"type":"VEC2"
		},
		{
			"bufferView":19,
			"componentType":5123,
			"count":97464,
			"type":"SCALAR"
		},
		{
			"bufferView":20,
			"componentType":5126,
			"count":21026,
			"max":[
				1.2212799787521362,
				2.929513931274414,
				0.059996187686920166
			],
			"min":[
				-0.8114420771598816,
				1.0462141036987305,
				-2.0984747409820557
			],
			"type":"VEC3"
		},
		{
			"bufferView":21,
			"componentType":5126,
			"count":21026,
			"type":"VEC3"
		},
		{
			"bufferView":22,
			"componentType":5126,
			"count":21026,
			"type":"VEC2"
		},
		{
			"bufferView":23,
			"componentType":5123,
			"count":118884,
			"type":"SCALAR"
		},
		{
			"bufferView":24,
			"componentType":5126,
			"count":17406,
			"max":[
				1.5823065042495728,
				2.943429946899414,
				1.2285630702972412
			],
			"min":[
				0.040193405002355576,
				1.1169471740722656,
				-1.7640914916992188
			],
			"type":"VEC3"
		},
		{
			"bufferView":25,
			"componentType":5126,
			"count":17406,
			"type":"VEC3"
		},
		{
			"bufferView":26,
			"componentType":5126,
			"count":17406,
			"type":"VEC2"
		},
		{
			"bufferView":27,
			"componentType":5123,
			"count":97740,
			"type":"SCALAR"
		},
		{
			"bufferView":28,
			"componentType":5126,
			"count":468,
			"max":[
				0.07751833647489548,
				2.6959991455078125,
				2.3073723316192627
			],
			"min":[
				-0.05676949769258499,
				-4.508664131164551,
				1.0131136178970337
			],
			"type":"VEC3"
		},
		{
			"bufferView":29,
			"componentType":5126,
			"count":468,
			"type":"VEC3"
		},
		{
			"bufferView":30,
			"componentType":5126,
			"count":468,
			"type":"VEC2"
		},
		{
			"bufferView":31,
			"componentType":5123,
			"count":1380,
			"type":"SCALAR"
		},
		{
			"bufferView":32,
			"componentType":5126,
			"count":1698,
			"max":[
				0.07751833647489548,
				2.6959991455078125,
				2.3073723316192627
			],
			"min":[
				-0.05676949769258499,
				-4.508664131164551,
				1.0131136178970337
			],
			"type":"VEC3"
		},
		{
			"bufferView":33,
			"componentType":5126,
			"count":1698,
			"type":"VEC3"
		},
		{
			"bufferView":34,
			"componentType":5126,
			"count":1698,
			"type":"VEC2"
		},
		{
			"bufferView":35,
			"componentType":5123,
			"count":8424,
			"type":"SCALAR"
		},
		{
			"bufferView":36,
			"componentType":5126,
			"count":1278,
			"max":[
				0.00190809927880764,
				2.697671890258789,
				1.2360788583755493
			],
			"min":[
				-0.027122877538204193,
				2.6593754291534424,
				1.2072964906692505
			],
			"type":"VEC3"
		},
		{
			"bufferView":37,
			"componentType":5126,
			"count":1278,
			"type":"VEC3"
		},
		{
			"bufferView":38,
			"componentType":5126,
			"count":1278,
			"type":"VEC2"
		},
		{
			"bufferView":39,
			"componentType":5123,
			"count":2340,
			"type":"SCALAR"
		},
		{
			"bufferView":40,
			"componentType":5126,
			"count":1291,
			"max":[
				0.020632900297641754,
				2.6984193325042725,
				1.2354375123977661
			],
			"min":[
				-0.009283555671572685,
				2.659268379211426,
				1.2065526247024536
			],
			"type":"VEC3"
		},
		{
			"bufferView":41,
			"componentType":5126,
			"count":1291,
			"type":"VEC3"
		},
		{
			"bufferView":42,
			"componentType":5126,
			"count":1291,
			"type":"VEC2"
		},
		{
			"bufferView":43,
			"componentType":5123,
			"count":2340,
			"type":"SCALAR"
		},
		{
			"bufferView":44,
			"componentType":5126,
			"count":1761,
			"max":[
				0.03710443526506424,
				-4.449501037597656,
				1.9148240089416504
			],
			"min":[
				-0.012350531294941902,
				-4.5140910148620605,
				1.8665671348571777
			],
			"type":"VEC3"
		},
		{
			"bufferView":45,
			"componentType":5126,
			"count":1761,
			"type":"VEC3"
		},
		{
			"bufferView":46,
			"componentType":5126,
			"count":1761,
			"type":"VEC2"
		},
		{
			"bufferView":47,
			"componentType":5123,
			"count":5088,
			"type":"SCALAR"
		},
		{
			"bufferView":48,
			"componentType":5126,
			"count":1113,
			"max":[
				0.0424773171544075,
				-4.445634365081787,
				1.9178463220596313
			],
			"min":[
				0.011231238022446632,
				-4.509462833404541,
				1.8719524145126343
			],
			"type":"VEC3"
		},
		{
			"bufferView":49,
			"componentType":5126,
			"count":1113,
			"type":"VEC3"
		},
		{
			"bufferView":50,
			"componentType":5126,
			"count":1113,
			"type":"VEC2"
		},
		{
			"bufferView":51,
			"componentType":5123,
			"count":2778,
			"type":"SCALAR"
		},
		{
			"bufferView":52,
			"componentType":5126,
			"count":507,
			"max":[
				0.04302298277616501,
				2.706697702407837,
				1.2595287561416626
			],
			"min":[
				-0.04341546818614006,
				2.589498281478882,
				1.169443130493164
			],
			"type":"VEC3"
		},
		{
			"bufferView":53,
			"componentType":5126,
			"count":507,
			"type":"VEC3"
		},
		{
			"bufferView":54,
			"componentType":5126,
			"count":507,
			"type":"VEC2"
		},
		{
			"bufferView":55,
			"componentType":5123,
			"count":2472,
			"type":"SCALAR"
		},
		{
			"bufferView":56,
			"componentType":5126,
			"count":732,
			"max":[
				0.03556480258703232,
				2.62161922454834,
				1.2287559509277344
			],
			"min":[
				-0.054961610585451126,
				2.4722084999084473,
				1.165993094444275
			],
			"type":"VEC3"
		},
		{
			"bufferView":57,
			"componentType":5126,
			"count":732,
			"type":"VEC3"
		},
		{
			"bufferView":58,
			"componentType":5126,
			"count":732,
			"type":"VEC2"
		},
		{
			"bufferView":59,
			"componentType":5123,
			"count":3480,
			"type":"SCALAR"
		}
	],
	"bufferViews":[
		{
			"buffer":0,
			"byteLength":284784,
			"byteOffset":0,
			"target":34962
		},
		{
			"buffer":0,
			"byteLength":284784,
			"byteOffset":284784,
			"target":34962
		},
		{
			"buffer":0,
			"byteLength":189856,
			"byteOffset":569568,
			"target":34962
		},
		{
			"buffer":0,
			"byteLength":263664,
			"byteOffset":759424,
			"target":34963
		},
		{
			"buffer":0,
			"byteLength":251376,
			"byteOffset":1023088,
			"target":34962
		},
		{
			"buffer":0,
			"byteLength":251376,
			"byteOffset":1274464,
			"target":34962
		},
		{
			"buffer":0,
			"byteLength":167584,
			"byteOffset":1525840,
			"target":34962
		},
		{
			"buffer":0,
			"byteLength":236976,
			"byteOffset":1693424,
			"target":34963
		},
		{
			"buffer":0,
			"byteLength":168672,
			"byteOffset":1930400,
			"target":34962
		},
		{
			"buffer":0,
			"byteLength":168672,
			"byteOffset":2099072,
			"target":34962
		},
		{
			"buffer":0,
			"byteLength":112448,
			"byteOffset":2267744,
			"target":34962
		},
		{
			"buffer":0,
			"byteLength":159384,
			"byteOffset":2380192,
			"target":34963
		},
		{
			"buffer":0,
			"byteLength":168864,
			"byteOffset":2539576,
			"target":34962
		},
		{
			"buffer":0,
			"byteLength":168864,
			"byteOffset":2708440,
			"target":34962
		},
		{
			"buffer":0,
			"byteLength":112576,
			"byteOffset":2877304,
			"target":34962
		},
		{
			"buffer":0,
			"byteLength":159576,
			"byteOffset":2989880,
			"target":34963
		},
		{
			"buffer":0,
			"byteLength":208272,
			"byteOffset":3149456,
			"target":34962
		},
		{
			"buffer":0,
			"byteLength":208272,
			"byteOffset":3357728,
			"target":34962
		},
		{
			"buffer":0,
			"byteLength":138848,
			"byteOffset":3566000,
			"target":34962
		},
		{
			"buffer":0,
			"byteLength":194928,
			"byteOffset":3704848,
			"target":34963
		},
		{
			"buffer":0,
			"byteLength":252312,
			"byteOffset":3899776,
			"target":34962
		},
		{
			"buffer":0,
			"byteLength":252312,
			"byteOffset":4152088,
			"target":34962
		},
		{
			"buffer":0,
			"byteLength":168208,
			"byteOffset":4404400,
			"target":34962
		},
		{
			"buffer":0,
			"byteLength":237768,
			"byteOffset":4572608,
			"target":34963
		},
		{
			"buffer":0,
			"byteLength":208872,
			"byteOffset":4810376,
			"target":34962
		},
		{
			"buffer":0,
			"byteLength":208872,
			"byteOffset":5019248,
			"target":34962
		},
		{
			"buffer":0,
			"byteLength":139248,
			"byteOffset":5228120,
			"target":34962
		},
		{
			"buffer":0,
			"byteLength":195480,
			"byteOffset":5367368,
			"target":34963
		},
		{
			"buffer":0,
			"byteLength":5616,
			"byteOffset":5562848,
			"target":34962
		},
		{
			"buffer":0,
			"byteLength":5616,
			"byteOffset":5568464,
			"target":34962
		},
		{
			"buffer":0,
			"byteLength":3744,
			"byteOffset":5574080,
			"target":34962
		},
		{
			"buffer":0,
			"byteLength":2760,
			"byteOffset":5577824,
			"target":34963
		},
		{
			"buffer":0,
			"byteLength":20376,
			"byteOffset":5580584,
			"target":34962
		},
		{
			"buffer":0,
			"byteLength":20376,
			"byteOffset":5600960,
			"target":34962
		},
		{
			"buffer":0,
			"byteLength":13584,
			"byteOffset":5621336,
			"target":34962
		},
		{
			"buffer":0,
			"byteLength":16848,
			"byteOffset":5634920,
			"target":34963
		},
		{
			"buffer":0,
			"byteLength":15336,
			"byteOffset":5651768,
			"target":34962
		},
		{
			"buffer":0,
			"byteLength":15336,
			"byteOffset":5667104,
			"target":34962
		},
		{
			"buffer":0,
			"byteLength":10224,
			"byteOffset":5682440,
			"target":34962
		},
		{
			"buffer":0,
			"byteLength":4680,
			"byteOffset":5692664,
			"target":34963
		},
		{
			"buffer":0,
			"byteLength":15492,
			"byteOffset":5697344,
			"target":34962
		},
		{
			"buffer":0,
			"byteLength":15492,
			"byteOffset":5712836,
			"target":34962
		},
		{
			"buffer":0,
			"byteLength":10328,
			"byteOffset":5728328,
			"target":34962
		},
		{
			"buffer":0,
			"byteLength":4680,
			"byteOffset":5738656,
			"target":34963
		},
		{
			"buffer":0,
			"byteLength":21132,
			"byteOffset":5743336,
			"target":34962
		},
		{
			"buffer":0,
			"byteLength":21132,
			"byteOffset":5764468,
			"target":34962
		},
		{
			"buffer":0,
			"byteLength":14088,
			"byteOffset":5785600,
			"target":34962
		},
		{
			"buffer":0,
			"byteLength":10176,
			"byteOffset":5799688,
			"target":34963
		},
		{
			"buffer":0,
			"byteLength":13356,
			"byteOffset":5809864,
			"target":34962
		},
		{
			"buffer":0,
			"byteLength":13356,
			"byteOffset":5823220,
			"target":34962
		},
		{
			"buffer":0,
			"byteLength":8904,
			"byteOffset":5836576,
			"target":34962
		},
		{
			"buffer":0,
			"byteLength":5556,
			"byteOffset":5845480,
			"target":34963
		},
		{
			"buffer":0,
			"byteLength":6084,
			"byteOffset":5851036,
			"target":34962
		},
		{
			"buffer":0,
			"byteLength":6084,
			"byteOffset":5857120,
			"target":34962
		},
		{
			"buffer":0,
			"byteLength":4056,
			"byteOffset":5863204,
			"target":34962
		},
		{
			"buffer":0,
			"byteLength":4944,
			"byteOffset":5867260,
			"target":34963
		},
		{
			"buffer":0,
			"byteLength":8784,
			"byteOffset":5872204,
			"target":34962
		},
		{
			"buffer":0,
			"byteLength":8784,
			"byteOffset":5880988,
			"target":34962
		},
		{
			"buffer":0,
			"byteLength":5856,
			"byteOffset":5889772,
			"target":34962
		},
		{
			"buffer":0,
			"byteLength":6960,
			"byteOffset":5895628,
			"target":34963
		}
	],
	"buffers":[
		{
			"byteLength":5902588,
			"uri":"Puffer22.bin"
		}
	]
}
