{
	"asset":{
		"generator":"Khronos glTF Blender I/O v4.2.57",
		"version":"2.0"
	},
	"extensionsUsed":[
		"KHR_materials_specular"
	],
	"scene":0,
	"scenes":[
		{
			"name":"Scene",
			"nodes":[
				0,
				2
			]
		}
	],
	"nodes":[
		{
			"name":"r_Scene_Node"
		},
		{
			"mesh":0,
			"name":"Cloth"
		},
		{
			"children":[
				1
			],
			"name":"r_Scene_Node.001"
		}
	],
	"materials":[
		{
			"extensions":{
				"KHR_materials_specular":{
					"specularFactor":0.15000000596046448
				}
			},
			"name":"dri fit Copy 7_600229"
		},
		{
			"extensions":{
				"KHR_materials_specular":{
					"specularFactor":0.15000000596046448
				}
			},
			"name":"dri fit Copy 8_617840"
		},
		{
			"extensions":{
				"KHR_materials_specular":{
					"specularFactor":0
				}
			},
			"name":"rib Copy 1_600218"
		},
		{
			"extensions":{
				"KHR_materials_specular":{
					"specularFactor":0
				}
			},
			"name":"rib Copy 2_620441"
		},
		{
			"extensions":{
				"KHR_materials_specular":{
					"specularFactor":0.15000000596046448
				}
			},
			"name":"Cotton_Stretch_Sateen_600236"
		}
	],
	"meshes":[
		{
			"name":"Cloth_mesh.002",
			"primitives":[
				{
					"attributes":{
						"POSITION":0,
						"NORMAL":1,
						"TEXCOORD_0":2
					},
					"indices":3,
					"material":0
				},
				{
					"attributes":{
						"POSITION":4,
						"NORMAL":5,
						"TEXCOORD_0":6
					},
					"indices":7,
					"material":1
				},
				{
					"attributes":{
						"POSITION":8,
						"NORMAL":9,
						"TEXCOORD_0":10
					},
					"indices":11,
					"material":2
				},
				{
					"attributes":{
						"POSITION":12,
						"NORMAL":13,
						"TEXCOORD_0":14
					},
					"indices":15,
					"material":3
				},
				{
					"attributes":{
						"POSITION":16,
						"NORMAL":17,
						"TEXCOORD_0":18
					},
					"indices":19,
					"material":4
				}
			]
		}
	],
	"accessors":[
		{
			"bufferView":0,
			"componentType":5126,
			"count":14010,
			"max":[
				1.758094072341919,
				2.649477005004883,
				0.24551773071289062
			],
			"min":[
				-1.694090723991394,
				-3.937755584716797,
				-1.1835448741912842
			],
			"type":"VEC3"
		},
		{
			"bufferView":1,
			"componentType":5126,
			"count":14010,
			"type":"VEC3"
		},
		{
			"bufferView":2,
			"componentType":5126,
			"count":14010,
			"type":"VEC2"
		},
		{
			"bufferView":3,
			"componentType":5123,
			"count":79068,
			"type":"SCALAR"
		},
		{
			"bufferView":4,
			"componentType":5126,
			"count":13100,
			"max":[
				1.758057713508606,
				2.5944080352783203,
				1.5312693119049072
			],
			"min":[
				-1.7097151279449463,
				-3.878255844116211,
				-0.14029169082641602
			],
			"type":"VEC3"
		},
		{
			"bufferView":5,
			"componentType":5126,
			"count":13100,
			"type":"VEC3"
		},
		{
			"bufferView":6,
			"componentType":5126,
			"count":13100,
			"type":"VEC2"
		},
		{
			"bufferView":7,
			"componentType":5123,
			"count":74076,
			"type":"SCALAR"
		},
		{
			"bufferView":8,
			"componentType":5126,
			"count":9230,
			"max":[
				1.667837142944336,
				2.375844955444336,
				1.0031646490097046
			],
			"min":[
				-1.6893863677978516,
				-0.20749378204345703,
				-1.0976145267486572
			],
			"type":"VEC3"
		},
		{
			"bufferView":9,
			"componentType":5126,
			"count":9230,
			"type":"VEC3"
		},
		{
			"bufferView":10,
			"componentType":5126,
			"count":9230,
			"type":"VEC2"
		},
		{
			"bufferView":11,
			"componentType":5123,
			"count":45948,
			"type":"SCALAR"
		},
		{
			"bufferView":12,
			"componentType":5126,
			"count":4269,
			"max":[
				1.0161371231079102,
				2.7442588806152344,
				0.9143282175064087
			],
			"min":[
				-1.0254738330841064,
				1.6289482116699219,
				-0.6363141536712646
			],
			"type":"VEC3"
		},
		{
			"bufferView":13,
			"componentType":5126,
			"count":4269,
			"type":"VEC3"
		},
		{
			"bufferView":14,
			"componentType":5126,
			"count":4269,
			"type":"VEC2"
		},
		{
			"bufferView":15,
			"componentType":5123,
			"count":21738,
			"type":"SCALAR"
		},
		{
			"bufferView":16,
			"componentType":5126,
			"count":708,
			"max":[
				0.8967657089233398,
				2.635578155517578,
				-0.39528414607048035
			],
			"min":[
				-0.9022004008293152,
				2.491901397705078,
				-0.6464765071868896
			],
			"type":"VEC3"
		},
		{
			"bufferView":17,
			"componentType":5126,
			"count":708,
			"type":"VEC3"
		},
		{
			"bufferView":18,
			"componentType":5126,
			"count":708,
			"type":"VEC2"
		},
		{
			"bufferView":19,
			"componentType":5123,
			"count":3264,
			"type":"SCALAR"
		}
	],
	"bufferViews":[
		{
			"buffer":0,
			"byteLength":168120,
			"byteOffset":0,
			"target":34962
		},
		{
			"buffer":0,
			"byteLength":168120,
			"byteOffset":168120,
			"target":34962
		},
		{
			"buffer":0,
			"byteLength":112080,
			"byteOffset":336240,
			"target":34962
		},
		{
			"buffer":0,
			"byteLength":158136,
			"byteOffset":448320,
			"target":34963
		},
		{
			"buffer":0,
			"byteLength":157200,
			"byteOffset":606456,
			"target":34962
		},
		{
			"buffer":0,
			"byteLength":157200,
			"byteOffset":763656,
			"target":34962
		},
		{
			"buffer":0,
			"byteLength":104800,
			"byteOffset":920856,
			"target":34962
		},
		{
			"buffer":0,
			"byteLength":148152,
			"byteOffset":1025656,
			"target":34963
		},
		{
			"buffer":0,
			"byteLength":110760,
			"byteOffset":1173808,
			"target":34962
		},
		{
			"buffer":0,
			"byteLength":110760,
			"byteOffset":1284568,
			"target":34962
		},
		{
			"buffer":0,
			"byteLength":73840,
			"byteOffset":1395328,
			"target":34962
		},
		{
			"buffer":0,
			"byteLength":91896,
			"byteOffset":1469168,
			"target":34963
		},
		{
			"buffer":0,
			"byteLength":51228,
			"byteOffset":1561064,
			"target":34962
		},
		{
			"buffer":0,
			"byteLength":51228,
			"byteOffset":1612292,
			"target":34962
		},
		{
			"buffer":0,
			"byteLength":34152,
			"byteOffset":1663520,
			"target":34962
		},
		{
			"buffer":0,
			"byteLength":43476,
			"byteOffset":1697672,
			"target":34963
		},
		{
			"buffer":0,
			"byteLength":8496,
			"byteOffset":1741148,
			"target":34962
		},
		{
			"buffer":0,
			"byteLength":8496,
			"byteOffset":1749644,
			"target":34962
		},
		{
			"buffer":0,
			"byteLength":5664,
			"byteOffset":1758140,
			"target":34962
		},
		{
			"buffer":0,
			"byteLength":6528,
			"byteOffset":1763804,
			"target":34963
		}
	],
	"buffers":[
		{
			"byteLength":1770332,
			"uri":"Top%20Male2.bin"
		}
	]
}
