{
    "asset" : {
        "generator" : "Khronos glTF Blender I/O v1.1.46",
        "version" : "2.0"
    },
    "scene" : 0,
    "scenes" : [
        {
            "name" : "Scene",
            "nodes" : [
                0,
                1,
                2,
                3,
                4,
                5,
                6
            ]
        }
    ],
    "nodes" : [
        {
            "mesh" : 0,
            "name" : "Ribbing",
            "rotation" : [
                0.7071068286895752,
                0,
                0,
                0.7071067094802856
            ],
            "scale" : [
                0.010000000707805157,
                0.010000000707805157,
                0.010000000707805157
            ]
        },
        {
            "mesh" : 1,
            "name" : "Body_Front",
            "rotation" : [
                0.7071068286895752,
                0,
                0,
                0.7071067094802856
            ],
            "scale" : [
                0.010000000707805157,
                0.010000000707805157,
                0.010000000707805157
            ]
        },
        {
            "mesh" : 2,
            "name" : "Body_Back",
            "rotation" : [
                0.7071068286895752,
                0,
                0,
                0.7071067094802856
            ],
            "scale" : [
                0.010000000707805157,
                0.010000000707805157,
                0.010000000707805157
            ]
        },
        {
            "mesh" : 3,
            "name" : "Ribbing.001",
            "rotation" : [
                0.7071068286895752,
                0,
                0,
                0.7071067094802856
            ],
            "scale" : [
                0.010000000707805157,
                0.010000000707805157,
                0.010000000707805157
            ]
        },
        {
            "mesh" : 4,
            "name" : "Sleeves_4",
            "rotation" : [
                0.7071068286895752,
                0,
                0,
                0.7071067094802856
            ],
            "scale" : [
                0.010000000707805157,
                0.010000000707805157,
                0.010000000707805157
            ]
        },
        {
            "mesh" : 5,
            "name" : "Sleeves",
            "rotation" : [
                0.7071068286895752,
                0,
                0,
                0.7071067094802856
            ],
            "scale" : [
                0.010000000707805157,
                0.010000000707805157,
                0.010000000707805157
            ]
        },
        {
            "mesh" : 6,
            "name" : "Body_Back_7",
            "rotation" : [
                0.7071068286895752,
                0,
                0,
                0.7071067094802856
            ],
            "scale" : [
                0.010000000707805157,
                0.010000000707805157,
                0.010000000707805157
            ]
        }
    ],
    "materials" : [
        {
            "doubleSided" : true,
            "emissiveFactor" : [
                0,
                0,
                0
            ],
            "name" : "Material.004",
            "normalTexture" : {
                "index" : 0,
                "texCoord" : 0
            },
            "pbrMetallicRoughness" : {
                "baseColorTexture" : {
                    "index" : 1,
                    "texCoord" : 0
                },
                "metallicRoughnessTexture" : {
                    "index" : 2,
                    "texCoord" : 0
                }
            }
        },
        {
            "doubleSided" : true,
            "emissiveFactor" : [
                0,
                0,
                0
            ],
            "name" : "Material.003",
            "normalTexture" : {
                "index" : 3,
                "texCoord" : 0
            },
            "pbrMetallicRoughness" : {
                "baseColorTexture" : {
                    "index" : 4,
                    "texCoord" : 0
                },
                "metallicRoughnessTexture" : {
                    "index" : 5,
                    "texCoord" : 0
                }
            }
        },
        {
            "doubleSided" : true,
            "emissiveFactor" : [
                0,
                0,
                0
            ],
            "name" : "Material.001",
            "normalTexture" : {
                "index" : 6,
                "texCoord" : 0
            },
            "pbrMetallicRoughness" : {
                "baseColorTexture" : {
                    "index" : 7,
                    "texCoord" : 0
                },
                "metallicRoughnessTexture" : {
                    "index" : 8,
                    "texCoord" : 0
                }
            }
        },
        {
            "doubleSided" : true,
            "emissiveFactor" : [
                0,
                0,
                0
            ],
            "name" : "Material.005",
            "normalTexture" : {
                "index" : 9,
                "texCoord" : 0
            },
            "pbrMetallicRoughness" : {
                "baseColorTexture" : {
                    "index" : 10,
                    "texCoord" : 0
                },
                "metallicRoughnessTexture" : {
                    "index" : 11,
                    "texCoord" : 0
                }
            }
        },
        {
            "doubleSided" : true,
            "emissiveFactor" : [
                0,
                0,
                0
            ],
            "name" : "Material.007",
            "normalTexture" : {
                "index" : 12,
                "texCoord" : 0
            },
            "pbrMetallicRoughness" : {
                "baseColorTexture" : {
                    "index" : 13,
                    "texCoord" : 0
                },
                "metallicRoughnessTexture" : {
                    "index" : 14,
                    "texCoord" : 0
                }
            }
        },
        {
            "doubleSided" : true,
            "emissiveFactor" : [
                0,
                0,
                0
            ],
            "name" : "Material.006",
            "normalTexture" : {
                "index" : 15,
                "texCoord" : 0
            },
            "pbrMetallicRoughness" : {
                "baseColorTexture" : {
                    "index" : 16,
                    "texCoord" : 0
                },
                "metallicRoughnessTexture" : {
                    "index" : 17,
                    "texCoord" : 0
                }
            }
        },
        {
            "doubleSided" : true,
            "emissiveFactor" : [
                0,
                0,
                0
            ],
            "name" : "Material.002",
            "normalTexture" : {
                "index" : 18,
                "texCoord" : 0
            },
            "pbrMetallicRoughness" : {
                "baseColorTexture" : {
                    "index" : 19,
                    "texCoord" : 0
                },
                "metallicRoughnessTexture" : {
                    "index" : 20,
                    "texCoord" : 0
                }
            }
        }
    ],
    "meshes" : [
        {
            "name" : "Ribbing.004",
            "primitives" : [
                {
                    "attributes" : {
                        "POSITION" : 0,
                        "NORMAL" : 1,
                        "TEXCOORD_0" : 2
                    },
                    "indices" : 3,
                    "material" : 0
                }
            ]
        },
        {
            "name" : "Body_Front.002",
            "primitives" : [
                {
                    "attributes" : {
                        "POSITION" : 4,
                        "NORMAL" : 5,
                        "TEXCOORD_0" : 6
                    },
                    "indices" : 7,
                    "material" : 1
                }
            ]
        },
        {
            "name" : "Body_Back.002",
            "primitives" : [
                {
                    "attributes" : {
                        "POSITION" : 8,
                        "NORMAL" : 9,
                        "TEXCOORD_0" : 10
                    },
                    "indices" : 11,
                    "material" : 2
                }
            ]
        },
        {
            "name" : "Ribbing.005",
            "primitives" : [
                {
                    "attributes" : {
                        "POSITION" : 12,
                        "NORMAL" : 13,
                        "TEXCOORD_0" : 14
                    },
                    "indices" : 15,
                    "material" : 3
                }
            ]
        },
        {
            "name" : "Sleeves_4.002",
            "primitives" : [
                {
                    "attributes" : {
                        "POSITION" : 16,
                        "NORMAL" : 17,
                        "TEXCOORD_0" : 18
                    },
                    "indices" : 19,
                    "material" : 4
                }
            ]
        },
        {
            "name" : "Sleeves.002",
            "primitives" : [
                {
                    "attributes" : {
                        "POSITION" : 20,
                        "NORMAL" : 21,
                        "TEXCOORD_0" : 22
                    },
                    "indices" : 23,
                    "material" : 5
                }
            ]
        },
        {
            "name" : "Body_Back_7.002",
            "primitives" : [
                {
                    "attributes" : {
                        "POSITION" : 24,
                        "NORMAL" : 25,
                        "TEXCOORD_0" : 26
                    },
                    "indices" : 27,
                    "material" : 6
                }
            ]
        }
    ],
    "textures" : [
        {
            "source" : 0
        },
        {
            "source" : 1
        },
        {
            "source" : 2
        },
        {
            "source" : 0
        },
        {
            "source" : 1
        },
        {
            "source" : 2
        },
        {
            "source" : 0
        },
        {
            "source" : 1
        },
        {
            "source" : 2
        },
        {
            "source" : 0
        },
        {
            "source" : 1
        },
        {
            "source" : 2
        },
        {
            "source" : 0
        },
        {
            "source" : 1
        },
        {
            "source" : 2
        },
        {
            "source" : 0
        },
        {
            "source" : 1
        },
        {
            "source" : 2
        },
        {
            "source" : 0
        },
        {
            "source" : 1
        },
        {
            "source" : 2
        }
    ],
    "images" : [
        {
            "bufferView" : 4,
            "mimeType" : "image/jpeg",
            "name" : "Knit_Cotton_Jersey_FRONT_6757775_Normal"
        },
        {
            "bufferView" : 5,
            "mimeType" : "image/png",
            "name" : "Knit_Cotton_Jersey_FRONT_6757775_Base_Color"
        },
        {
            "bufferView" : 6,
            "mimeType" : "image/jpeg",
            "name" : "Knit_Cotton_Jersey_FRONT_6757775_Metallic-Knit_Cotton_Jersey_FRONT_6757775_Roughness"
        }
    ],
    "accessors" : [
        {
            "bufferView" : 0,
            "componentType" : 5126,
            "count" : 215,
            "max" : [
                9.960982322692871,
                3.532322645187378,
                -28.83216667175293
            ],
            "min" : [
                -9.661796569824219,
                -4.745851039886475,
                -34.89472198486328
            ],
            "type" : "VEC3"
        },
        {
            "bufferView" : 1,
            "componentType" : 5126,
            "count" : 215,
            "type" : "VEC3"
        },
        {
            "bufferView" : 2,
            "componentType" : 5126,
            "count" : 215,
            "type" : "VEC2"
        },
        {
            "bufferView" : 3,
            "componentType" : 5123,
            "count" : 969,
            "type" : "SCALAR"
        },
        {
            "bufferView" : 7,
            "componentType" : 5126,
            "count" : 7555,
            "max" : [
                27.348621368408203,
                16.07630157470703,
                43.31555938720703
            ],
            "min" : [
                -27.16098403930664,
                -4.785017013549805,
                -34.43965148925781
            ],
            "type" : "VEC3"
        },
        {
            "bufferView" : 8,
            "componentType" : 5126,
            "count" : 7555,
            "type" : "VEC3"
        },
        {
            "bufferView" : 9,
            "componentType" : 5126,
            "count" : 7555,
            "type" : "VEC2"
        },
        {
            "bufferView" : 10,
            "componentType" : 5123,
            "count" : 44250,
            "type" : "SCALAR"
        },
        {
            "bufferView" : 11,
            "componentType" : 5126,
            "count" : 8268,
            "max" : [
                26.10859489440918,
                1.9757970571517944,
                45.042667388916016
            ],
            "min" : [
                -26.1082706451416,
                -15.448748588562012,
                -34.681148529052734
            ],
            "type" : "VEC3"
        },
        {
            "bufferView" : 12,
            "componentType" : 5126,
            "count" : 8268,
            "type" : "VEC3"
        },
        {
            "bufferView" : 13,
            "componentType" : 5126,
            "count" : 8268,
            "type" : "VEC2"
        },
        {
            "bufferView" : 14,
            "componentType" : 5123,
            "count" : 48456,
            "type" : "SCALAR"
        },
        {
            "bufferView" : 15,
            "componentType" : 5126,
            "count" : 183,
            "max" : [
                9.959128379821777,
                -4.657698154449463,
                -33.621490478515625
            ],
            "min" : [
                -9.657848358154297,
                -10.062919616699219,
                -35.3586540222168
            ],
            "type" : "VEC3"
        },
        {
            "bufferView" : 16,
            "componentType" : 5126,
            "count" : 183,
            "type" : "VEC3"
        },
        {
            "bufferView" : 17,
            "componentType" : 5126,
            "count" : 183,
            "type" : "VEC2"
        },
        {
            "bufferView" : 18,
            "componentType" : 5123,
            "count" : 804,
            "type" : "SCALAR"
        },
        {
            "bufferView" : 19,
            "componentType" : 5126,
            "count" : 1743,
            "max" : [
                -15.505058288574219,
                3.042961597442627,
                10.357606887817383
            ],
            "min" : [
                -32.44028854370117,
                -9.736473083496094,
                -18.84126853942871
            ],
            "type" : "VEC3"
        },
        {
            "bufferView" : 20,
            "componentType" : 5126,
            "count" : 1743,
            "type" : "VEC3"
        },
        {
            "bufferView" : 21,
            "componentType" : 5126,
            "count" : 1743,
            "type" : "VEC2"
        },
        {
            "bufferView" : 22,
            "componentType" : 5123,
            "count" : 9921,
            "type" : "SCALAR"
        },
        {
            "bufferView" : 23,
            "componentType" : 5126,
            "count" : 1786,
            "max" : [
                32.55463790893555,
                3.4025285243988037,
                10.520915031433105
            ],
            "min" : [
                15.455560684204102,
                -9.707112312316895,
                -18.746740341186523
            ],
            "type" : "VEC3"
        },
        {
            "bufferView" : 24,
            "componentType" : 5126,
            "count" : 1786,
            "type" : "VEC3"
        },
        {
            "bufferView" : 25,
            "componentType" : 5126,
            "count" : 1786,
            "type" : "VEC2"
        },
        {
            "bufferView" : 26,
            "componentType" : 5123,
            "count" : 10179,
            "type" : "SCALAR"
        },
        {
            "bufferView" : 27,
            "componentType" : 5126,
            "count" : 271,
            "max" : [
                25.08432388305664,
                -2.8506064414978027,
                -18.454191207885742
            ],
            "min" : [
                -25.140295028686523,
                -10.492758750915527,
                -34.559852600097656
            ],
            "type" : "VEC3"
        },
        {
            "bufferView" : 28,
            "componentType" : 5126,
            "count" : 271,
            "type" : "VEC3"
        },
        {
            "bufferView" : 29,
            "componentType" : 5126,
            "count" : 271,
            "type" : "VEC2"
        },
        {
            "bufferView" : 30,
            "componentType" : 5123,
            "count" : 855,
            "type" : "SCALAR"
        }
    ],
    "bufferViews" : [
        {
            "buffer" : 0,
            "byteLength" : 2580,
            "byteOffset" : 0
        },
        {
            "buffer" : 0,
            "byteLength" : 2580,
            "byteOffset" : 2580
        },
        {
            "buffer" : 0,
            "byteLength" : 1720,
            "byteOffset" : 5160
        },
        {
            "buffer" : 0,
            "byteLength" : 1938,
            "byteOffset" : 6880
        },
        {
            "buffer" : 0,
            "byteLength" : 906920,
            "byteOffset" : 8820
        },
        {
            "buffer" : 0,
            "byteLength" : 562093,
            "byteOffset" : 915740
        },
        {
            "buffer" : 0,
            "byteLength" : 25610,
            "byteOffset" : 1477836
        },
        {
            "buffer" : 0,
            "byteLength" : 90660,
            "byteOffset" : 1503448
        },
        {
            "buffer" : 0,
            "byteLength" : 90660,
            "byteOffset" : 1594108
        },
        {
            "buffer" : 0,
            "byteLength" : 60440,
            "byteOffset" : 1684768
        },
        {
            "buffer" : 0,
            "byteLength" : 88500,
            "byteOffset" : 1745208
        },
        {
            "buffer" : 0,
            "byteLength" : 99216,
            "byteOffset" : 1833708
        },
        {
            "buffer" : 0,
            "byteLength" : 99216,
            "byteOffset" : 1932924
        },
        {
            "buffer" : 0,
            "byteLength" : 66144,
            "byteOffset" : 2032140
        },
        {
            "buffer" : 0,
            "byteLength" : 96912,
            "byteOffset" : 2098284
        },
        {
            "buffer" : 0,
            "byteLength" : 2196,
            "byteOffset" : 2195196
        },
        {
            "buffer" : 0,
            "byteLength" : 2196,
            "byteOffset" : 2197392
        },
        {
            "buffer" : 0,
            "byteLength" : 1464,
            "byteOffset" : 2199588
        },
        {
            "buffer" : 0,
            "byteLength" : 1608,
            "byteOffset" : 2201052
        },
        {
            "buffer" : 0,
            "byteLength" : 20916,
            "byteOffset" : 2202660
        },
        {
            "buffer" : 0,
            "byteLength" : 20916,
            "byteOffset" : 2223576
        },
        {
            "buffer" : 0,
            "byteLength" : 13944,
            "byteOffset" : 2244492
        },
        {
            "buffer" : 0,
            "byteLength" : 19842,
            "byteOffset" : 2258436
        },
        {
            "buffer" : 0,
            "byteLength" : 21432,
            "byteOffset" : 2278280
        },
        {
            "buffer" : 0,
            "byteLength" : 21432,
            "byteOffset" : 2299712
        },
        {
            "buffer" : 0,
            "byteLength" : 14288,
            "byteOffset" : 2321144
        },
        {
            "buffer" : 0,
            "byteLength" : 20358,
            "byteOffset" : 2335432
        },
        {
            "buffer" : 0,
            "byteLength" : 3252,
            "byteOffset" : 2355792
        },
        {
            "buffer" : 0,
            "byteLength" : 3252,
            "byteOffset" : 2359044
        },
        {
            "buffer" : 0,
            "byteLength" : 2168,
            "byteOffset" : 2362296
        },
        {
            "buffer" : 0,
            "byteLength" : 1710,
            "byteOffset" : 2364464
        }
    ],
    "buffers" : [
        {
            "byteLength" : 2366176,
            "uri" : "data:application/octet-stream;base64,"
        }
    ]
}
