{
	"asset":{
		"generator":"Khronos glTF Blender I/O v4.2.57",
		"version":"2.0"
	},
	"extensionsUsed":[
		"KHR_materials_specular"
	],
	"scene":0,
	"scenes":[
		{
			"name":"Scene",
			"nodes":[
				1
			]
		}
	],
	"nodes":[
		{
			"mesh":0,
			"name":"Cloth"
		},
		{
			"children":[
				0
			],
			"name":"dr_Scene_Node"
		}
	],
	"materials":[
		{
			"extensions":{
				"KHR_materials_specular":{
					"specularFactor":0
				}
			},
			"name":"Silk_Chiffon Copy 6_2536027"
		},
		{
			"extensions":{
				"KHR_materials_specular":{
					"specularFactor":0
				}
			},
			"name":"Silk_Chiffon Copy 5_2534277"
		},
		{
			"extensions":{
				"KHR_materials_specular":{
					"specularFactor":0
				}
			},
			"name":"Silk_Chiffon Copy 1_2521156"
		},
		{
			"extensions":{
				"KHR_materials_specular":{
					"specularFactor":0
				}
			},
			"name":"Silk_Chiffon Copy 3_2528155"
		},
		{
			"extensions":{
				"KHR_materials_specular":{
					"specularFactor":0
				}
			},
			"name":"Silk_Chiffon Copy 2_2525528"
		}
	],
	"meshes":[
		{
			"name":"Cloth_mesh.002",
			"primitives":[
				{
					"attributes":{
						"POSITION":0,
						"NORMAL":1,
						"TEXCOORD_0":2
					},
					"indices":3,
					"material":0
				},
				{
					"attributes":{
						"POSITION":4,
						"NORMAL":5,
						"TEXCOORD_0":6
					},
					"indices":7,
					"material":1
				},
				{
					"attributes":{
						"POSITION":8,
						"NORMAL":9,
						"TEXCOORD_0":10
					},
					"indices":11,
					"material":2
				},
				{
					"attributes":{
						"POSITION":12,
						"NORMAL":13,
						"TEXCOORD_0":14
					},
					"indices":15,
					"material":3
				},
				{
					"attributes":{
						"POSITION":16,
						"NORMAL":17,
						"TEXCOORD_0":18
					},
					"indices":19,
					"material":4
				}
			]
		}
	],
	"accessors":[
		{
			"bufferView":0,
			"componentType":5126,
			"count":34183,
			"max":[
				2.9507646560668945,
				6.35870361328125,
				1.1804383993148804
			],
			"min":[
				1.2749842405319214,
				-0.7962102890014648,
				-0.8486558198928833
			],
			"type":"VEC3"
		},
		{
			"bufferView":1,
			"componentType":5126,
			"count":34183,
			"type":"VEC3"
		},
		{
			"bufferView":2,
			"componentType":5126,
			"count":34183,
			"type":"VEC2"
		},
		{
			"bufferView":3,
			"componentType":5123,
			"count":198162,
			"type":"SCALAR"
		},
		{
			"bufferView":4,
			"componentType":5126,
			"count":34099,
			"max":[
				-1.314423680305481,
				6.278560638427734,
				1.1305137872695923
			],
			"min":[
				-2.993635416030884,
				-0.8299140930175781,
				-0.8693846464157104
			],
			"type":"VEC3"
		},
		{
			"bufferView":5,
			"componentType":5126,
			"count":34099,
			"type":"VEC3"
		},
		{
			"bufferView":6,
			"componentType":5126,
			"count":34099,
			"type":"VEC2"
		},
		{
			"bufferView":7,
			"componentType":5123,
			"count":197658,
			"type":"SCALAR"
		},
		{
			"bufferView":8,
			"componentType":5126,
			"count":80427,
			"max":[
				2.073655605316162,
				6.855506896972656,
				1.5454986095428467
			],
			"min":[
				-1.9884907007217407,
				-7.2356038093566895,
				-0.44011959433555603
			],
			"type":"VEC3"
		},
		{
			"bufferView":9,
			"componentType":5126,
			"count":80427,
			"type":"VEC3"
		},
		{
			"bufferView":10,
			"componentType":5126,
			"count":80427,
			"type":"VEC2"
		},
		{
			"bufferView":11,
			"componentType":5125,
			"count":464322,
			"type":"SCALAR"
		},
		{
			"bufferView":12,
			"componentType":5126,
			"count":118324,
			"max":[
				2.2067196369171143,
				6.873392105102539,
				0.6825778484344482
			],
			"min":[
				-2.1224327087402344,
				-7.306488037109375,
				-1.4474925994873047
			],
			"type":"VEC3"
		},
		{
			"bufferView":13,
			"componentType":5126,
			"count":118324,
			"type":"VEC3"
		},
		{
			"bufferView":14,
			"componentType":5126,
			"count":118324,
			"type":"VEC2"
		},
		{
			"bufferView":15,
			"componentType":5125,
			"count":680664,
			"type":"SCALAR"
		},
		{
			"bufferView":16,
			"componentType":5126,
			"count":246,
			"max":[
				0.2499575912952423,
				3.245001792907715,
				1.3656201362609863
			],
			"min":[
				-0.12613746523857117,
				3.110912322998047,
				1.309503197669983
			],
			"type":"VEC3"
		},
		{
			"bufferView":17,
			"componentType":5126,
			"count":246,
			"type":"VEC3"
		},
		{
			"bufferView":18,
			"componentType":5126,
			"count":246,
			"type":"VEC2"
		},
		{
			"bufferView":19,
			"componentType":5123,
			"count":720,
			"type":"SCALAR"
		}
	],
	"bufferViews":[
		{
			"buffer":0,
			"byteLength":410196,
			"byteOffset":0,
			"target":34962
		},
		{
			"buffer":0,
			"byteLength":410196,
			"byteOffset":410196,
			"target":34962
		},
		{
			"buffer":0,
			"byteLength":273464,
			"byteOffset":820392,
			"target":34962
		},
		{
			"buffer":0,
			"byteLength":396324,
			"byteOffset":1093856,
			"target":34963
		},
		{
			"buffer":0,
			"byteLength":409188,
			"byteOffset":1490180,
			"target":34962
		},
		{
			"buffer":0,
			"byteLength":409188,
			"byteOffset":1899368,
			"target":34962
		},
		{
			"buffer":0,
			"byteLength":272792,
			"byteOffset":2308556,
			"target":34962
		},
		{
			"buffer":0,
			"byteLength":395316,
			"byteOffset":2581348,
			"target":34963
		},
		{
			"buffer":0,
			"byteLength":965124,
			"byteOffset":2976664,
			"target":34962
		},
		{
			"buffer":0,
			"byteLength":965124,
			"byteOffset":3941788,
			"target":34962
		},
		{
			"buffer":0,
			"byteLength":643416,
			"byteOffset":4906912,
			"target":34962
		},
		{
			"buffer":0,
			"byteLength":1857288,
			"byteOffset":5550328,
			"target":34963
		},
		{
			"buffer":0,
			"byteLength":1419888,
			"byteOffset":7407616,
			"target":34962
		},
		{
			"buffer":0,
			"byteLength":1419888,
			"byteOffset":8827504,
			"target":34962
		},
		{
			"buffer":0,
			"byteLength":946592,
			"byteOffset":10247392,
			"target":34962
		},
		{
			"buffer":0,
			"byteLength":2722656,
			"byteOffset":11193984,
			"target":34963
		},
		{
			"buffer":0,
			"byteLength":2952,
			"byteOffset":13916640,
			"target":34962
		},
		{
			"buffer":0,
			"byteLength":2952,
			"byteOffset":13919592,
			"target":34962
		},
		{
			"buffer":0,
			"byteLength":1968,
			"byteOffset":13922544,
			"target":34962
		},
		{
			"buffer":0,
			"byteLength":1440,
			"byteOffset":13924512,
			"target":34963
		}
	],
	"buffers":[
		{
			"byteLength":13925952,
			"uri":"Long%20Dress.bin"
		}
	]
}
