{
	"asset":{
		"generator":"Khronos glTF Blender I/O v4.2.57",
		"version":"2.0"
	},
	"extensionsUsed":[
		"KHR_materials_specular"
	],
	"scene":0,
	"scenes":[
		{
			"name":"Scene",
			"nodes":[
				0
			]
		}
	],
	"nodes":[
		{
			"mesh":0,
			"name":"_mesh.014",
			"rotation":[
				0.7347280979156494,
				0.13148850202560425,
				-0.07314560562372208,
				0.6614643931388855
			]
		}
	],
	"materials":[
		{
			"extensions":{
				"KHR_materials_specular":{
					"specularFactor":0.15000000596046448
				}
			},
			"name":"Default Button_2662"
		},
		{
			"extensions":{
				"KHR_materials_specular":{
					"specularFactor":0.15000000596046448
				}
			},
			"name":"Default_OSPP_Fabric Copy 4_2610"
		},
		{
			"extensions":{
				"KHR_materials_specular":{
					"specularFactor":0.15000000596046448
				}
			},
			"name":"Default_OSPP_Fabric Copy 2_2602"
		},
		{
			"extensions":{
				"KHR_materials_specular":{
					"specularFactor":0.15000000596046448
				}
			},
			"name":"Default_OSPP_Fabric Copy 1_2598"
		},
		{
			"extensions":{
				"KHR_materials_specular":{
					"specularFactor":0.15000000596046448
				}
			},
			"name":"Default_OSPP_Fabric Copy 13_2646"
		},
		{
			"extensions":{
				"KHR_materials_specular":{
					"specularFactor":0.15000000596046448
				}
			},
			"name":"Default_OSPP_Fabric Copy 14_2650"
		},
		{
			"extensions":{
				"KHR_materials_specular":{
					"specularFactor":0.15000000596046448
				}
			},
			"name":"Default_OSPP_Fabric Copy 12_2642"
		},
		{
			"extensions":{
				"KHR_materials_specular":{
					"specularFactor":0.15000000596046448
				}
			},
			"name":"Default_OSPP_Fabric Copy 9_2630"
		},
		{
			"extensions":{
				"KHR_materials_specular":{
					"specularFactor":0.15000000596046448
				}
			},
			"name":"Default_OSPP_Fabric Copy 10_2634"
		},
		{
			"extensions":{
				"KHR_materials_specular":{
					"specularFactor":0.15000000596046448
				}
			},
			"name":"Default_OSPP_Fabric Copy 11_2638"
		},
		{
			"extensions":{
				"KHR_materials_specular":{
					"specularFactor":0.15000000596046448
				}
			},
			"name":"Default_OSPP_Fabric Copy 8_2626"
		},
		{
			"extensions":{
				"KHR_materials_specular":{
					"specularFactor":0.15000000596046448
				}
			},
			"name":"Default_OSPP_Fabric Copy 7_2622"
		},
		{
			"extensions":{
				"KHR_materials_specular":{
					"specularFactor":0.15000000596046448
				}
			},
			"name":"Default_OSPP_Fabric Copy 3_2606"
		},
		{
			"extensions":{
				"KHR_materials_specular":{
					"specularFactor":0.15000000596046448
				}
			},
			"name":"Default_OSPP_Fabric Copy 6_2618"
		},
		{
			"extensions":{
				"KHR_materials_specular":{
					"specularFactor":0.15000000596046448
				}
			},
			"name":"Default_OSPP_Fabric Copy 5_2614"
		},
		{
			"extensions":{
				"KHR_materials_specular":{
					"specularFactor":0.15000000596046448
				}
			},
			"name":"Default_OSPP_Fabric_2594"
		}
	],
	"meshes":[
		{
			"name":"_mesh.014",
			"primitives":[
				{
					"attributes":{
						"POSITION":0,
						"NORMAL":1,
						"TEXCOORD_0":2
					},
					"indices":3,
					"material":0
				},
				{
					"attributes":{
						"POSITION":4,
						"NORMAL":5,
						"TEXCOORD_0":6
					},
					"indices":7,
					"material":1
				},
				{
					"attributes":{
						"POSITION":8,
						"NORMAL":9,
						"TEXCOORD_0":10
					},
					"indices":11,
					"material":2
				},
				{
					"attributes":{
						"POSITION":12,
						"NORMAL":13,
						"TEXCOORD_0":14
					},
					"indices":15,
					"material":3
				},
				{
					"attributes":{
						"POSITION":16,
						"NORMAL":17,
						"TEXCOORD_0":18
					},
					"indices":19,
					"material":4
				},
				{
					"attributes":{
						"POSITION":20,
						"NORMAL":21,
						"TEXCOORD_0":22
					},
					"indices":23,
					"material":5
				},
				{
					"attributes":{
						"POSITION":24,
						"NORMAL":25,
						"TEXCOORD_0":26
					},
					"indices":27,
					"material":6
				},
				{
					"attributes":{
						"POSITION":28,
						"NORMAL":29,
						"TEXCOORD_0":30
					},
					"indices":31,
					"material":7
				},
				{
					"attributes":{
						"POSITION":32,
						"NORMAL":33,
						"TEXCOORD_0":34
					},
					"indices":35,
					"material":8
				},
				{
					"attributes":{
						"POSITION":36,
						"NORMAL":37,
						"TEXCOORD_0":38
					},
					"indices":39,
					"material":9
				},
				{
					"attributes":{
						"POSITION":40,
						"NORMAL":41,
						"TEXCOORD_0":42
					},
					"indices":43,
					"material":10
				},
				{
					"attributes":{
						"POSITION":44,
						"NORMAL":45,
						"TEXCOORD_0":46
					},
					"indices":47,
					"material":11
				},
				{
					"attributes":{
						"POSITION":48,
						"NORMAL":49,
						"TEXCOORD_0":50
					},
					"indices":51,
					"material":12
				},
				{
					"attributes":{
						"POSITION":52,
						"NORMAL":53,
						"TEXCOORD_0":54
					},
					"indices":55,
					"material":13
				},
				{
					"attributes":{
						"POSITION":56,
						"NORMAL":57,
						"TEXCOORD_0":58
					},
					"indices":59,
					"material":14
				},
				{
					"attributes":{
						"POSITION":60,
						"NORMAL":61,
						"TEXCOORD_0":62
					},
					"indices":63,
					"material":15
				}
			]
		}
	],
	"accessors":[
		{
			"bufferView":0,
			"componentType":5126,
			"count":368,
			"max":[
				0.22899357974529266,
				1.0240427255630493,
				-3.329972982406616
			],
			"min":[
				0.028993532061576843,
				0.9635826349258423,
				-3.529972791671753
			],
			"type":"VEC3"
		},
		{
			"bufferView":1,
			"componentType":5126,
			"count":368,
			"type":"VEC3"
		},
		{
			"bufferView":2,
			"componentType":5126,
			"count":368,
			"type":"VEC2"
		},
		{
			"bufferView":3,
			"componentType":5123,
			"count":1608,
			"type":"SCALAR"
		},
		{
			"bufferView":4,
			"componentType":5126,
			"count":14245,
			"max":[
				0.6878196001052856,
				0.3832744359970093,
				6.431525230407715
			],
			"min":[
				-1.8967139720916748,
				-1.707179307937622,
				-3.4348304271698
			],
			"type":"VEC3"
		},
		{
			"bufferView":5,
			"componentType":5126,
			"count":14245,
			"type":"VEC3"
		},
		{
			"bufferView":6,
			"componentType":5126,
			"count":14245,
			"type":"VEC2"
		},
		{
			"bufferView":7,
			"componentType":5123,
			"count":79638,
			"type":"SCALAR"
		},
		{
			"bufferView":8,
			"componentType":5126,
			"count":15327,
			"max":[
				0.3844797611236572,
				1.1467418670654297,
				6.345412254333496
			],
			"min":[
				-1.9242088794708252,
				-0.6679288148880005,
				-3.379132032394409
			],
			"type":"VEC3"
		},
		{
			"bufferView":9,
			"componentType":5126,
			"count":15327,
			"type":"VEC3"
		},
		{
			"bufferView":10,
			"componentType":5126,
			"count":15327,
			"type":"VEC2"
		},
		{
			"bufferView":11,
			"componentType":5123,
			"count":83094,
			"type":"SCALAR"
		},
		{
			"bufferView":12,
			"componentType":5126,
			"count":11791,
			"max":[
				1.9033011198043823,
				1.2637691497802734,
				6.528066635131836
			],
			"min":[
				-0.21344442665576935,
				0.20017868280410767,
				-3.2328240871429443
			],
			"type":"VEC3"
		},
		{
			"bufferView":13,
			"componentType":5126,
			"count":11791,
			"type":"VEC3"
		},
		{
			"bufferView":14,
			"componentType":5126,
			"count":11791,
			"type":"VEC2"
		},
		{
			"bufferView":15,
			"componentType":5123,
			"count":64938,
			"type":"SCALAR"
		},
		{
			"bufferView":16,
			"componentType":5126,
			"count":1824,
			"max":[
				-0.6290873885154724,
				0.6844140291213989,
				-1.9795043468475342
			],
			"min":[
				-1.613627314567566,
				-0.6846394538879395,
				-3.467766523361206
			],
			"type":"VEC3"
		},
		{
			"bufferView":17,
			"componentType":5126,
			"count":1824,
			"type":"VEC3"
		},
		{
			"bufferView":18,
			"componentType":5126,
			"count":1824,
			"type":"VEC2"
		},
		{
			"bufferView":19,
			"componentType":5123,
			"count":9264,
			"type":"SCALAR"
		},
		{
			"bufferView":20,
			"componentType":5126,
			"count":828,
			"max":[
				-1.058391809463501,
				0.3213629722595215,
				-2.316267728805542
			],
			"min":[
				-1.584770917892456,
				-0.4484010934829712,
				-3.3019015789031982
			],
			"type":"VEC3"
		},
		{
			"bufferView":21,
			"componentType":5126,
			"count":828,
			"type":"VEC3"
		},
		{
			"bufferView":22,
			"componentType":5126,
			"count":828,
			"type":"VEC2"
		},
		{
			"bufferView":23,
			"componentType":5123,
			"count":4212,
			"type":"SCALAR"
		},
		{
			"bufferView":24,
			"componentType":5126,
			"count":1754,
			"max":[
				1.9051100015640259,
				1.1680386066436768,
				-1.7243125438690186
			],
			"min":[
				0.5235331058502197,
				0.3205808401107788,
				-3.251586675643921
			],
			"type":"VEC3"
		},
		{
			"bufferView":25,
			"componentType":5126,
			"count":1754,
			"type":"VEC3"
		},
		{
			"bufferView":26,
			"componentType":5126,
			"count":1754,
			"type":"VEC2"
		},
		{
			"bufferView":27,
			"componentType":5123,
			"count":9276,
			"type":"SCALAR"
		},
		{
			"bufferView":28,
			"componentType":5126,
			"count":380,
			"max":[
				0.852568507194519,
				-1.244446039199829,
				-3.0482308864593506
			],
			"min":[
				0.6663945913314819,
				-1.4606881141662598,
				-3.6532704830169678
			],
			"type":"VEC3"
		},
		{
			"bufferView":29,
			"componentType":5126,
			"count":380,
			"type":"VEC3"
		},
		{
			"bufferView":30,
			"componentType":5126,
			"count":380,
			"type":"VEC2"
		},
		{
			"bufferView":31,
			"componentType":5123,
			"count":1644,
			"type":"SCALAR"
		},
		{
			"bufferView":32,
			"componentType":5126,
			"count":381,
			"max":[
				-1.05393648147583,
				-0.8883929252624512,
				-3.2090861797332764
			],
			"min":[
				-1.2435986995697021,
				-1.0579609870910645,
				-3.829613447189331
			],
			"type":"VEC3"
		},
		{
			"bufferView":33,
			"componentType":5126,
			"count":381,
			"type":"VEC3"
		},
		{
			"bufferView":34,
			"componentType":5126,
			"count":381,
			"type":"VEC2"
		},
		{
			"bufferView":35,
			"componentType":5123,
			"count":1644,
			"type":"SCALAR"
		},
		{
			"bufferView":36,
			"componentType":5126,
			"count":382,
			"max":[
				-0.6129993796348572,
				0.6002706289291382,
				-3.140862226486206
			],
			"min":[
				-0.8271462321281433,
				0.4651733934879303,
				-3.767559766769409
			],
			"type":"VEC3"
		},
		{
			"bufferView":37,
			"componentType":5126,
			"count":382,
			"type":"VEC3"
		},
		{
			"bufferView":38,
			"componentType":5126,
			"count":382,
			"type":"VEC2"
		},
		{
			"bufferView":39,
			"componentType":5123,
			"count":1644,
			"type":"SCALAR"
		},
		{
			"bufferView":40,
			"componentType":5126,
			"count":383,
			"max":[
				2.017835855484009,
				0.10175442695617676,
				-2.977010488510132
			],
			"min":[
				1.9096390008926392,
				-0.08408427238464355,
				-3.543116331100464
			],
			"type":"VEC3"
		},
		{
			"bufferView":41,
			"componentType":5126,
			"count":383,
			"type":"VEC3"
		},
		{
			"bufferView":42,
			"componentType":5126,
			"count":383,
			"type":"VEC2"
		},
		{
			"bufferView":43,
			"componentType":5123,
			"count":1644,
			"type":"SCALAR"
		},
		{
			"bufferView":44,
			"componentType":5126,
			"count":380,
			"max":[
				0.7882031202316284,
				1.0017834901809692,
				-3.0211055278778076
			],
			"min":[
				0.5795270204544067,
				0.943828821182251,
				-3.643714666366577
			],
			"type":"VEC3"
		},
		{
			"bufferView":45,
			"componentType":5126,
			"count":380,
			"type":"VEC3"
		},
		{
			"bufferView":46,
			"componentType":5126,
			"count":380,
			"type":"VEC2"
		},
		{
			"bufferView":47,
			"componentType":5123,
			"count":1644,
			"type":"SCALAR"
		},
		{
			"bufferView":48,
			"componentType":5126,
			"count":14309,
			"max":[
				1.923648715019226,
				0.6686996221542358,
				6.582803726196289
			],
			"min":[
				-0.051163867115974426,
				-1.5523760318756104,
				-3.2357490062713623
			],
			"type":"VEC3"
		},
		{
			"bufferView":49,
			"componentType":5126,
			"count":14309,
			"type":"VEC3"
		},
		{
			"bufferView":50,
			"componentType":5126,
			"count":14309,
			"type":"VEC2"
		},
		{
			"bufferView":51,
			"componentType":5123,
			"count":79986,
			"type":"SCALAR"
		},
		{
			"bufferView":52,
			"componentType":5126,
			"count":1638,
			"max":[
				1.8831971883773804,
				-0.2130337953567505,
				-0.9321296215057373
			],
			"min":[
				0.9509252309799194,
				-1.4072151184082031,
				-2.522434949874878
			],
			"type":"VEC3"
		},
		{
			"bufferView":53,
			"componentType":5126,
			"count":1638,
			"type":"VEC3"
		},
		{
			"bufferView":54,
			"componentType":5126,
			"count":1638,
			"type":"VEC2"
		},
		{
			"bufferView":55,
			"componentType":5123,
			"count":8652,
			"type":"SCALAR"
		},
		{
			"bufferView":56,
			"componentType":5126,
			"count":1632,
			"max":[
				0.2773559093475342,
				-1.1455817222595215,
				-1.0828659534454346
			],
			"min":[
				-1.2351469993591309,
				-1.727851152420044,
				-2.7342774868011475
			],
			"type":"VEC3"
		},
		{
			"bufferView":57,
			"componentType":5126,
			"count":1632,
			"type":"VEC3"
		},
		{
			"bufferView":58,
			"componentType":5126,
			"count":1632,
			"type":"VEC2"
		},
		{
			"bufferView":59,
			"componentType":5123,
			"count":8628,
			"type":"SCALAR"
		},
		{
			"bufferView":60,
			"componentType":5126,
			"count":4520,
			"max":[
				1.972556233406067,
				1.00381600856781,
				-3.1768510341644287
			],
			"min":[
				-1.3257743120193481,
				-1.5707824230194092,
				-3.8649394512176514
			],
			"type":"VEC3"
		},
		{
			"bufferView":61,
			"componentType":5126,
			"count":4520,
			"type":"VEC3"
		},
		{
			"bufferView":62,
			"componentType":5126,
			"count":4520,
			"type":"VEC2"
		},
		{
			"bufferView":63,
			"componentType":5123,
			"count":23142,
			"type":"SCALAR"
		}
	],
	"bufferViews":[
		{
			"buffer":0,
			"byteLength":4416,
			"byteOffset":0,
			"target":34962
		},
		{
			"buffer":0,
			"byteLength":4416,
			"byteOffset":4416,
			"target":34962
		},
		{
			"buffer":0,
			"byteLength":2944,
			"byteOffset":8832,
			"target":34962
		},
		{
			"buffer":0,
			"byteLength":3216,
			"byteOffset":11776,
			"target":34963
		},
		{
			"buffer":0,
			"byteLength":170940,
			"byteOffset":14992,
			"target":34962
		},
		{
			"buffer":0,
			"byteLength":170940,
			"byteOffset":185932,
			"target":34962
		},
		{
			"buffer":0,
			"byteLength":113960,
			"byteOffset":356872,
			"target":34962
		},
		{
			"buffer":0,
			"byteLength":159276,
			"byteOffset":470832,
			"target":34963
		},
		{
			"buffer":0,
			"byteLength":183924,
			"byteOffset":630108,
			"target":34962
		},
		{
			"buffer":0,
			"byteLength":183924,
			"byteOffset":814032,
			"target":34962
		},
		{
			"buffer":0,
			"byteLength":122616,
			"byteOffset":997956,
			"target":34962
		},
		{
			"buffer":0,
			"byteLength":166188,
			"byteOffset":1120572,
			"target":34963
		},
		{
			"buffer":0,
			"byteLength":141492,
			"byteOffset":1286760,
			"target":34962
		},
		{
			"buffer":0,
			"byteLength":141492,
			"byteOffset":1428252,
			"target":34962
		},
		{
			"buffer":0,
			"byteLength":94328,
			"byteOffset":1569744,
			"target":34962
		},
		{
			"buffer":0,
			"byteLength":129876,
			"byteOffset":1664072,
			"target":34963
		},
		{
			"buffer":0,
			"byteLength":21888,
			"byteOffset":1793948,
			"target":34962
		},
		{
			"buffer":0,
			"byteLength":21888,
			"byteOffset":1815836,
			"target":34962
		},
		{
			"buffer":0,
			"byteLength":14592,
			"byteOffset":1837724,
			"target":34962
		},
		{
			"buffer":0,
			"byteLength":18528,
			"byteOffset":1852316,
			"target":34963
		},
		{
			"buffer":0,
			"byteLength":9936,
			"byteOffset":1870844,
			"target":34962
		},
		{
			"buffer":0,
			"byteLength":9936,
			"byteOffset":1880780,
			"target":34962
		},
		{
			"buffer":0,
			"byteLength":6624,
			"byteOffset":1890716,
			"target":34962
		},
		{
			"buffer":0,
			"byteLength":8424,
			"byteOffset":1897340,
			"target":34963
		},
		{
			"buffer":0,
			"byteLength":21048,
			"byteOffset":1905764,
			"target":34962
		},
		{
			"buffer":0,
			"byteLength":21048,
			"byteOffset":1926812,
			"target":34962
		},
		{
			"buffer":0,
			"byteLength":14032,
			"byteOffset":1947860,
			"target":34962
		},
		{
			"buffer":0,
			"byteLength":18552,
			"byteOffset":1961892,
			"target":34963
		},
		{
			"buffer":0,
			"byteLength":4560,
			"byteOffset":1980444,
			"target":34962
		},
		{
			"buffer":0,
			"byteLength":4560,
			"byteOffset":1985004,
			"target":34962
		},
		{
			"buffer":0,
			"byteLength":3040,
			"byteOffset":1989564,
			"target":34962
		},
		{
			"buffer":0,
			"byteLength":3288,
			"byteOffset":1992604,
			"target":34963
		},
		{
			"buffer":0,
			"byteLength":4572,
			"byteOffset":1995892,
			"target":34962
		},
		{
			"buffer":0,
			"byteLength":4572,
			"byteOffset":2000464,
			"target":34962
		},
		{
			"buffer":0,
			"byteLength":3048,
			"byteOffset":2005036,
			"target":34962
		},
		{
			"buffer":0,
			"byteLength":3288,
			"byteOffset":2008084,
			"target":34963
		},
		{
			"buffer":0,
			"byteLength":4584,
			"byteOffset":2011372,
			"target":34962
		},
		{
			"buffer":0,
			"byteLength":4584,
			"byteOffset":2015956,
			"target":34962
		},
		{
			"buffer":0,
			"byteLength":3056,
			"byteOffset":2020540,
			"target":34962
		},
		{
			"buffer":0,
			"byteLength":3288,
			"byteOffset":2023596,
			"target":34963
		},
		{
			"buffer":0,
			"byteLength":4596,
			"byteOffset":2026884,
			"target":34962
		},
		{
			"buffer":0,
			"byteLength":4596,
			"byteOffset":2031480,
			"target":34962
		},
		{
			"buffer":0,
			"byteLength":3064,
			"byteOffset":2036076,
			"target":34962
		},
		{
			"buffer":0,
			"byteLength":3288,
			"byteOffset":2039140,
			"target":34963
		},
		{
			"buffer":0,
			"byteLength":4560,
			"byteOffset":2042428,
			"target":34962
		},
		{
			"buffer":0,
			"byteLength":4560,
			"byteOffset":2046988,
			"target":34962
		},
		{
			"buffer":0,
			"byteLength":3040,
			"byteOffset":2051548,
			"target":34962
		},
		{
			"buffer":0,
			"byteLength":3288,
			"byteOffset":2054588,
			"target":34963
		},
		{
			"buffer":0,
			"byteLength":171708,
			"byteOffset":2057876,
			"target":34962
		},
		{
			"buffer":0,
			"byteLength":171708,
			"byteOffset":2229584,
			"target":34962
		},
		{
			"buffer":0,
			"byteLength":114472,
			"byteOffset":2401292,
			"target":34962
		},
		{
			"buffer":0,
			"byteLength":159972,
			"byteOffset":2515764,
			"target":34963
		},
		{
			"buffer":0,
			"byteLength":19656,
			"byteOffset":2675736,
			"target":34962
		},
		{
			"buffer":0,
			"byteLength":19656,
			"byteOffset":2695392,
			"target":34962
		},
		{
			"buffer":0,
			"byteLength":13104,
			"byteOffset":2715048,
			"target":34962
		},
		{
			"buffer":0,
			"byteLength":17304,
			"byteOffset":2728152,
			"target":34963
		},
		{
			"buffer":0,
			"byteLength":19584,
			"byteOffset":2745456,
			"target":34962
		},
		{
			"buffer":0,
			"byteLength":19584,
			"byteOffset":2765040,
			"target":34962
		},
		{
			"buffer":0,
			"byteLength":13056,
			"byteOffset":2784624,
			"target":34962
		},
		{
			"buffer":0,
			"byteLength":17256,
			"byteOffset":2797680,
			"target":34963
		},
		{
			"buffer":0,
			"byteLength":54240,
			"byteOffset":2814936,
			"target":34962
		},
		{
			"buffer":0,
			"byteLength":54240,
			"byteOffset":2869176,
			"target":34962
		},
		{
			"buffer":0,
			"byteLength":36160,
			"byteOffset":2923416,
			"target":34962
		},
		{
			"buffer":0,
			"byteLength":46284,
			"byteOffset":2959576,
			"target":34963
		}
	],
	"buffers":[
		{
			"byteLength":3005860,
			"uri":"Jeans_male22.bin"
		}
	]
}
