{
	"asset":{
		"generator":"Khronos glTF Blender I/O v4.2.57",
		"version":"2.0"
	},
	"extensionsUsed":[
		"KHR_materials_specular"
	],
	"scene":0,
	"scenes":[
		{
			"name":"Scene",
			"nodes":[
				8
			]
		}
	],
	"nodes":[
		{
			"mesh":0,
			"name":"_mesh.002",
			"rotation":[
				0.2877342104911804,
				-0.04169217497110367,
				-0.011552579700946808,
				0.9567326307296753
			],
			"translation":[
				0.0020372867584228516,
				3.74967098236084,
				1.0686955451965332
			]
		},
		{
			"mesh":1,
			"name":"_mesh.003",
			"rotation":[
				0.2869822084903717,
				0.07661403715610504,
				0.024021482095122337,
				0.9545651078224182
			],
			"translation":[
				0.0020375922322273254,
				3.749669075012207,
				1.06869375705719
			]
		},
		{
			"mesh":2,
			"name":"_mesh.004",
			"rotation":[
				-0.09192422032356262,
				0.005641579627990723,
				4.95934255013708e-05,
				0.9957500100135803
			],
			"translation":[
				0.020957468077540398,
				1.5998315811157227,
				1.1558363437652588
			]
		},
		{
			"mesh":3,
			"name":"_mesh.005",
			"rotation":[
				-0.09187190979719162,
				-0.02665623463690281,
				0.0030310810543596745,
				0.995409369468689
			],
			"translation":[
				0.02095797471702099,
				1.5998287200927734,
				1.1558358669281006
			]
		},
		{
			"mesh":4,
			"name":"_mesh.001",
			"translation":[
				0,
				0.00040506626828573644,
				0.026188546791672707
			]
		},
		{
			"children":[
				4
			],
			"mesh":5,
			"name":"_mesh"
		},
		{
			"children":[
				5
			],
			"name":"Slider_1",
			"rotation":[
				0.2969559133052826,
				-0.04477011039853096,
				-0.012962482869625092,
				0.9537530541419983
			],
			"translation":[
				0.002186669036746025,
				3.683711051940918,
				1.0243780612945557
			]
		},
		{
			"children":[
				0,
				1,
				2,
				3,
				6
			],
			"mesh":6,
			"name":"Cloth"
		},
		{
			"children":[
				7
			],
			"name":"sw_Scene_Node"
		}
	],
	"materials":[
		{
			"extensions":{
				"KHR_materials_specular":{
					"specularFactor":0.15000000596046448
				}
			},
			"name":"Zipper 2_326238"
		},
		{
			"extensions":{
				"KHR_materials_specular":{
					"specularFactor":0.15000000596046448
				}
			},
			"name":"Zipper 2_326244"
		},
		{
			"extensions":{
				"KHR_materials_specular":{
					"specularFactor":0.15000000596046448
				}
			},
			"name":"Zipper 2_326251"
		},
		{
			"extensions":{
				"KHR_materials_specular":{
					"specularFactor":0.15000000596046448
				}
			},
			"name":"Zipper 2_326257"
		},
		{
			"extensions":{
				"KHR_materials_specular":{
					"specularFactor":0.15000000596046448
				}
			},
			"name":"Zipper 2_326231"
		},
		{
			"extensions":{
				"KHR_materials_specular":{
					"specularFactor":0.15000000596046448
				}
			},
			"name":"Zipper 2_326224"
		},
		{
			"extensions":{
				"KHR_materials_specular":{
					"specularFactor":0.15000000596046448
				}
			},
			"name":"FABRIC 1 Copy 2_353807"
		},
		{
			"extensions":{
				"KHR_materials_specular":{
					"specularFactor":0.15000000596046448
				}
			},
			"name":"FABRIC 1_325956"
		},
		{
			"extensions":{
				"KHR_materials_specular":{
					"specularFactor":0.15000000596046448
				}
			},
			"name":"FABRIC 1 Copy 6_367723"
		},
		{
			"extensions":{
				"KHR_materials_specular":{
					"specularFactor":0.15000000596046448
				}
			},
			"name":"FABRIC 1 Copy 1_350076"
		},
		{
			"extensions":{
				"KHR_materials_specular":{
					"specularFactor":0.15000000596046448
				}
			},
			"name":"FABRIC 1 Copy 5_364290"
		},
		{
			"extensions":{
				"KHR_materials_specular":{
					"specularFactor":0.15000000596046448
				}
			},
			"name":"FABRIC 1 Copy 3_357424"
		},
		{
			"extensions":{
				"KHR_materials_specular":{
					"specularFactor":0.15000000596046448
				}
			},
			"name":"FABRIC 1 Copy 4_360859"
		},
		{
			"extensions":{
				"KHR_materials_specular":{
					"specularFactor":0.15000000596046448
				}
			},
			"name":"Zipper 2_326201"
		},
		{
			"extensions":{
				"KHR_materials_specular":{
					"specularFactor":0.15000000596046448
				}
			},
			"name":"Zipper 2_326206"
		}
	],
	"meshes":[
		{
			"name":"_mesh.002",
			"primitives":[
				{
					"attributes":{
						"POSITION":0,
						"NORMAL":1,
						"TEXCOORD_0":2
					},
					"indices":3,
					"material":0
				}
			]
		},
		{
			"name":"_mesh.003",
			"primitives":[
				{
					"attributes":{
						"POSITION":4,
						"NORMAL":5,
						"TEXCOORD_0":6
					},
					"indices":7,
					"material":1
				}
			]
		},
		{
			"name":"_mesh.004",
			"primitives":[
				{
					"attributes":{
						"POSITION":8,
						"NORMAL":9,
						"TEXCOORD_0":10
					},
					"indices":11,
					"material":2
				}
			]
		},
		{
			"name":"_mesh.005",
			"primitives":[
				{
					"attributes":{
						"POSITION":12,
						"NORMAL":13,
						"TEXCOORD_0":14
					},
					"indices":15,
					"material":3
				}
			]
		},
		{
			"name":"_mesh.001",
			"primitives":[
				{
					"attributes":{
						"POSITION":16,
						"NORMAL":17,
						"TEXCOORD_0":18
					},
					"indices":19,
					"material":4
				}
			]
		},
		{
			"name":"_mesh",
			"primitives":[
				{
					"attributes":{
						"POSITION":20,
						"NORMAL":21,
						"TEXCOORD_0":22
					},
					"indices":23,
					"material":5
				}
			]
		},
		{
			"name":"Cloth_mesh",
			"primitives":[
				{
					"attributes":{
						"POSITION":24,
						"NORMAL":25,
						"TEXCOORD_0":26
					},
					"indices":27,
					"material":6
				},
				{
					"attributes":{
						"POSITION":28,
						"NORMAL":29,
						"TEXCOORD_0":30
					},
					"indices":31,
					"material":7
				},
				{
					"attributes":{
						"POSITION":32,
						"NORMAL":33,
						"TEXCOORD_0":34
					},
					"indices":35,
					"material":8
				},
				{
					"attributes":{
						"POSITION":36,
						"NORMAL":37,
						"TEXCOORD_0":38
					},
					"indices":39,
					"material":9
				},
				{
					"attributes":{
						"POSITION":40,
						"NORMAL":41,
						"TEXCOORD_0":42
					},
					"indices":43,
					"material":10
				},
				{
					"attributes":{
						"POSITION":44,
						"NORMAL":45,
						"TEXCOORD_0":46
					},
					"indices":47,
					"material":11
				},
				{
					"attributes":{
						"POSITION":48,
						"NORMAL":49,
						"TEXCOORD_0":50
					},
					"indices":51,
					"material":12
				},
				{
					"attributes":{
						"POSITION":52,
						"NORMAL":53,
						"TEXCOORD_0":54
					},
					"indices":55,
					"material":13
				},
				{
					"attributes":{
						"POSITION":56,
						"NORMAL":57,
						"TEXCOORD_0":58
					},
					"indices":59,
					"material":14
				}
			]
		}
	],
	"accessors":[
		{
			"bufferView":0,
			"componentType":5126,
			"count":1133,
			"max":[
				0.005453884601593018,
				2.86102294921875e-06,
				0.008988380432128906
			],
			"min":[
				-0.021362483501434326,
				-0.034171104431152344,
				-0.0089874267578125
			],
			"type":"VEC3"
		},
		{
			"bufferView":1,
			"componentType":5126,
			"count":1133,
			"type":"VEC3"
		},
		{
			"bufferView":2,
			"componentType":5126,
			"count":1133,
			"type":"VEC2"
		},
		{
			"bufferView":3,
			"componentType":5123,
			"count":2340,
			"type":"SCALAR"
		},
		{
			"bufferView":4,
			"componentType":5126,
			"count":1134,
			"max":[
				0.021362781524658203,
				0,
				0.008988380432128906
			],
			"min":[
				-0.005453705787658691,
				-0.03417396545410156,
				-0.0089874267578125
			],
			"type":"VEC3"
		},
		{
			"bufferView":5,
			"componentType":5126,
			"count":1134,
			"type":"VEC3"
		},
		{
			"bufferView":6,
			"componentType":5126,
			"count":1134,
			"type":"VEC2"
		},
		{
			"bufferView":7,
			"componentType":5123,
			"count":2340,
			"type":"SCALAR"
		},
		{
			"bufferView":8,
			"componentType":5126,
			"count":1305,
			"max":[
				0.023214612156152725,
				0.028703689575195312,
				0.01089167594909668
			],
			"min":[
				-0.02355540171265602,
				-0.03615283966064453,
				-0.01089167594909668
			],
			"type":"VEC3"
		},
		{
			"bufferView":9,
			"componentType":5126,
			"count":1305,
			"type":"VEC3"
		},
		{
			"bufferView":10,
			"componentType":5126,
			"count":1305,
			"type":"VEC2"
		},
		{
			"bufferView":11,
			"componentType":5123,
			"count":5088,
			"type":"SCALAR"
		},
		{
			"bufferView":12,
			"componentType":5126,
			"count":714,
			"max":[
				0.019555702805519104,
				0.03768157958984375,
				0.005934476852416992
			],
			"min":[
				0.00042967498302459717,
				-0.0299835205078125,
				-0.0057833194732666016
			],
			"type":"VEC3"
		},
		{
			"bufferView":13,
			"componentType":5126,
			"count":714,
			"type":"VEC3"
		},
		{
			"bufferView":14,
			"componentType":5126,
			"count":714,
			"type":"VEC2"
		},
		{
			"bufferView":15,
			"componentType":5123,
			"count":2778,
			"type":"SCALAR"
		},
		{
			"bufferView":16,
			"componentType":5126,
			"count":726,
			"max":[
				0.04535788297653198,
				0.005001068115234375,
				0.0031404495239257812
			],
			"min":[
				-0.04535788297653198,
				-0.1555328369140625,
				-0.0031404495239257812
			],
			"type":"VEC3"
		},
		{
			"bufferView":17,
			"componentType":5126,
			"count":726,
			"type":"VEC3"
		},
		{
			"bufferView":18,
			"componentType":5126,
			"count":726,
			"type":"VEC2"
		},
		{
			"bufferView":19,
			"componentType":5123,
			"count":3480,
			"type":"SCALAR"
		},
		{
			"bufferView":20,
			"componentType":5126,
			"count":507,
			"max":[
				0.04215598106384277,
				0.07941150665283203,
				0.04529571533203125
			],
			"min":[
				-0.04215598106384277,
				-0.028280258178710938,
				-0.020673751831054688
			],
			"type":"VEC3"
		},
		{
			"bufferView":21,
			"componentType":5126,
			"count":507,
			"type":"VEC3"
		},
		{
			"bufferView":22,
			"componentType":5126,
			"count":507,
			"type":"VEC2"
		},
		{
			"bufferView":23,
			"componentType":5123,
			"count":2472,
			"type":"SCALAR"
		},
		{
			"bufferView":24,
			"componentType":5126,
			"count":15331,
			"max":[
				3.1415135860443115,
				2.4145593643188477,
				0.7993068695068359
			],
			"min":[
				1.378321886062622,
				-3.227397918701172,
				-1.1663503646850586
			],
			"type":"VEC3"
		},
		{
			"bufferView":25,
			"componentType":5126,
			"count":15331,
			"type":"VEC3"
		},
		{
			"bufferView":26,
			"componentType":5126,
			"count":15331,
			"type":"VEC2"
		},
		{
			"bufferView":27,
			"componentType":5123,
			"count":87444,
			"type":"SCALAR"
		},
		{
			"bufferView":28,
			"componentType":5126,
			"count":6210,
			"max":[
				1.8312002420425415,
				-2.020249366760254,
				1.4006366729736328
			],
			"min":[
				-1.8960741758346558,
				-2.994359016418457,
				-1.3304367065429688
			],
			"type":"VEC3"
		},
		{
			"bufferView":29,
			"componentType":5126,
			"count":6210,
			"type":"VEC3"
		},
		{
			"bufferView":30,
			"componentType":5126,
			"count":6210,
			"type":"VEC2"
		},
		{
			"bufferView":31,
			"componentType":5123,
			"count":33858,
			"type":"SCALAR"
		},
		{
			"bufferView":32,
			"componentType":5126,
			"count":1167,
			"max":[
				1.73879873752594,
				2.0583181381225586,
				1.3123180866241455
			],
			"min":[
				0.5045946836471558,
				0.6174020767211914,
				0.8561058044433594
			],
			"type":"VEC3"
		},
		{
			"bufferView":33,
			"componentType":5126,
			"count":1167,
			"type":"VEC3"
		},
		{
			"bufferView":34,
			"componentType":5126,
			"count":1167,
			"type":"VEC2"
		},
		{
			"bufferView":35,
			"componentType":5123,
			"count":5928,
			"type":"SCALAR"
		},
		{
			"bufferView":36,
			"componentType":5126,
			"count":16692,
			"max":[
				2.4837841987609863,
				3.76383113861084,
				1.5252742767333984
			],
			"min":[
				-2.4758996963500977,
				-2.218674659729004,
				-0.2155364453792572
			],
			"type":"VEC3"
		},
		{
			"bufferView":37,
			"componentType":5126,
			"count":16692,
			"type":"VEC3"
		},
		{
			"bufferView":38,
			"componentType":5126,
			"count":16692,
			"type":"VEC2"
		},
		{
			"bufferView":39,
			"componentType":5123,
			"count":94362,
			"type":"SCALAR"
		},
		{
			"bufferView":40,
			"componentType":5126,
			"count":16174,
			"max":[
				2.457883596420288,
				3.8378286361694336,
				0.08362464606761932
			],
			"min":[
				-2.4759533405303955,
				-2.2394495010375977,
				-1.464761734008789
			],
			"type":"VEC3"
		},
		{
			"bufferView":41,
			"componentType":5126,
			"count":16174,
			"type":"VEC3"
		},
		{
			"bufferView":42,
			"componentType":5126,
			"count":16174,
			"type":"VEC2"
		},
		{
			"bufferView":43,
			"componentType":5123,
			"count":93228,
			"type":"SCALAR"
		},
		{
			"bufferView":44,
			"componentType":5126,
			"count":15367,
			"max":[
				-1.44447660446167,
				2.4011106491088867,
				0.7954528331756592
			],
			"min":[
				-3.1802711486816406,
				-3.2672929763793945,
				-1.1761174201965332
			],
			"type":"VEC3"
		},
		{
			"bufferView":45,
			"componentType":5126,
			"count":15367,
			"type":"VEC3"
		},
		{
			"bufferView":46,
			"componentType":5126,
			"count":15367,
			"type":"VEC2"
		},
		{
			"bufferView":47,
			"componentType":5123,
			"count":87660,
			"type":"SCALAR"
		},
		{
			"bufferView":48,
			"componentType":5126,
			"count":3640,
			"max":[
				1.0231068134307861,
				4.670653343200684,
				1.061614751815796
			],
			"min":[
				-1.0576063394546509,
				3.110772132873535,
				-0.7655906081199646
			],
			"type":"VEC3"
		},
		{
			"bufferView":49,
			"componentType":5126,
			"count":3640,
			"type":"VEC3"
		},
		{
			"bufferView":50,
			"componentType":5126,
			"count":3640,
			"type":"VEC2"
		},
		{
			"bufferView":51,
			"componentType":5123,
			"count":19524,
			"type":"SCALAR"
		},
		{
			"bufferView":52,
			"componentType":5126,
			"count":640,
			"max":[
				0.09592721611261368,
				3.762515068054199,
				1.1718995571136475
			],
			"min":[
				-0.07327306270599365,
				1.563751220703125,
				0.6492871642112732
			],
			"type":"VEC3"
		},
		{
			"bufferView":53,
			"componentType":5126,
			"count":640,
			"type":"VEC3"
		},
		{
			"bufferView":54,
			"componentType":5126,
			"count":640,
			"type":"VEC2"
		},
		{
			"bufferView":55,
			"componentType":5123,
			"count":2544,
			"type":"SCALAR"
		},
		{
			"bufferView":56,
			"componentType":5126,
			"count":1831,
			"max":[
				0.09592721611261368,
				3.762515068054199,
				1.1718995571136475
			],
			"min":[
				-0.07327306270599365,
				1.563751220703125,
				0.6492871642112732
			],
			"type":"VEC3"
		},
		{
			"bufferView":57,
			"componentType":5126,
			"count":1831,
			"type":"VEC3"
		},
		{
			"bufferView":58,
			"componentType":5126,
			"count":1831,
			"type":"VEC2"
		},
		{
			"bufferView":59,
			"componentType":5123,
			"count":7632,
			"type":"SCALAR"
		}
	],
	"bufferViews":[
		{
			"buffer":0,
			"byteLength":13596,
			"byteOffset":0,
			"target":34962
		},
		{
			"buffer":0,
			"byteLength":13596,
			"byteOffset":13596,
			"target":34962
		},
		{
			"buffer":0,
			"byteLength":9064,
			"byteOffset":27192,
			"target":34962
		},
		{
			"buffer":0,
			"byteLength":4680,
			"byteOffset":36256,
			"target":34963
		},
		{
			"buffer":0,
			"byteLength":13608,
			"byteOffset":40936,
			"target":34962
		},
		{
			"buffer":0,
			"byteLength":13608,
			"byteOffset":54544,
			"target":34962
		},
		{
			"buffer":0,
			"byteLength":9072,
			"byteOffset":68152,
			"target":34962
		},
		{
			"buffer":0,
			"byteLength":4680,
			"byteOffset":77224,
			"target":34963
		},
		{
			"buffer":0,
			"byteLength":15660,
			"byteOffset":81904,
			"target":34962
		},
		{
			"buffer":0,
			"byteLength":15660,
			"byteOffset":97564,
			"target":34962
		},
		{
			"buffer":0,
			"byteLength":10440,
			"byteOffset":113224,
			"target":34962
		},
		{
			"buffer":0,
			"byteLength":10176,
			"byteOffset":123664,
			"target":34963
		},
		{
			"buffer":0,
			"byteLength":8568,
			"byteOffset":133840,
			"target":34962
		},
		{
			"buffer":0,
			"byteLength":8568,
			"byteOffset":142408,
			"target":34962
		},
		{
			"buffer":0,
			"byteLength":5712,
			"byteOffset":150976,
			"target":34962
		},
		{
			"buffer":0,
			"byteLength":5556,
			"byteOffset":156688,
			"target":34963
		},
		{
			"buffer":0,
			"byteLength":8712,
			"byteOffset":162244,
			"target":34962
		},
		{
			"buffer":0,
			"byteLength":8712,
			"byteOffset":170956,
			"target":34962
		},
		{
			"buffer":0,
			"byteLength":5808,
			"byteOffset":179668,
			"target":34962
		},
		{
			"buffer":0,
			"byteLength":6960,
			"byteOffset":185476,
			"target":34963
		},
		{
			"buffer":0,
			"byteLength":6084,
			"byteOffset":192436,
			"target":34962
		},
		{
			"buffer":0,
			"byteLength":6084,
			"byteOffset":198520,
			"target":34962
		},
		{
			"buffer":0,
			"byteLength":4056,
			"byteOffset":204604,
			"target":34962
		},
		{
			"buffer":0,
			"byteLength":4944,
			"byteOffset":208660,
			"target":34963
		},
		{
			"buffer":0,
			"byteLength":183972,
			"byteOffset":213604,
			"target":34962
		},
		{
			"buffer":0,
			"byteLength":183972,
			"byteOffset":397576,
			"target":34962
		},
		{
			"buffer":0,
			"byteLength":122648,
			"byteOffset":581548,
			"target":34962
		},
		{
			"buffer":0,
			"byteLength":174888,
			"byteOffset":704196,
			"target":34963
		},
		{
			"buffer":0,
			"byteLength":74520,
			"byteOffset":879084,
			"target":34962
		},
		{
			"buffer":0,
			"byteLength":74520,
			"byteOffset":953604,
			"target":34962
		},
		{
			"buffer":0,
			"byteLength":49680,
			"byteOffset":1028124,
			"target":34962
		},
		{
			"buffer":0,
			"byteLength":67716,
			"byteOffset":1077804,
			"target":34963
		},
		{
			"buffer":0,
			"byteLength":14004,
			"byteOffset":1145520,
			"target":34962
		},
		{
			"buffer":0,
			"byteLength":14004,
			"byteOffset":1159524,
			"target":34962
		},
		{
			"buffer":0,
			"byteLength":9336,
			"byteOffset":1173528,
			"target":34962
		},
		{
			"buffer":0,
			"byteLength":11856,
			"byteOffset":1182864,
			"target":34963
		},
		{
			"buffer":0,
			"byteLength":200304,
			"byteOffset":1194720,
			"target":34962
		},
		{
			"buffer":0,
			"byteLength":200304,
			"byteOffset":1395024,
			"target":34962
		},
		{
			"buffer":0,
			"byteLength":133536,
			"byteOffset":1595328,
			"target":34962
		},
		{
			"buffer":0,
			"byteLength":188724,
			"byteOffset":1728864,
			"target":34963
		},
		{
			"buffer":0,
			"byteLength":194088,
			"byteOffset":1917588,
			"target":34962
		},
		{
			"buffer":0,
			"byteLength":194088,
			"byteOffset":2111676,
			"target":34962
		},
		{
			"buffer":0,
			"byteLength":129392,
			"byteOffset":2305764,
			"target":34962
		},
		{
			"buffer":0,
			"byteLength":186456,
			"byteOffset":2435156,
			"target":34963
		},
		{
			"buffer":0,
			"byteLength":184404,
			"byteOffset":2621612,
			"target":34962
		},
		{
			"buffer":0,
			"byteLength":184404,
			"byteOffset":2806016,
			"target":34962
		},
		{
			"buffer":0,
			"byteLength":122936,
			"byteOffset":2990420,
			"target":34962
		},
		{
			"buffer":0,
			"byteLength":175320,
			"byteOffset":3113356,
			"target":34963
		},
		{
			"buffer":0,
			"byteLength":43680,
			"byteOffset":3288676,
			"target":34962
		},
		{
			"buffer":0,
			"byteLength":43680,
			"byteOffset":3332356,
			"target":34962
		},
		{
			"buffer":0,
			"byteLength":29120,
			"byteOffset":3376036,
			"target":34962
		},
		{
			"buffer":0,
			"byteLength":39048,
			"byteOffset":3405156,
			"target":34963
		},
		{
			"buffer":0,
			"byteLength":7680,
			"byteOffset":3444204,
			"target":34962
		},
		{
			"buffer":0,
			"byteLength":7680,
			"byteOffset":3451884,
			"target":34962
		},
		{
			"buffer":0,
			"byteLength":5120,
			"byteOffset":3459564,
			"target":34962
		},
		{
			"buffer":0,
			"byteLength":5088,
			"byteOffset":3464684,
			"target":34963
		},
		{
			"buffer":0,
			"byteLength":21972,
			"byteOffset":3469772,
			"target":34962
		},
		{
			"buffer":0,
			"byteLength":21972,
			"byteOffset":3491744,
			"target":34962
		},
		{
			"buffer":0,
			"byteLength":14648,
			"byteOffset":3513716,
			"target":34962
		},
		{
			"buffer":0,
			"byteLength":15264,
			"byteOffset":3528364,
			"target":34963
		}
	],
	"buffers":[
		{
			"byteLength":3543628,
			"uri":"Sweater.bin"
		}
	]
}
