{
  "accessors": [
    {
      "bufferView": 0,
      "componentType": 5125,
      "count": 15678,
      "max": [
        3297
      ],
      "min": [
        0
      ],
      "type": "SCALAR"
    },
    {
      "bufferView": 1,
      "componentType": 5125,
      "count": 15678,
      "max": [
        7952
      ],
      "min": [
        4655
      ],
      "type": "SCALAR"
    },
    {
      "bufferView": 2,
      "componentType": 5125,
      "count": 98496,
      "max": [
        27171
      ],
      "min": [
        9310
      ],
      "type": "SCALAR"
    },
    {
      "bufferView": 3,
      "componentType": 5126,
      "count": 27172,
      "max": [
        1.5896847248077393,
        4.8784098625183105,
        1.2808915376663208
      ],
      "min": [
        -1.5742019414901733,
        4.133159637451172,
        -1.0292954444885254
      ],
      "type": "VEC3"
    },
    {
      "bufferView": 4,
      "componentType": 5126,
      "count": 27172,
      "max": [
        1.0,
        0.9999803900718689,
        0.9999799132347107
      ],
      "min": [
        -0.9999996423721313,
        -0.9999651312828064,
        -0.9998893141746521
      ],
      "type": "VEC3"
    },
    {
      "bufferView": 5,
      "componentType": 5126,
      "count": 27172,
      "max": [
        0.8391607999801636,
        0.6882067918777466
      ],
      "min": [
        0.789078414440155,
        0.6831128597259521
      ],
      "type": "VEC2"
    },
    {
      "bufferView": 6,
      "componentType": 5125,
      "count": 44811,
      "max": [
        7740
      ],
      "min": [
        0
      ],
      "type": "SCALAR"
    },
    {
      "bufferView": 7,
      "componentType": 5125,
      "count": 44811,
      "max": [
        15850
      ],
      "min": [
        8110
      ],
      "type": "SCALAR"
    },
    {
      "bufferView": 8,
      "componentType": 5125,
      "count": 39096,
      "max": [
        23343
      ],
      "min": [
        16220
      ],
      "type": "SCALAR"
    },
    {
      "bufferView": 9,
      "componentType": 5126,
      "count": 23344,
      "max": [
        1.8907406330108643,
        4.44773530960083,
        0.3805001378059387
      ],
      "min": [
        -0.06320799887180328,
        -5.140742778778076,
        -1.3076499700546265
      ],
      "type": "VEC3"
    },
    {
      "bufferView": 10,
      "componentType": 5126,
      "count": 23344,
      "max": [
        1.0,
        0.9999495148658752,
        0.9999891519546509
      ],
      "min": [
        -0.999915361404419,
        -0.999997615814209,
        -0.9999513030052185
      ],
      "type": "VEC3"
    },
    {
      "bufferView": 11,
      "componentType": 5126,
      "count": 23344,
      "max": [
        0.26045191287994385,
        0.6993134021759033
      ],
      "min": [
        0.027023689821362495,
        0.10369759798049927
      ],
      "type": "VEC2"
    },
    {
      "bufferView": 12,
      "componentType": 5125,
      "count": 9753,
      "max": [
        1990
      ],
      "min": [
        0
      ],
      "type": "SCALAR"
    },
    {
      "bufferView": 13,
      "componentType": 5125,
      "count": 9753,
      "max": [
        4716
      ],
      "min": [
        2726
      ],
      "type": "SCALAR"
    },
    {
      "bufferView": 14,
      "componentType": 5125,
      "count": 52488,
      "max": [
        15006
      ],
      "min": [
        5452
      ],
      "type": "SCALAR"
    },
    {
      "bufferView": 15,
      "componentType": 5126,
      "count": 15007,
      "max": [
        1.608958125114441,
        4.848029136657715,
        1.3082267045974731
      ],
      "min": [
        -1.5941128730773926,
        4.132334232330322,
        -0.1350390613079071
      ],
      "type": "VEC3"
    },
    {
      "bufferView": 16,
      "componentType": 5126,
      "count": 15007,
      "max": [
        1.0,
        0.9998575448989868,
        0.9999962449073792
      ],
      "min": [
        -0.9999842643737793,
        -0.9998230338096619,
        -0.9999966025352478
      ],
      "type": "VEC3"
    },
    {
      "bufferView": 17,
      "componentType": 5126,
      "count": 15007,
      "max": [
        0.6593783497810364,
        0.7348916530609131
      ],
      "min": [
        0.31241554021835327,
        0.6877172589302063
      ],
      "type": "VEC2"
    },
    {
      "bufferView": 18,
      "componentType": 5125,
      "count": 10515,
      "max": [
        2078
      ],
      "min": [
        0
      ],
      "type": "SCALAR"
    },
    {
      "bufferView": 19,
      "componentType": 5125,
      "count": 10515,
      "max": [
        4800
      ],
      "min": [
        2722
      ],
      "type": "SCALAR"
    },
    {
      "bufferView": 20,
      "componentType": 5125,
      "count": 46872,
      "max": [
        13984
      ],
      "min": [
        5444
      ],
      "type": "SCALAR"
    },
    {
      "bufferView": 21,
      "componentType": 5126,
      "count": 13985,
      "max": [
        1.6032015085220337,
        4.878457069396973,
        -0.026193002238869667
      ],
      "min": [
        -1.5941157341003418,
        4.391284465789795,
        -1.0377973318099976
      ],
      "type": "VEC3"
    },
    {
      "bufferView": 22,
      "componentType": 5126,
      "count": 13985,
      "max": [
        1.0,
        0.9999977350234985,
        0.9999814629554749
      ],
      "min": [
        -0.9998524188995361,
        -0.9999770522117615,
        -0.9999048113822937
      ],
      "type": "VEC3"
    },
    {
      "bufferView": 23,
      "componentType": 5126,
      "count": 13985,
      "max": [
        0.9631615281105042,
        0.7377954721450806
      ],
      "min": [
        0.6645126938819885,
        0.6940787434577942
      ],
      "type": "VEC2"
    },
    {
      "bufferView": 24,
      "componentType": 5125,
      "count": 1566,
      "max": [
        296
      ],
      "min": [
        0
      ],
      "type": "SCALAR"
    },
    {
      "bufferView": 25,
      "componentType": 5125,
      "count": 1566,
      "max": [
        593
      ],
      "min": [
        297
      ],
      "type": "SCALAR"
    },
    {
      "bufferView": 26,
      "componentType": 5125,
      "count": 5040,
      "max": [
        1542
      ],
      "min": [
        594
      ],
      "type": "SCALAR"
    },
    {
      "bufferView": 27,
      "componentType": 5126,
      "count": 1543,
      "max": [
        1.8788580894470215,
        4.419099807739258,
        0.45053449273109436
      ],
      "min": [
        1.5317928791046143,
        3.0099780559539795,
        -0.2645735740661621
      ],
      "type": "VEC3"
    },
    {
      "bufferView": 28,
      "componentType": 5126,
      "count": 1543,
      "max": [
        0.9993984699249268,
        0.9949510097503662,
        0.9960780739784241
      ],
      "min": [
        -0.9999701976776123,
        -0.9967159032821655,
        -0.9974493980407715
      ],
      "type": "VEC3"
    },
    {
      "bufferView": 29,
      "componentType": 5126,
      "count": 1543,
      "max": [
        0.30992215871810913,
        0.6952632665634155
      ],
      "min": [
        0.26518669724464417,
        0.608329176902771
      ],
      "type": "VEC2"
    },
    {
      "bufferView": 30,
      "componentType": 5125,
      "count": 45171,
      "max": [
        7797
      ],
      "min": [
        0
      ],
      "type": "SCALAR"
    },
    {
      "bufferView": 31,
      "componentType": 5125,
      "count": 45171,
      "max": [
        16023
      ],
      "min": [
        8226
      ],
      "type": "SCALAR"
    },
    {
      "bufferView": 32,
      "componentType": 5125,
      "count": 38664,
      "max": [
        23510
      ],
      "min": [
        16452
      ],
      "type": "SCALAR"
    },
    {
      "bufferView": 33,
      "componentType": 5126,
      "count": 23511,
      "max": [
        1.9364427328109741,
        4.350259780883789,
        1.2633551359176636
      ],
      "min": [
        -0.008609965443611145,
        -5.139692306518555,
        -0.5260762572288513
      ],
      "type": "VEC3"
    },
    {
      "bufferView": 34,
      "componentType": 5126,
      "count": 23511,
      "max": [
        1.0,
        0.9990187883377075,
        0.999974250793457
      ],
      "min": [
        -0.9999851584434509,
        -0.9999423623085022,
        -0.999981164932251
      ],
      "type": "VEC3"
    },
    {
      "bufferView": 35,
      "componentType": 5126,
      "count": 23511,
      "max": [
        0.5003640651702881,
        0.68428635597229
      ],
      "min": [
        0.28508874773979187,
        0.1023108959197998
      ],
      "type": "VEC2"
    },
    {
      "bufferView": 36,
      "componentType": 5125,
      "count": 1539,
      "max": [
        294
      ],
      "min": [
        0
      ],
      "type": "SCALAR"
    },
    {
      "bufferView": 37,
      "componentType": 5125,
      "count": 1539,
      "max": [
        589
      ],
      "min": [
        295
      ],
      "type": "SCALAR"
    },
    {
      "bufferView": 38,
      "componentType": 5125,
      "count": 5400,
      "max": [
        1603
      ],
      "min": [
        590
      ],
      "type": "SCALAR"
    },
    {
      "bufferView": 39,
      "componentType": 5126,
      "count": 1604,
      "max": [
        -1.5059258937835693,
        4.408471584320068,
        0.4662494957447052
      ],
      "min": [
        -1.8672726154327393,
        2.9883434772491455,
        -0.2105184942483902
      ],
      "type": "VEC3"
    },
    {
      "bufferView": 40,
      "componentType": 5126,
      "count": 1604,
      "max": [
        0.9994544982910156,
        0.9885976314544678,
        0.9992398023605347
      ],
      "min": [
        -0.9988633990287781,
        -0.9976223707199097,
        -0.9973520040512085
      ],
      "type": "VEC3"
    },
    {
      "bufferView": 41,
      "componentType": 5126,
      "count": 1604,
      "max": [
        0.7421634793281555,
        0.6979740858078003
      ],
      "min": [
        0.6964606642723083,
        0.6110833883285522
      ],
      "type": "VEC2"
    },
    {
      "bufferView": 42,
      "componentType": 5125,
      "count": 45270,
      "max": [
        7811
      ],
      "min": [
        0
      ],
      "type": "SCALAR"
    },
    {
      "bufferView": 43,
      "componentType": 5125,
      "count": 45270,
      "max": [
        16051
      ],
      "min": [
        8240
      ],
      "type": "SCALAR"
    },
    {
      "bufferView": 44,
      "componentType": 5125,
      "count": 38304,
      "max": [
        23473
      ],
      "min": [
        16480
      ],
      "type": "SCALAR"
    },
    {
      "bufferView": 45,
      "componentType": 5126,
      "count": 23474,
      "max": [
        0.022853413596749306,
        4.323974132537842,
        1.266079068183899
      ],
      "min": [
        -1.9358035326004028,
        -5.1502580642700195,
        -0.5369019508361816
      ],
      "type": "VEC3"
    },
    {
      "bufferView": 46,
      "componentType": 5126,
      "count": 23474,
      "max": [
        1.0,
        0.9997721314430237,
        0.9999669790267944
      ],
      "min": [
        -0.9999908208847046,
        -0.9999580979347229,
        -0.9999846816062927
      ],
      "type": "VEC3"
    },
    {
      "bufferView": 47,
      "componentType": 5126,
      "count": 23474,
      "max": [
        0.7198037505149841,
        0.688446581363678
      ],
      "min": [
        0.5061585307121277,
        0.10500460863113403
      ],
      "type": "VEC2"
    },
    {
      "bufferView": 48,
      "componentType": 5125,
      "count": 44784,
      "max": [
        7736
      ],
      "min": [
        0
      ],
      "type": "SCALAR"
    },
    {
      "bufferView": 49,
      "componentType": 5125,
      "count": 44784,
      "max": [
        15842
      ],
      "min": [
        8106
      ],
      "type": "SCALAR"
    },
    {
      "bufferView": 50,
      "componentType": 5125,
      "count": 39168,
      "max": [
        23348
      ],
      "min": [
        16212
      ],
      "type": "SCALAR"
    },
    {
      "bufferView": 51,
      "componentType": 5126,
      "count": 23349,
      "max": [
        0.022257670760154724,
        4.456559181213379,
        0.3804895579814911
      ],
      "min": [
        -1.8703548908233643,
        -5.1421637535095215,
        -1.305005431175232
      ],
      "type": "VEC3"
    },
    {
      "bufferView": 52,
      "componentType": 5126,
      "count": 23349,
      "max": [
        1.0,
        0.999965488910675,
        0.9999185800552368
      ],
      "min": [
        -0.9999842047691345,
        -0.9999837875366211,
        -0.9999372959136963
      ],
      "type": "VEC3"
    },
    {
      "bufferView": 53,
      "componentType": 5126,
      "count": 23349,
      "max": [
        0.9832131266593933,
        0.6892111301422119
      ],
      "min": [
        0.7458946108818054,
        0.09354168176651001
      ],
      "type": "VEC2"
    }
  ],
  "asset": {
    "generator": "CLO Standalone OnlineAuth",
    "version": "2.0"
  },
  "bufferViews": [
    {
      "buffer": 0,
      "byteLength": 62712
    },
    {
      "buffer": 0,
      "byteLength": 62712,
      "byteOffset": 62712
    },
    {
      "buffer": 0,
      "byteLength": 393984,
      "byteOffset": 125424
    },
    {
      "buffer": 0,
      "byteLength": 326064,
      "byteOffset": 519408
    },
    {
      "buffer": 0,
      "byteLength": 326064,
      "byteOffset": 845472
    },
    {
      "buffer": 0,
      "byteLength": 217376,
      "byteOffset": 1171536
    },
    {
      "buffer": 0,
      "byteLength": 179244,
      "byteOffset": 1388912
    },
    {
      "buffer": 0,
      "byteLength": 179244,
      "byteOffset": 1568156
    },
    {
      "buffer": 0,
      "byteLength": 156384,
      "byteOffset": 1747400
    },
    {
      "buffer": 0,
      "byteLength": 280128,
      "byteOffset": 1903784
    },
    {
      "buffer": 0,
      "byteLength": 280128,
      "byteOffset": 2183912
    },
    {
      "buffer": 0,
      "byteLength": 186752,
      "byteOffset": 2464040
    },
    {
      "buffer": 0,
      "byteLength": 39012,
      "byteOffset": 2650792
    },
    {
      "buffer": 0,
      "byteLength": 39012,
      "byteOffset": 2689804
    },
    {
      "buffer": 0,
      "byteLength": 209952,
      "byteOffset": 2728816
    },
    {
      "buffer": 0,
      "byteLength": 180084,
      "byteOffset": 2938768
    },
    {
      "buffer": 0,
      "byteLength": 180084,
      "byteOffset": 3118852
    },
    {
      "buffer": 0,
      "byteLength": 120056,
      "byteOffset": 3298936
    },
    {
      "buffer": 0,
      "byteLength": 42060,
      "byteOffset": 3418992
    },
    {
      "buffer": 0,
      "byteLength": 42060,
      "byteOffset": 3461052
    },
    {
      "buffer": 0,
      "byteLength": 187488,
      "byteOffset": 3503112
    },
    {
      "buffer": 0,
      "byteLength": 167820,
      "byteOffset": 3690600
    },
    {
      "buffer": 0,
      "byteLength": 167820,
      "byteOffset": 3858420
    },
    {
      "buffer": 0,
      "byteLength": 111880,
      "byteOffset": 4026240
    },
    {
      "buffer": 0,
      "byteLength": 6264,
      "byteOffset": 4138120
    },
    {
      "buffer": 0,
      "byteLength": 6264,
      "byteOffset": 4144384
    },
    {
      "buffer": 0,
      "byteLength": 20160,
      "byteOffset": 4150648
    },
    {
      "buffer": 0,
      "byteLength": 18516,
      "byteOffset": 4170808
    },
    {
      "buffer": 0,
      "byteLength": 18516,
      "byteOffset": 4189324
    },
    {
      "buffer": 0,
      "byteLength": 12344,
      "byteOffset": 4207840
    },
    {
      "buffer": 0,
      "byteLength": 180684,
      "byteOffset": 4220184
    },
    {
      "buffer": 0,
      "byteLength": 180684,
      "byteOffset": 4400868
    },
    {
      "buffer": 0,
      "byteLength": 154656,
      "byteOffset": 4581552
    },
    {
      "buffer": 0,
      "byteLength": 282132,
      "byteOffset": 4736208
    },
    {
      "buffer": 0,
      "byteLength": 282132,
      "byteOffset": 5018340
    },
    {
      "buffer": 0,
      "byteLength": 188088,
      "byteOffset": 5300472
    },
    {
      "buffer": 0,
      "byteLength": 6156,
      "byteOffset": 5488560
    },
    {
      "buffer": 0,
      "byteLength": 6156,
      "byteOffset": 5494716
    },
    {
      "buffer": 0,
      "byteLength": 21600,
      "byteOffset": 5500872
    },
    {
      "buffer": 0,
      "byteLength": 19248,
      "byteOffset": 5522472
    },
    {
      "buffer": 0,
      "byteLength": 19248,
      "byteOffset": 5541720
    },
    {
      "buffer": 0,
      "byteLength": 12832,
      "byteOffset": 5560968
    },
    {
      "buffer": 0,
      "byteLength": 181080,
      "byteOffset": 5573800
    },
    {
      "buffer": 0,
      "byteLength": 181080,
      "byteOffset": 5754880
    },
    {
      "buffer": 0,
      "byteLength": 153216,
      "byteOffset": 5935960
    },
    {
      "buffer": 0,
      "byteLength": 281688,
      "byteOffset": 6089176
    },
    {
      "buffer": 0,
      "byteLength": 281688,
      "byteOffset": 6370864
    },
    {
      "buffer": 0,
      "byteLength": 187792,
      "byteOffset": 6652552
    },
    {
      "buffer": 0,
      "byteLength": 179136,
      "byteOffset": 6840344
    },
    {
      "buffer": 0,
      "byteLength": 179136,
      "byteOffset": 7019480
    },
    {
      "buffer": 0,
      "byteLength": 156672,
      "byteOffset": 7198616
    },
    {
      "buffer": 0,
      "byteLength": 280188,
      "byteOffset": 7355288
    },
    {
      "buffer": 0,
      "byteLength": 280188,
      "byteOffset": 7635476
    },
    {
      "buffer": 0,
      "byteLength": 186792,
      "byteOffset": 7915664
    }
  ],
  "buffers": [
    {
      "byteLength": 8102456,
      "uri": "Pants.bin"
    }
  ],
  "extensionsUsed": [
    "KHR_materials_specular"
  ],
  "materials": [
    {
      "extensions": {
        "KHR_materials_specular": {
          "specularFactor": 0.0
        }
      },
      "name": "(E)SwatchOn_QL-012707_Rib Copy 6_3472663"
    },
    {
      "extensions": {
        "KHR_materials_specular": {
          "specularFactor": 0.0
        }
      },
      "name": "(E)SwatchOn_QL-012707_Rib Copy 2_3470007"
    },
    {
      "extensions": {
        "KHR_materials_specular": {
          "specularFactor": 0.0
        }
      },
      "name": "(E)SwatchOn_QL-012707_Rib Copy 4_3471599"
    },
    {
      "extensions": {
        "KHR_materials_specular": {
          "specularFactor": 0.0
        }
      },
      "name": "(E)SwatchOn_QL-012707_Rib Copy 5_3472131"
    },
    {
      "extensions": {
        "KHR_materials_specular": {
          "specularFactor": 0.0
        }
      },
      "name": "(E)SwatchOn_QL-012707_Rib Copy 3_3470539"
    },
    {
      "extensions": {
        "KHR_materials_specular": {
          "specularFactor": 0.0
        }
      },
      "name": "(E)SwatchOn_QL-012707_Rib_2631041"
    },
    {
      "extensions": {
        "KHR_materials_specular": {
          "specularFactor": 0.0
        }
      },
      "name": "(E)SwatchOn_QL-012707_Rib Copy 1_3469475"
    }
  ],
  "meshes": [
    {
      "name": "Cloth_mesh",
      "primitives": [
        {
          "attributes": {
            "NORMAL": 4,
            "POSITION": 3,
            "TEXCOORD_0": 5
          },
          "indices": 0,
          "material": 0
        },
        {
          "attributes": {
            "NORMAL": 4,
            "POSITION": 3,
            "TEXCOORD_0": 5
          },
          "indices": 1,
          "material": 0
        },
        {
          "attributes": {
            "NORMAL": 4,
            "POSITION": 3,
            "TEXCOORD_0": 5
          },
          "indices": 2,
          "material": 0
        },
        {
          "attributes": {
            "NORMAL": 10,
            "POSITION": 9,
            "TEXCOORD_0": 11
          },
          "indices": 6,
          "material": 1
        },
        {
          "attributes": {
            "NORMAL": 10,
            "POSITION": 9,
            "TEXCOORD_0": 11
          },
          "indices": 7,
          "material": 1
        },
        {
          "attributes": {
            "NORMAL": 10,
            "POSITION": 9,
            "TEXCOORD_0": 11
          },
          "indices": 8,
          "material": 1
        },
        {
          "attributes": {
            "NORMAL": 16,
            "POSITION": 15,
            "TEXCOORD_0": 17
          },
          "indices": 12,
          "material": 2
        },
        {
          "attributes": {
            "NORMAL": 16,
            "POSITION": 15,
            "TEXCOORD_0": 17
          },
          "indices": 13,
          "material": 2
        },
        {
          "attributes": {
            "NORMAL": 16,
            "POSITION": 15,
            "TEXCOORD_0": 17
          },
          "indices": 14,
          "material": 2
        },
        {
          "attributes": {
            "NORMAL": 22,
            "POSITION": 21,
            "TEXCOORD_0": 23
          },
          "indices": 18,
          "material": 3
        },
        {
          "attributes": {
            "NORMAL": 22,
            "POSITION": 21,
            "TEXCOORD_0": 23
          },
          "indices": 19,
          "material": 3
        },
        {
          "attributes": {
            "NORMAL": 22,
            "POSITION": 21,
            "TEXCOORD_0": 23
          },
          "indices": 20,
          "material": 3
        },
        {
          "attributes": {
            "NORMAL": 28,
            "POSITION": 27,
            "TEXCOORD_0": 29
          },
          "indices": 24,
          "material": 4
        },
        {
          "attributes": {
            "NORMAL": 28,
            "POSITION": 27,
            "TEXCOORD_0": 29
          },
          "indices": 25,
          "material": 4
        },
        {
          "attributes": {
            "NORMAL": 28,
            "POSITION": 27,
            "TEXCOORD_0": 29
          },
          "indices": 26,
          "material": 4
        },
        {
          "attributes": {
            "NORMAL": 34,
            "POSITION": 33,
            "TEXCOORD_0": 35
          },
          "indices": 30,
          "material": 4
        },
        {
          "attributes": {
            "NORMAL": 34,
            "POSITION": 33,
            "TEXCOORD_0": 35
          },
          "indices": 31,
          "material": 4
        },
        {
          "attributes": {
            "NORMAL": 34,
            "POSITION": 33,
            "TEXCOORD_0": 35
          },
          "indices": 32,
          "material": 4
        },
        {
          "attributes": {
            "NORMAL": 40,
            "POSITION": 39,
            "TEXCOORD_0": 41
          },
          "indices": 36,
          "material": 5
        },
        {
          "attributes": {
            "NORMAL": 40,
            "POSITION": 39,
            "TEXCOORD_0": 41
          },
          "indices": 37,
          "material": 5
        },
        {
          "attributes": {
            "NORMAL": 40,
            "POSITION": 39,
            "TEXCOORD_0": 41
          },
          "indices": 38,
          "material": 5
        },
        {
          "attributes": {
            "NORMAL": 46,
            "POSITION": 45,
            "TEXCOORD_0": 47
          },
          "indices": 42,
          "material": 5
        },
        {
          "attributes": {
            "NORMAL": 46,
            "POSITION": 45,
            "TEXCOORD_0": 47
          },
          "indices": 43,
          "material": 5
        },
        {
          "attributes": {
            "NORMAL": 46,
            "POSITION": 45,
            "TEXCOORD_0": 47
          },
          "indices": 44,
          "material": 5
        },
        {
          "attributes": {
            "NORMAL": 52,
            "POSITION": 51,
            "TEXCOORD_0": 53
          },
          "indices": 48,
          "material": 6
        },
        {
          "attributes": {
            "NORMAL": 52,
            "POSITION": 51,
            "TEXCOORD_0": 53
          },
          "indices": 49,
          "material": 6
        },
        {
          "attributes": {
            "NORMAL": 52,
            "POSITION": 51,
            "TEXCOORD_0": 53
          },
          "indices": 50,
          "material": 6
        }
      ]
    }
  ],
  "nodes": [
    {
      "children": [
        1
      ],
      "name": "Pants_Scene_Node"
    },
    {
      "mesh": 0,
      "name": "Cloth"
    }
  ],
  "scene": 0,
  "scenes": [
    {
      "nodes": [
        0
      ]
    }
  ]
}