{
	"asset":{
		"generator":"Khronos glTF Blender I/O v4.2.57",
		"version":"2.0"
	},
	"extensionsUsed":[
		"KHR_materials_specular"
	],
	"scene":0,
	"scenes":[
		{
			"name":"Scene",
			"nodes":[
				1
			]
		}
	],
	"nodes":[
		{
			"mesh":0,
			"name":"Cloth"
		},
		{
			"children":[
				0
			],
			"name":"r_Scene_Node"
		}
	],
	"materials":[
		{
			"extensions":{
				"KHR_materials_specular":{
					"specularFactor":0.15000000596046448
				}
			},
			"name":"Rib_1X1_486gsm Copy 1_525944"
		},
		{
			"extensions":{
				"KHR_materials_specular":{
					"specularFactor":0.15000000596046448
				}
			},
			"name":"Rib_1X1_486gsm Copy 4_537605"
		},
		{
			"extensions":{
				"KHR_materials_specular":{
					"specularFactor":0.15000000596046448
				}
			},
			"name":"Rib_1X1_486gsm Copy 3_535848"
		},
		{
			"extensions":{
				"KHR_materials_specular":{
					"specularFactor":0.15000000596046448
				}
			},
			"name":"Rib_1X1_486gsm Copy 2_535264"
		}
	],
	"meshes":[
		{
			"name":"Cloth_mesh.001",
			"primitives":[
				{
					"attributes":{
						"POSITION":0,
						"NORMAL":1,
						"TEXCOORD_0":2
					},
					"indices":3,
					"material":0
				},
				{
					"attributes":{
						"POSITION":4,
						"NORMAL":5,
						"TEXCOORD_0":6
					},
					"indices":7,
					"material":1
				},
				{
					"attributes":{
						"POSITION":8,
						"NORMAL":9,
						"TEXCOORD_0":10
					},
					"indices":11,
					"material":2
				},
				{
					"attributes":{
						"POSITION":12,
						"NORMAL":13,
						"TEXCOORD_0":14
					},
					"indices":15,
					"material":3
				}
			]
		}
	],
	"accessors":[
		{
			"bufferView":0,
			"componentType":5126,
			"count":6206,
			"max":[
				1.2713501453399658,
				2.907526969909668,
				1.0347486734390259
			],
			"min":[
				-1.2624646425247192,
				1.3468542098999023,
				-1.265307903289795
			],
			"type":"VEC3"
		},
		{
			"bufferView":1,
			"componentType":5126,
			"count":6206,
			"type":"VEC3"
		},
		{
			"bufferView":2,
			"componentType":5126,
			"count":6206,
			"type":"VEC2"
		},
		{
			"bufferView":3,
			"componentType":5123,
			"count":31626,
			"type":"SCALAR"
		},
		{
			"bufferView":4,
			"componentType":5126,
			"count":7190,
			"max":[
				1.6847331523895264,
				2.816952705383301,
				0.8663538694381714
			],
			"min":[
				-1.7026212215423584,
				0.6616125106811523,
				-1.293821096420288
			],
			"type":"VEC3"
		},
		{
			"bufferView":5,
			"componentType":5126,
			"count":7190,
			"type":"VEC3"
		},
		{
			"bufferView":6,
			"componentType":5126,
			"count":7190,
			"type":"VEC2"
		},
		{
			"bufferView":7,
			"componentType":5123,
			"count":36900,
			"type":"SCALAR"
		},
		{
			"bufferView":8,
			"componentType":5126,
			"count":28647,
			"max":[
				1.6793180704116821,
				2.848883628845215,
				1.4494794607162476
			],
			"min":[
				-1.6592060327529907,
				-2.6475563049316406,
				-0.33998697996139526
			],
			"type":"VEC3"
		},
		{
			"bufferView":9,
			"componentType":5126,
			"count":28647,
			"type":"VEC3"
		},
		{
			"bufferView":10,
			"componentType":5126,
			"count":28647,
			"type":"VEC2"
		},
		{
			"bufferView":11,
			"componentType":5123,
			"count":165444,
			"type":"SCALAR"
		},
		{
			"bufferView":12,
			"componentType":5126,
			"count":30420,
			"max":[
				1.6670138835906982,
				2.848813056945801,
				0.359968364238739
			],
			"min":[
				-1.67577064037323,
				-2.5909128189086914,
				-1.3219093084335327
			],
			"type":"VEC3"
		},
		{
			"bufferView":13,
			"componentType":5126,
			"count":30420,
			"type":"VEC3"
		},
		{
			"bufferView":14,
			"componentType":5126,
			"count":30420,
			"type":"VEC2"
		},
		{
			"bufferView":15,
			"componentType":5123,
			"count":170346,
			"type":"SCALAR"
		}
	],
	"bufferViews":[
		{
			"buffer":0,
			"byteLength":74472,
			"byteOffset":0,
			"target":34962
		},
		{
			"buffer":0,
			"byteLength":74472,
			"byteOffset":74472,
			"target":34962
		},
		{
			"buffer":0,
			"byteLength":49648,
			"byteOffset":148944,
			"target":34962
		},
		{
			"buffer":0,
			"byteLength":63252,
			"byteOffset":198592,
			"target":34963
		},
		{
			"buffer":0,
			"byteLength":86280,
			"byteOffset":261844,
			"target":34962
		},
		{
			"buffer":0,
			"byteLength":86280,
			"byteOffset":348124,
			"target":34962
		},
		{
			"buffer":0,
			"byteLength":57520,
			"byteOffset":434404,
			"target":34962
		},
		{
			"buffer":0,
			"byteLength":73800,
			"byteOffset":491924,
			"target":34963
		},
		{
			"buffer":0,
			"byteLength":343764,
			"byteOffset":565724,
			"target":34962
		},
		{
			"buffer":0,
			"byteLength":343764,
			"byteOffset":909488,
			"target":34962
		},
		{
			"buffer":0,
			"byteLength":229176,
			"byteOffset":1253252,
			"target":34962
		},
		{
			"buffer":0,
			"byteLength":330888,
			"byteOffset":1482428,
			"target":34963
		},
		{
			"buffer":0,
			"byteLength":365040,
			"byteOffset":1813316,
			"target":34962
		},
		{
			"buffer":0,
			"byteLength":365040,
			"byteOffset":2178356,
			"target":34962
		},
		{
			"buffer":0,
			"byteLength":243360,
			"byteOffset":2543396,
			"target":34962
		},
		{
			"buffer":0,
			"byteLength":340692,
			"byteOffset":2786756,
			"target":34963
		}
	],
	"buffers":[
		{
			"byteLength":3127448,
			"uri":"Top%20Male.bin"
		}
	]
}
