{
	"asset":{
		"generator":"Khronos glTF Blender I/O v4.2.57",
		"version":"2.0"
	},
	"extensionsUsed":[
		"KHR_materials_specular"
	],
	"scene":0,
	"scenes":[
		{
			"name":"Scene",
			"nodes":[
				1
			]
		}
	],
	"nodes":[
		{
			"mesh":0,
			"name":"Cloth"
		},
		{
			"children":[
				0
			],
			"name":"Jeans_male12_Scene_Node"
		}
	],
	"materials":[
		{
			"extensions":{
				"KHR_materials_specular":{
					"specularFactor":0.15000000596046448
				}
			},
			"name":"Denim_Raw Copy 6_512242"
		},
		{
			"extensions":{
				"KHR_materials_specular":{
					"specularFactor":0.15000000596046448
				}
			},
			"name":"Denim_Raw Copy 2_512222"
		},
		{
			"extensions":{
				"KHR_materials_specular":{
					"specularFactor":0.15000000596046448
				}
			},
			"name":"Denim_Raw Copy 5_512237"
		},
		{
			"extensions":{
				"KHR_materials_specular":{
					"specularFactor":0.15000000596046448
				}
			},
			"name":"Denim_Raw Copy 4_512232"
		},
		{
			"extensions":{
				"KHR_materials_specular":{
					"specularFactor":0.15000000596046448
				}
			},
			"name":"Denim_Raw Copy 3_512227"
		},
		{
			"extensions":{
				"KHR_materials_specular":{
					"specularFactor":0.15000000596046448
				}
			},
			"name":"Denim_Raw_512211"
		},
		{
			"extensions":{
				"KHR_materials_specular":{
					"specularFactor":0.15000000596046448
				}
			},
			"name":"Denim_Raw Copy 7_512247"
		},
		{
			"extensions":{
				"KHR_materials_specular":{
					"specularFactor":0.15000000596046448
				}
			},
			"name":"Denim_Raw Copy 9_512257"
		},
		{
			"extensions":{
				"KHR_materials_specular":{
					"specularFactor":0.15000000596046448
				}
			},
			"name":"Denim_Raw Copy 1_512217"
		},
		{
			"extensions":{
				"KHR_materials_specular":{
					"specularFactor":0.15000000596046448
				}
			},
			"name":"Denim_Raw Copy 8_512252"
		},
		{
			"name":"Default Button_512270"
		},
		{
			"name":"Snap Button 1_512282"
		}
	],
	"meshes":[
		{
			"name":"Cloth_mesh",
			"primitives":[
				{
					"attributes":{
						"POSITION":0,
						"NORMAL":1,
						"TEXCOORD_0":2
					},
					"indices":3,
					"material":0
				},
				{
					"attributes":{
						"POSITION":4,
						"NORMAL":5,
						"TEXCOORD_0":6
					},
					"indices":7,
					"material":1
				},
				{
					"attributes":{
						"POSITION":8,
						"NORMAL":9,
						"TEXCOORD_0":10
					},
					"indices":11,
					"material":2
				},
				{
					"attributes":{
						"POSITION":12,
						"NORMAL":13,
						"TEXCOORD_0":14
					},
					"indices":15,
					"material":3
				},
				{
					"attributes":{
						"POSITION":16,
						"NORMAL":17,
						"TEXCOORD_0":18
					},
					"indices":19,
					"material":4
				},
				{
					"attributes":{
						"POSITION":20,
						"NORMAL":21,
						"TEXCOORD_0":22
					},
					"indices":23,
					"material":5
				},
				{
					"attributes":{
						"POSITION":24,
						"NORMAL":25,
						"TEXCOORD_0":26
					},
					"indices":27,
					"material":6
				},
				{
					"attributes":{
						"POSITION":28,
						"NORMAL":29,
						"TEXCOORD_0":30
					},
					"indices":31,
					"material":7
				},
				{
					"attributes":{
						"POSITION":32,
						"NORMAL":33,
						"TEXCOORD_0":34
					},
					"indices":35,
					"material":8
				},
				{
					"attributes":{
						"POSITION":36,
						"NORMAL":37,
						"TEXCOORD_0":38
					},
					"indices":39,
					"material":9
				},
				{
					"attributes":{
						"POSITION":40,
						"NORMAL":41,
						"TEXCOORD_0":42
					},
					"indices":43,
					"material":10
				},
				{
					"attributes":{
						"POSITION":44,
						"NORMAL":45,
						"TEXCOORD_0":46
					},
					"indices":47,
					"material":11
				}
			]
		}
	],
	"accessors":[
		{
			"bufferView":0,
			"componentType":5126,
			"count":3035,
			"max":[
				1.4440793991088867,
				5.20125675201416,
				1.248188853263855
			],
			"min":[
				-1.381283164024353,
				4.5837860107421875,
				-0.7586472630500793
			],
			"type":"VEC3"
		},
		{
			"bufferView":1,
			"componentType":5126,
			"count":3035,
			"type":"VEC3"
		},
		{
			"bufferView":2,
			"componentType":5126,
			"count":3035,
			"type":"VEC2"
		},
		{
			"bufferView":3,
			"componentType":5123,
			"count":15132,
			"type":"SCALAR"
		},
		{
			"bufferView":4,
			"componentType":5126,
			"count":17551,
			"max":[
				0.39460164308547974,
				4.689584732055664,
				1.2627898454666138
			],
			"min":[
				-2.1832563877105713,
				-6.6321024894714355,
				-0.3756829500198364
			],
			"type":"VEC3"
		},
		{
			"bufferView":5,
			"componentType":5126,
			"count":17551,
			"type":"VEC3"
		},
		{
			"bufferView":6,
			"componentType":5126,
			"count":17551,
			"type":"VEC2"
		},
		{
			"bufferView":7,
			"componentType":5123,
			"count":98268,
			"type":"SCALAR"
		},
		{
			"bufferView":8,
			"componentType":5126,
			"count":1229,
			"max":[
				1.9946411848068237,
				4.845402717590332,
				1.1206761598587036
			],
			"min":[
				0.6655584573745728,
				2.7525434494018555,
				0.034138038754463196
			],
			"type":"VEC3"
		},
		{
			"bufferView":9,
			"componentType":5126,
			"count":1229,
			"type":"VEC3"
		},
		{
			"bufferView":10,
			"componentType":5126,
			"count":1229,
			"type":"VEC2"
		},
		{
			"bufferView":11,
			"componentType":5123,
			"count":6438,
			"type":"SCALAR"
		},
		{
			"bufferView":12,
			"componentType":5126,
			"count":1227,
			"max":[
				-0.6206249594688416,
				4.809536933898926,
				1.0854122638702393
			],
			"min":[
				-1.9214091300964355,
				2.7480649948120117,
				0.02068735659122467
			],
			"type":"VEC3"
		},
		{
			"bufferView":13,
			"componentType":5126,
			"count":1227,
			"type":"VEC3"
		},
		{
			"bufferView":14,
			"componentType":5126,
			"count":1227,
			"type":"VEC2"
		},
		{
			"bufferView":15,
			"componentType":5123,
			"count":6426,
			"type":"SCALAR"
		},
		{
			"bufferView":16,
			"componentType":5126,
			"count":366,
			"max":[
				-1.0748083591461182,
				4.692770957946777,
				0.8809008002281189
			],
			"min":[
				-1.6138004064559937,
				3.937763214111328,
				0.3998861312866211
			],
			"type":"VEC3"
		},
		{
			"bufferView":17,
			"componentType":5126,
			"count":366,
			"type":"VEC3"
		},
		{
			"bufferView":18,
			"componentType":5126,
			"count":366,
			"type":"VEC2"
		},
		{
			"bufferView":19,
			"componentType":5123,
			"count":1656,
			"type":"SCALAR"
		},
		{
			"bufferView":20,
			"componentType":5126,
			"count":494,
			"max":[
				0.8178530335426331,
				5.010908126831055,
				1.1431597471237183
			],
			"min":[
				-0.8441956639289856,
				4.562758445739746,
				0.9890676736831665
			],
			"type":"VEC3"
		},
		{
			"bufferView":21,
			"componentType":5126,
			"count":494,
			"type":"VEC3"
		},
		{
			"bufferView":22,
			"componentType":5126,
			"count":494,
			"type":"VEC2"
		},
		{
			"bufferView":23,
			"componentType":5123,
			"count":2004,
			"type":"SCALAR"
		},
		{
			"bufferView":24,
			"componentType":5126,
			"count":18704,
			"max":[
				2.2695305347442627,
				4.886985778808594,
				0.18609248101711273
			],
			"min":[
				0.021826298907399178,
				-6.590273380279541,
				-1.4897319078445435
			],
			"type":"VEC3"
		},
		{
			"bufferView":25,
			"componentType":5126,
			"count":18704,
			"type":"VEC3"
		},
		{
			"bufferView":26,
			"componentType":5126,
			"count":18704,
			"type":"VEC2"
		},
		{
			"bufferView":27,
			"componentType":5123,
			"count":105864,
			"type":"SCALAR"
		},
		{
			"bufferView":28,
			"componentType":5126,
			"count":1692,
			"max":[
				1.6395771503448486,
				4.349005699157715,
				-0.48282915353775024
			],
			"min":[
				-1.5498216152191162,
				3.3074798583984375,
				-1.4022432565689087
			],
			"type":"VEC3"
		},
		{
			"bufferView":29,
			"componentType":5126,
			"count":1692,
			"type":"VEC3"
		},
		{
			"bufferView":30,
			"componentType":5126,
			"count":1692,
			"type":"VEC2"
		},
		{
			"bufferView":31,
			"componentType":5123,
			"count":8316,
			"type":"SCALAR"
		},
		{
			"bufferView":32,
			"componentType":5126,
			"count":17368,
			"max":[
				2.2627415657043457,
				4.663581848144531,
				1.2877957820892334
			],
			"min":[
				-0.007806327193975449,
				-6.632101058959961,
				-0.3756829500198364
			],
			"type":"VEC3"
		},
		{
			"bufferView":33,
			"componentType":5126,
			"count":17368,
			"type":"VEC3"
		},
		{
			"bufferView":34,
			"componentType":5126,
			"count":17368,
			"type":"VEC2"
		},
		{
			"bufferView":35,
			"componentType":5123,
			"count":97386,
			"type":"SCALAR"
		},
		{
			"bufferView":36,
			"componentType":5126,
			"count":18684,
			"max":[
				0.06082487106323242,
				4.845722198486328,
				0.14612020552158356
			],
			"min":[
				-2.1900432109832764,
				-6.590273380279541,
				-1.4874496459960938
			],
			"type":"VEC3"
		},
		{
			"bufferView":37,
			"componentType":5126,
			"count":18684,
			"type":"VEC3"
		},
		{
			"bufferView":38,
			"componentType":5126,
			"count":18684,
			"type":"VEC2"
		},
		{
			"bufferView":39,
			"componentType":5123,
			"count":105768,
			"type":"SCALAR"
		},
		{
			"bufferView":40,
			"componentType":5126,
			"count":1766,
			"max":[
				0.31901484727859497,
				4.853934288024902,
				1.2622549533843994
			],
			"min":[
				0.1415463238954544,
				4.6744384765625,
				1.216404676437378
			],
			"type":"VEC3"
		},
		{
			"bufferView":41,
			"componentType":5126,
			"count":1766,
			"type":"VEC3"
		},
		{
			"bufferView":42,
			"componentType":5126,
			"count":1766,
			"type":"VEC2"
		},
		{
			"bufferView":43,
			"componentType":5123,
			"count":10368,
			"type":"SCALAR"
		},
		{
			"bufferView":44,
			"componentType":5126,
			"count":7776,
			"max":[
				1.7311524152755737,
				4.678902626037598,
				1.0843878984451294
			],
			"min":[
				-1.6672451496124268,
				4.134136199951172,
				0.15789629518985748
			],
			"type":"VEC3"
		},
		{
			"bufferView":45,
			"componentType":5126,
			"count":7776,
			"type":"VEC3"
		},
		{
			"bufferView":46,
			"componentType":5126,
			"count":7776,
			"type":"VEC2"
		},
		{
			"bufferView":47,
			"componentType":5123,
			"count":43056,
			"type":"SCALAR"
		}
	],
	"bufferViews":[
		{
			"buffer":0,
			"byteLength":36420,
			"byteOffset":0,
			"target":34962
		},
		{
			"buffer":0,
			"byteLength":36420,
			"byteOffset":36420,
			"target":34962
		},
		{
			"buffer":0,
			"byteLength":24280,
			"byteOffset":72840,
			"target":34962
		},
		{
			"buffer":0,
			"byteLength":30264,
			"byteOffset":97120,
			"target":34963
		},
		{
			"buffer":0,
			"byteLength":210612,
			"byteOffset":127384,
			"target":34962
		},
		{
			"buffer":0,
			"byteLength":210612,
			"byteOffset":337996,
			"target":34962
		},
		{
			"buffer":0,
			"byteLength":140408,
			"byteOffset":548608,
			"target":34962
		},
		{
			"buffer":0,
			"byteLength":196536,
			"byteOffset":689016,
			"target":34963
		},
		{
			"buffer":0,
			"byteLength":14748,
			"byteOffset":885552,
			"target":34962
		},
		{
			"buffer":0,
			"byteLength":14748,
			"byteOffset":900300,
			"target":34962
		},
		{
			"buffer":0,
			"byteLength":9832,
			"byteOffset":915048,
			"target":34962
		},
		{
			"buffer":0,
			"byteLength":12876,
			"byteOffset":924880,
			"target":34963
		},
		{
			"buffer":0,
			"byteLength":14724,
			"byteOffset":937756,
			"target":34962
		},
		{
			"buffer":0,
			"byteLength":14724,
			"byteOffset":952480,
			"target":34962
		},
		{
			"buffer":0,
			"byteLength":9816,
			"byteOffset":967204,
			"target":34962
		},
		{
			"buffer":0,
			"byteLength":12852,
			"byteOffset":977020,
			"target":34963
		},
		{
			"buffer":0,
			"byteLength":4392,
			"byteOffset":989872,
			"target":34962
		},
		{
			"buffer":0,
			"byteLength":4392,
			"byteOffset":994264,
			"target":34962
		},
		{
			"buffer":0,
			"byteLength":2928,
			"byteOffset":998656,
			"target":34962
		},
		{
			"buffer":0,
			"byteLength":3312,
			"byteOffset":1001584,
			"target":34963
		},
		{
			"buffer":0,
			"byteLength":5928,
			"byteOffset":1004896,
			"target":34962
		},
		{
			"buffer":0,
			"byteLength":5928,
			"byteOffset":1010824,
			"target":34962
		},
		{
			"buffer":0,
			"byteLength":3952,
			"byteOffset":1016752,
			"target":34962
		},
		{
			"buffer":0,
			"byteLength":4008,
			"byteOffset":1020704,
			"target":34963
		},
		{
			"buffer":0,
			"byteLength":224448,
			"byteOffset":1024712,
			"target":34962
		},
		{
			"buffer":0,
			"byteLength":224448,
			"byteOffset":1249160,
			"target":34962
		},
		{
			"buffer":0,
			"byteLength":149632,
			"byteOffset":1473608,
			"target":34962
		},
		{
			"buffer":0,
			"byteLength":211728,
			"byteOffset":1623240,
			"target":34963
		},
		{
			"buffer":0,
			"byteLength":20304,
			"byteOffset":1834968,
			"target":34962
		},
		{
			"buffer":0,
			"byteLength":20304,
			"byteOffset":1855272,
			"target":34962
		},
		{
			"buffer":0,
			"byteLength":13536,
			"byteOffset":1875576,
			"target":34962
		},
		{
			"buffer":0,
			"byteLength":16632,
			"byteOffset":1889112,
			"target":34963
		},
		{
			"buffer":0,
			"byteLength":208416,
			"byteOffset":1905744,
			"target":34962
		},
		{
			"buffer":0,
			"byteLength":208416,
			"byteOffset":2114160,
			"target":34962
		},
		{
			"buffer":0,
			"byteLength":138944,
			"byteOffset":2322576,
			"target":34962
		},
		{
			"buffer":0,
			"byteLength":194772,
			"byteOffset":2461520,
			"target":34963
		},
		{
			"buffer":0,
			"byteLength":224208,
			"byteOffset":2656292,
			"target":34962
		},
		{
			"buffer":0,
			"byteLength":224208,
			"byteOffset":2880500,
			"target":34962
		},
		{
			"buffer":0,
			"byteLength":149472,
			"byteOffset":3104708,
			"target":34962
		},
		{
			"buffer":0,
			"byteLength":211536,
			"byteOffset":3254180,
			"target":34963
		},
		{
			"buffer":0,
			"byteLength":21192,
			"byteOffset":3465716,
			"target":34962
		},
		{
			"buffer":0,
			"byteLength":21192,
			"byteOffset":3486908,
			"target":34962
		},
		{
			"buffer":0,
			"byteLength":14128,
			"byteOffset":3508100,
			"target":34962
		},
		{
			"buffer":0,
			"byteLength":20736,
			"byteOffset":3522228,
			"target":34963
		},
		{
			"buffer":0,
			"byteLength":93312,
			"byteOffset":3542964,
			"target":34962
		},
		{
			"buffer":0,
			"byteLength":93312,
			"byteOffset":3636276,
			"target":34962
		},
		{
			"buffer":0,
			"byteLength":62208,
			"byteOffset":3729588,
			"target":34962
		},
		{
			"buffer":0,
			"byteLength":86112,
			"byteOffset":3791796,
			"target":34963
		}
	],
	"buffers":[
		{
			"byteLength":3877908,
			"uri":"Jeans%20Female%2022.bin"
		}
	]
}
