{
	"asset":{
		"generator":"Khronos glTF Blender I/O v4.2.57",
		"version":"2.0"
	},
	"extensionsUsed":[
		"KHR_materials_specular"
	],
	"scene":0,
	"scenes":[
		{
			"name":"Scene",
			"nodes":[
				1
			]
		}
	],
	"nodes":[
		{
			"mesh":0,
			"name":"Cloth"
		},
		{
			"children":[
				0
			],
			"name":"L_Scene_Node"
		}
	],
	"materials":[
		{
			"extensions":{
				"KHR_materials_specular":{
					"specularFactor":0.15000000596046448
				}
			},
			"name":"FABRIC 1_1947"
		},
		{
			"extensions":{
				"KHR_materials_specular":{
					"specularFactor":0.15000000596046448
				}
			},
			"name":"FABRIC 1 Copy 4_909766"
		},
		{
			"extensions":{
				"KHR_materials_specular":{
					"specularFactor":0.15000000596046448
				}
			},
			"name":"FABRIC 1 Copy 2_909154"
		},
		{
			"extensions":{
				"KHR_materials_specular":{
					"specularFactor":0.15000000596046448
				}
			},
			"name":"FABRIC 1 Copy 3_909532"
		},
		{
			"extensions":{
				"KHR_materials_specular":{
					"specularFactor":0.15000000596046448
				}
			},
			"name":"FABRIC 1 Copy 1_909098"
		},
		{
			"extensions":{
				"KHR_materials_specular":{
					"specularFactor":0.15000000596046448
				}
			},
			"name":"FABRIC 1 Copy 5_909866"
		}
	],
	"meshes":[
		{
			"name":"Cloth_mesh",
			"primitives":[
				{
					"attributes":{
						"POSITION":0,
						"NORMAL":1,
						"TEXCOORD_0":2
					},
					"indices":3,
					"material":0
				},
				{
					"attributes":{
						"POSITION":4,
						"NORMAL":5,
						"TEXCOORD_0":6
					},
					"indices":7,
					"material":1
				},
				{
					"attributes":{
						"POSITION":8,
						"NORMAL":9,
						"TEXCOORD_0":10
					},
					"indices":11,
					"material":2
				},
				{
					"attributes":{
						"POSITION":12,
						"NORMAL":13,
						"TEXCOORD_0":14
					},
					"indices":15,
					"material":3
				},
				{
					"attributes":{
						"POSITION":16,
						"NORMAL":17,
						"TEXCOORD_0":18
					},
					"indices":19,
					"material":4
				},
				{
					"attributes":{
						"POSITION":20,
						"NORMAL":21,
						"TEXCOORD_0":22
					},
					"indices":23,
					"material":5
				}
			]
		}
	],
	"accessors":[
		{
			"bufferView":0,
			"componentType":5126,
			"count":3976,
			"max":[
				1.7134778499603271,
				5.047411918640137,
				1.5156456232070923
			],
			"min":[
				-1.7306809425354004,
				4.002727508544922,
				0.16240821778774261
			],
			"type":"VEC3"
		},
		{
			"bufferView":1,
			"componentType":5126,
			"count":3976,
			"type":"VEC3"
		},
		{
			"bufferView":2,
			"componentType":5126,
			"count":3976,
			"type":"VEC2"
		},
		{
			"bufferView":3,
			"componentType":5123,
			"count":20928,
			"type":"SCALAR"
		},
		{
			"bufferView":4,
			"componentType":5126,
			"count":8724,
			"max":[
				2.023003339767456,
				4.415314674377441,
				0.23879148066043854
			],
			"min":[
				-0.04589199274778366,
				-6.54050350189209,
				-1.1993950605392456
			],
			"type":"VEC3"
		},
		{
			"bufferView":5,
			"componentType":5126,
			"count":8724,
			"type":"VEC3"
		},
		{
			"bufferView":6,
			"componentType":5126,
			"count":8724,
			"type":"VEC2"
		},
		{
			"bufferView":7,
			"componentType":5123,
			"count":48660,
			"type":"SCALAR"
		},
		{
			"bufferView":8,
			"componentType":5126,
			"count":9017,
			"max":[
				-0.0017618245910853148,
				4.390824317932129,
				1.4428210258483887
			],
			"min":[
				-2.030585289001465,
				-6.555804252624512,
				-0.6305924654006958
			],
			"type":"VEC3"
		},
		{
			"bufferView":9,
			"componentType":5126,
			"count":9017,
			"type":"VEC3"
		},
		{
			"bufferView":10,
			"componentType":5126,
			"count":9017,
			"type":"VEC2"
		},
		{
			"bufferView":11,
			"componentType":5123,
			"count":50316,
			"type":"SCALAR"
		},
		{
			"bufferView":12,
			"componentType":5126,
			"count":8748,
			"max":[
				0.012965993024408817,
				4.429803848266602,
				0.2474307268857956
			],
			"min":[
				-2.0304007530212402,
				-6.512945175170898,
				-1.2022879123687744
			],
			"type":"VEC3"
		},
		{
			"bufferView":13,
			"componentType":5126,
			"count":8748,
			"type":"VEC3"
		},
		{
			"bufferView":14,
			"componentType":5126,
			"count":8748,
			"type":"VEC2"
		},
		{
			"bufferView":15,
			"componentType":5123,
			"count":48804,
			"type":"SCALAR"
		},
		{
			"bufferView":16,
			"componentType":5126,
			"count":9031,
			"max":[
				2.0230789184570312,
				4.394086837768555,
				1.4457124471664429
			],
			"min":[
				-0.036415886133909225,
				-6.586331367492676,
				-0.6662731170654297
			],
			"type":"VEC3"
		},
		{
			"bufferView":17,
			"componentType":5126,
			"count":9031,
			"type":"VEC3"
		},
		{
			"bufferView":18,
			"componentType":5126,
			"count":9031,
			"type":"VEC2"
		},
		{
			"bufferView":19,
			"componentType":5123,
			"count":50400,
			"type":"SCALAR"
		},
		{
			"bufferView":20,
			"componentType":5126,
			"count":3500,
			"max":[
				1.6943295001983643,
				5.083250999450684,
				0.3528508245944977
			],
			"min":[
				-1.7086035013198853,
				4.294816970825195,
				-0.8226989507675171
			],
			"type":"VEC3"
		},
		{
			"bufferView":21,
			"componentType":5126,
			"count":3500,
			"type":"VEC3"
		},
		{
			"bufferView":22,
			"componentType":5126,
			"count":3500,
			"type":"VEC2"
		},
		{
			"bufferView":23,
			"componentType":5123,
			"count":18264,
			"type":"SCALAR"
		}
	],
	"bufferViews":[
		{
			"buffer":0,
			"byteLength":47712,
			"byteOffset":0,
			"target":34962
		},
		{
			"buffer":0,
			"byteLength":47712,
			"byteOffset":47712,
			"target":34962
		},
		{
			"buffer":0,
			"byteLength":31808,
			"byteOffset":95424,
			"target":34962
		},
		{
			"buffer":0,
			"byteLength":41856,
			"byteOffset":127232,
			"target":34963
		},
		{
			"buffer":0,
			"byteLength":104688,
			"byteOffset":169088,
			"target":34962
		},
		{
			"buffer":0,
			"byteLength":104688,
			"byteOffset":273776,
			"target":34962
		},
		{
			"buffer":0,
			"byteLength":69792,
			"byteOffset":378464,
			"target":34962
		},
		{
			"buffer":0,
			"byteLength":97320,
			"byteOffset":448256,
			"target":34963
		},
		{
			"buffer":0,
			"byteLength":108204,
			"byteOffset":545576,
			"target":34962
		},
		{
			"buffer":0,
			"byteLength":108204,
			"byteOffset":653780,
			"target":34962
		},
		{
			"buffer":0,
			"byteLength":72136,
			"byteOffset":761984,
			"target":34962
		},
		{
			"buffer":0,
			"byteLength":100632,
			"byteOffset":834120,
			"target":34963
		},
		{
			"buffer":0,
			"byteLength":104976,
			"byteOffset":934752,
			"target":34962
		},
		{
			"buffer":0,
			"byteLength":104976,
			"byteOffset":1039728,
			"target":34962
		},
		{
			"buffer":0,
			"byteLength":69984,
			"byteOffset":1144704,
			"target":34962
		},
		{
			"buffer":0,
			"byteLength":97608,
			"byteOffset":1214688,
			"target":34963
		},
		{
			"buffer":0,
			"byteLength":108372,
			"byteOffset":1312296,
			"target":34962
		},
		{
			"buffer":0,
			"byteLength":108372,
			"byteOffset":1420668,
			"target":34962
		},
		{
			"buffer":0,
			"byteLength":72248,
			"byteOffset":1529040,
			"target":34962
		},
		{
			"buffer":0,
			"byteLength":100800,
			"byteOffset":1601288,
			"target":34963
		},
		{
			"buffer":0,
			"byteLength":42000,
			"byteOffset":1702088,
			"target":34962
		},
		{
			"buffer":0,
			"byteLength":42000,
			"byteOffset":1744088,
			"target":34962
		},
		{
			"buffer":0,
			"byteLength":28000,
			"byteOffset":1786088,
			"target":34962
		},
		{
			"buffer":0,
			"byteLength":36528,
			"byteOffset":1814088,
			"target":34963
		}
	],
	"buffers":[
		{
			"byteLength":1850616,
			"uri":"Leggins.bin"
		}
	]
}
