{
	"asset":{
		"generator":"Khronos glTF Blender I/O v4.2.57",
		"version":"2.0"
	},
	"extensionsUsed":[
		"KHR_materials_specular"
	],
	"scene":0,
	"scenes":[
		{
			"name":"Scene",
			"nodes":[
				0,
				1,
				4,
				5,
				6,
				7,
				8,
				9,
				11
			]
		}
	],
	"nodes":[
		{
			"name":"f_Scene_Node"
		},
		{
			"name":"Sw_Scene_Node"
		},
		{
			"mesh":0,
			"name":"_mesh.001",
			"translation":[
				0,
				0.00040439455187879503,
				0.02618892304599285
			]
		},
		{
			"children":[
				2
			],
			"mesh":1,
			"name":"_mesh"
		},
		{
			"children":[
				3
			],
			"name":"Slider_1",
			"rotation":[
				0.2969559133052826,
				-0.04477011039853096,
				-0.012962482869625092,
				0.9537530541419983
			],
			"translation":[
				0.02074691653251648,
				16.083343505859375,
				0.8804266452789307
			]
		},
		{
			"mesh":2,
			"name":"_mesh.002",
			"rotation":[
				0.2877342104911804,
				-0.04169217497110367,
				-0.011552579700946808,
				0.9567326307296753
			],
			"translation":[
				0.020597534254193306,
				16.149303436279297,
				0.9247442483901978
			]
		},
		{
			"mesh":3,
			"name":"_mesh.003",
			"rotation":[
				0.2869822084903717,
				0.07661403715610504,
				0.024021482095122337,
				0.9545651078224182
			],
			"translation":[
				0.02059783972799778,
				16.149301528930664,
				0.9247424006462097
			]
		},
		{
			"mesh":4,
			"name":"_mesh.004",
			"rotation":[
				-0.09192422032356262,
				0.005641579627990723,
				4.95934255013708e-05,
				0.9957500100135803
			],
			"translation":[
				0.03951771557331085,
				13.99946403503418,
				1.0118849277496338
			]
		},
		{
			"mesh":5,
			"name":"_mesh.005",
			"rotation":[
				-0.09187190979719162,
				-0.02665623463690281,
				0.0030310810543596745,
				0.995409369468689
			],
			"translation":[
				0.03951822221279144,
				13.99946117401123,
				1.0118844509124756
			]
		},
		{
			"name":"ss_Scene_Node"
		},
		{
			"mesh":6,
			"name":"Cloth"
		},
		{
			"children":[
				10
			],
			"name":"t_Scene_Node"
		}
	],
	"materials":[
		{
			"extensions":{
				"KHR_materials_specular":{
					"specularFactor":0.15000000596046448
				}
			},
			"name":"Zipper 2_11057968"
		},
		{
			"extensions":{
				"KHR_materials_specular":{
					"specularFactor":0.15000000596046448
				}
			},
			"name":"Zipper 2_11057961"
		},
		{
			"extensions":{
				"KHR_materials_specular":{
					"specularFactor":0.15000000596046448
				}
			},
			"name":"Zipper 2_11057975"
		},
		{
			"extensions":{
				"KHR_materials_specular":{
					"specularFactor":0.15000000596046448
				}
			},
			"name":"Zipper 2_11057981"
		},
		{
			"extensions":{
				"KHR_materials_specular":{
					"specularFactor":0.15000000596046448
				}
			},
			"name":"Zipper 2_11057988"
		},
		{
			"extensions":{
				"KHR_materials_specular":{
					"specularFactor":0.15000000596046448
				}
			},
			"name":"Zipper 2_11057994"
		},
		{
			"extensions":{
				"KHR_materials_specular":{
					"specularFactor":0.12999999523162842
				}
			},
			"name":"Knit_Ponte_Jersey Copy 3_11547048"
		},
		{
			"extensions":{
				"KHR_materials_specular":{
					"specularFactor":0.12999999523162842
				}
			},
			"name":"Knit_Ponte_Jersey Copy 1_11546255"
		},
		{
			"extensions":{
				"KHR_materials_specular":{
					"specularFactor":0.12999999523162842
				}
			},
			"name":"Knit_Ponte_Jersey Copy 2_11546598"
		},
		{
			"extensions":{
				"KHR_materials_specular":{
					"specularFactor":0.12999999523162842
				}
			},
			"name":"Knit_Ponte_Jersey Copy 4_11547199"
		},
		{
			"extensions":{
				"KHR_materials_specular":{
					"specularFactor":0.12999999523162842
				}
			},
			"name":"Knit_Ponte_Jersey_11356679"
		}
	],
	"meshes":[
		{
			"name":"_mesh.001",
			"primitives":[
				{
					"attributes":{
						"POSITION":0,
						"NORMAL":1,
						"TEXCOORD_0":2
					},
					"indices":3,
					"material":0
				}
			]
		},
		{
			"name":"_mesh",
			"primitives":[
				{
					"attributes":{
						"POSITION":4,
						"NORMAL":5,
						"TEXCOORD_0":6
					},
					"indices":7,
					"material":1
				}
			]
		},
		{
			"name":"_mesh.002",
			"primitives":[
				{
					"attributes":{
						"POSITION":8,
						"NORMAL":9,
						"TEXCOORD_0":10
					},
					"indices":11,
					"material":2
				}
			]
		},
		{
			"name":"_mesh.003",
			"primitives":[
				{
					"attributes":{
						"POSITION":12,
						"NORMAL":13,
						"TEXCOORD_0":14
					},
					"indices":15,
					"material":3
				}
			]
		},
		{
			"name":"_mesh.004",
			"primitives":[
				{
					"attributes":{
						"POSITION":16,
						"NORMAL":17,
						"TEXCOORD_0":18
					},
					"indices":19,
					"material":4
				}
			]
		},
		{
			"name":"_mesh.005",
			"primitives":[
				{
					"attributes":{
						"POSITION":20,
						"NORMAL":21,
						"TEXCOORD_0":22
					},
					"indices":23,
					"material":5
				}
			]
		},
		{
			"name":"Cloth_mesh.004",
			"primitives":[
				{
					"attributes":{
						"POSITION":24,
						"NORMAL":25,
						"TEXCOORD_0":26
					},
					"indices":27,
					"material":6
				},
				{
					"attributes":{
						"POSITION":28,
						"NORMAL":29,
						"TEXCOORD_0":30
					},
					"indices":31,
					"material":7
				},
				{
					"attributes":{
						"POSITION":32,
						"NORMAL":33,
						"TEXCOORD_0":34
					},
					"indices":35,
					"material":8
				},
				{
					"attributes":{
						"POSITION":36,
						"NORMAL":37,
						"TEXCOORD_0":38
					},
					"indices":39,
					"material":9
				},
				{
					"attributes":{
						"POSITION":40,
						"NORMAL":41,
						"TEXCOORD_0":42
					},
					"indices":43,
					"material":10
				}
			]
		}
	],
	"accessors":[
		{
			"bufferView":0,
			"componentType":5126,
			"count":726,
			"max":[
				0.04535788297653198,
				0.005001068115234375,
				0.0031404495239257812
			],
			"min":[
				-0.04535788297653198,
				-0.1555328369140625,
				-0.0031404495239257812
			],
			"type":"VEC3"
		},
		{
			"bufferView":1,
			"componentType":5126,
			"count":726,
			"type":"VEC3"
		},
		{
			"bufferView":2,
			"componentType":5126,
			"count":726,
			"type":"VEC2"
		},
		{
			"bufferView":3,
			"componentType":5123,
			"count":3480,
			"type":"SCALAR"
		},
		{
			"bufferView":4,
			"componentType":5126,
			"count":507,
			"max":[
				0.04215598106384277,
				0.07941150665283203,
				0.04529571533203125
			],
			"min":[
				-0.04215598106384277,
				-0.028280258178710938,
				-0.020673751831054688
			],
			"type":"VEC3"
		},
		{
			"bufferView":5,
			"componentType":5126,
			"count":507,
			"type":"VEC3"
		},
		{
			"bufferView":6,
			"componentType":5126,
			"count":507,
			"type":"VEC2"
		},
		{
			"bufferView":7,
			"componentType":5123,
			"count":2472,
			"type":"SCALAR"
		},
		{
			"bufferView":8,
			"componentType":5126,
			"count":1133,
			"max":[
				0.005453884601593018,
				2.86102294921875e-06,
				0.008988380432128906
			],
			"min":[
				-0.021362483501434326,
				-0.034171104431152344,
				-0.0089874267578125
			],
			"type":"VEC3"
		},
		{
			"bufferView":9,
			"componentType":5126,
			"count":1133,
			"type":"VEC3"
		},
		{
			"bufferView":10,
			"componentType":5126,
			"count":1133,
			"type":"VEC2"
		},
		{
			"bufferView":11,
			"componentType":5123,
			"count":2340,
			"type":"SCALAR"
		},
		{
			"bufferView":12,
			"componentType":5126,
			"count":1134,
			"max":[
				0.021362781524658203,
				0,
				0.008988380432128906
			],
			"min":[
				-0.005453705787658691,
				-0.03417396545410156,
				-0.0089874267578125
			],
			"type":"VEC3"
		},
		{
			"bufferView":13,
			"componentType":5126,
			"count":1134,
			"type":"VEC3"
		},
		{
			"bufferView":14,
			"componentType":5126,
			"count":1134,
			"type":"VEC2"
		},
		{
			"bufferView":15,
			"componentType":5123,
			"count":2340,
			"type":"SCALAR"
		},
		{
			"bufferView":16,
			"componentType":5126,
			"count":1305,
			"max":[
				0.023214612156152725,
				0.028703689575195312,
				0.01089167594909668
			],
			"min":[
				-0.02355540171265602,
				-0.03615283966064453,
				-0.01089167594909668
			],
			"type":"VEC3"
		},
		{
			"bufferView":17,
			"componentType":5126,
			"count":1305,
			"type":"VEC3"
		},
		{
			"bufferView":18,
			"componentType":5126,
			"count":1305,
			"type":"VEC2"
		},
		{
			"bufferView":19,
			"componentType":5123,
			"count":5088,
			"type":"SCALAR"
		},
		{
			"bufferView":20,
			"componentType":5126,
			"count":714,
			"max":[
				0.019555702805519104,
				0.03768157958984375,
				0.005934476852416992
			],
			"min":[
				0.00042967498302459717,
				-0.0299835205078125,
				-0.0057833194732666016
			],
			"type":"VEC3"
		},
		{
			"bufferView":21,
			"componentType":5126,
			"count":714,
			"type":"VEC3"
		},
		{
			"bufferView":22,
			"componentType":5126,
			"count":714,
			"type":"VEC2"
		},
		{
			"bufferView":23,
			"componentType":5123,
			"count":2778,
			"type":"SCALAR"
		},
		{
			"bufferView":24,
			"componentType":5126,
			"count":3872,
			"max":[
				1.2976300716400146,
				-1.592402458190918,
				1.555405855178833
			],
			"min":[
				-1.305361270904541,
				-2.2165870666503906,
				-0.4126303195953369
			],
			"type":"VEC3"
		},
		{
			"bufferView":25,
			"componentType":5126,
			"count":3872,
			"type":"VEC3"
		},
		{
			"bufferView":26,
			"componentType":5126,
			"count":3872,
			"type":"VEC2"
		},
		{
			"bufferView":27,
			"componentType":5123,
			"count":20502,
			"type":"SCALAR"
		},
		{
			"bufferView":28,
			"componentType":5126,
			"count":23928,
			"max":[
				1.7209059000015259,
				1.7346172332763672,
				1.7212016582489014
			],
			"min":[
				-1.7072328329086304,
				-1.8089027404785156,
				-0.4657292366027832
			],
			"type":"VEC3"
		},
		{
			"bufferView":29,
			"componentType":5126,
			"count":23928,
			"type":"VEC3"
		},
		{
			"bufferView":30,
			"componentType":5126,
			"count":23928,
			"type":"VEC2"
		},
		{
			"bufferView":31,
			"componentType":5123,
			"count":136716,
			"type":"SCALAR"
		},
		{
			"bufferView":32,
			"componentType":5126,
			"count":26712,
			"max":[
				1.6845322847366333,
				1.7239532470703125,
				0.736272394657135
			],
			"min":[
				-1.6736658811569214,
				-2.1142845153808594,
				-1.0707788467407227
			],
			"type":"VEC3"
		},
		{
			"bufferView":33,
			"componentType":5126,
			"count":26712,
			"type":"VEC3"
		},
		{
			"bufferView":34,
			"componentType":5126,
			"count":26712,
			"type":"VEC2"
		},
		{
			"bufferView":35,
			"componentType":5123,
			"count":150144,
			"type":"SCALAR"
		},
		{
			"bufferView":36,
			"componentType":5126,
			"count":9742,
			"max":[
				2.329765796661377,
				1.351156234741211,
				0.4122931659221649
			],
			"min":[
				1.406413197517395,
				-0.5976943969726562,
				-0.8307363390922546
			],
			"type":"VEC3"
		},
		{
			"bufferView":37,
			"componentType":5126,
			"count":9742,
			"type":"VEC3"
		},
		{
			"bufferView":38,
			"componentType":5126,
			"count":9742,
			"type":"VEC2"
		},
		{
			"bufferView":39,
			"componentType":5123,
			"count":55704,
			"type":"SCALAR"
		},
		{
			"bufferView":40,
			"componentType":5126,
			"count":9736,
			"max":[
				-1.4082574844360352,
				1.344064712524414,
				0.40941768884658813
			],
			"min":[
				-2.3315770626068115,
				-0.5999698638916016,
				-0.8329948782920837
			],
			"type":"VEC3"
		},
		{
			"bufferView":41,
			"componentType":5126,
			"count":9736,
			"type":"VEC3"
		},
		{
			"bufferView":42,
			"componentType":5126,
			"count":9736,
			"type":"VEC2"
		},
		{
			"bufferView":43,
			"componentType":5123,
			"count":55668,
			"type":"SCALAR"
		}
	],
	"bufferViews":[
		{
			"buffer":0,
			"byteLength":8712,
			"byteOffset":0,
			"target":34962
		},
		{
			"buffer":0,
			"byteLength":8712,
			"byteOffset":8712,
			"target":34962
		},
		{
			"buffer":0,
			"byteLength":5808,
			"byteOffset":17424,
			"target":34962
		},
		{
			"buffer":0,
			"byteLength":6960,
			"byteOffset":23232,
			"target":34963
		},
		{
			"buffer":0,
			"byteLength":6084,
			"byteOffset":30192,
			"target":34962
		},
		{
			"buffer":0,
			"byteLength":6084,
			"byteOffset":36276,
			"target":34962
		},
		{
			"buffer":0,
			"byteLength":4056,
			"byteOffset":42360,
			"target":34962
		},
		{
			"buffer":0,
			"byteLength":4944,
			"byteOffset":46416,
			"target":34963
		},
		{
			"buffer":0,
			"byteLength":13596,
			"byteOffset":51360,
			"target":34962
		},
		{
			"buffer":0,
			"byteLength":13596,
			"byteOffset":64956,
			"target":34962
		},
		{
			"buffer":0,
			"byteLength":9064,
			"byteOffset":78552,
			"target":34962
		},
		{
			"buffer":0,
			"byteLength":4680,
			"byteOffset":87616,
			"target":34963
		},
		{
			"buffer":0,
			"byteLength":13608,
			"byteOffset":92296,
			"target":34962
		},
		{
			"buffer":0,
			"byteLength":13608,
			"byteOffset":105904,
			"target":34962
		},
		{
			"buffer":0,
			"byteLength":9072,
			"byteOffset":119512,
			"target":34962
		},
		{
			"buffer":0,
			"byteLength":4680,
			"byteOffset":128584,
			"target":34963
		},
		{
			"buffer":0,
			"byteLength":15660,
			"byteOffset":133264,
			"target":34962
		},
		{
			"buffer":0,
			"byteLength":15660,
			"byteOffset":148924,
			"target":34962
		},
		{
			"buffer":0,
			"byteLength":10440,
			"byteOffset":164584,
			"target":34962
		},
		{
			"buffer":0,
			"byteLength":10176,
			"byteOffset":175024,
			"target":34963
		},
		{
			"buffer":0,
			"byteLength":8568,
			"byteOffset":185200,
			"target":34962
		},
		{
			"buffer":0,
			"byteLength":8568,
			"byteOffset":193768,
			"target":34962
		},
		{
			"buffer":0,
			"byteLength":5712,
			"byteOffset":202336,
			"target":34962
		},
		{
			"buffer":0,
			"byteLength":5556,
			"byteOffset":208048,
			"target":34963
		},
		{
			"buffer":0,
			"byteLength":46464,
			"byteOffset":213604,
			"target":34962
		},
		{
			"buffer":0,
			"byteLength":46464,
			"byteOffset":260068,
			"target":34962
		},
		{
			"buffer":0,
			"byteLength":30976,
			"byteOffset":306532,
			"target":34962
		},
		{
			"buffer":0,
			"byteLength":41004,
			"byteOffset":337508,
			"target":34963
		},
		{
			"buffer":0,
			"byteLength":287136,
			"byteOffset":378512,
			"target":34962
		},
		{
			"buffer":0,
			"byteLength":287136,
			"byteOffset":665648,
			"target":34962
		},
		{
			"buffer":0,
			"byteLength":191424,
			"byteOffset":952784,
			"target":34962
		},
		{
			"buffer":0,
			"byteLength":273432,
			"byteOffset":1144208,
			"target":34963
		},
		{
			"buffer":0,
			"byteLength":320544,
			"byteOffset":1417640,
			"target":34962
		},
		{
			"buffer":0,
			"byteLength":320544,
			"byteOffset":1738184,
			"target":34962
		},
		{
			"buffer":0,
			"byteLength":213696,
			"byteOffset":2058728,
			"target":34962
		},
		{
			"buffer":0,
			"byteLength":300288,
			"byteOffset":2272424,
			"target":34963
		},
		{
			"buffer":0,
			"byteLength":116904,
			"byteOffset":2572712,
			"target":34962
		},
		{
			"buffer":0,
			"byteLength":116904,
			"byteOffset":2689616,
			"target":34962
		},
		{
			"buffer":0,
			"byteLength":77936,
			"byteOffset":2806520,
			"target":34962
		},
		{
			"buffer":0,
			"byteLength":111408,
			"byteOffset":2884456,
			"target":34963
		},
		{
			"buffer":0,
			"byteLength":116832,
			"byteOffset":2995864,
			"target":34962
		},
		{
			"buffer":0,
			"byteLength":116832,
			"byteOffset":3112696,
			"target":34962
		},
		{
			"buffer":0,
			"byteLength":77888,
			"byteOffset":3229528,
			"target":34962
		},
		{
			"buffer":0,
			"byteLength":111336,
			"byteOffset":3307416,
			"target":34963
		}
	],
	"buffers":[
		{
			"byteLength":3418752,
			"uri":"Top%20female3.bin"
		}
	]
}
