{
	"asset":{
		"generator":"Khronos glTF Blender I/O v4.2.57",
		"version":"2.0"
	},
	"extensionsUsed":[
		"KHR_materials_specular"
	],
	"scene":0,
	"scenes":[
		{
			"name":"Scene",
			"nodes":[
				1
			]
		}
	],
	"nodes":[
		{
			"mesh":0,
			"name":"Cloth"
		},
		{
			"children":[
				0
			],
			"name":"H_Scene_Node"
		}
	],
	"materials":[
		{
			"extensions":{
				"KHR_materials_specular":{
					"specularFactor":0.15000000596046448
				}
			},
			"name":"Rib_2X2_468gsm_2539121"
		},
		{
			"extensions":{
				"KHR_materials_specular":{
					"specularFactor":0.15000000596046448
				}
			},
			"name":"Rib_2X2_468gsm Copy 1_2539129"
		}
	],
	"meshes":[
		{
			"name":"Cloth_mesh",
			"primitives":[
				{
					"attributes":{
						"POSITION":0,
						"NORMAL":1,
						"TEXCOORD_0":2
					},
					"indices":3,
					"material":0
				},
				{
					"attributes":{
						"POSITION":4,
						"NORMAL":5,
						"TEXCOORD_0":6
					},
					"indices":7,
					"material":1
				}
			]
		}
	],
	"accessors":[
		{
			"bufferView":0,
			"componentType":5126,
			"count":12390,
			"max":[
				0.8445282578468323,
				1.0043635368347168,
				1.1235483884811401
			],
			"min":[
				-0.844671368598938,
				-0.6556991338729858,
				-0.30317234992980957
			],
			"type":"VEC3"
		},
		{
			"bufferView":1,
			"componentType":5126,
			"count":12390,
			"type":"VEC3"
		},
		{
			"bufferView":2,
			"componentType":5126,
			"count":12390,
			"type":"VEC2"
		},
		{
			"bufferView":3,
			"componentType":5123,
			"count":70956,
			"type":"SCALAR"
		},
		{
			"bufferView":4,
			"componentType":5126,
			"count":12774,
			"max":[
				0.8524048328399658,
				1.003089189529419,
				0.23373091220855713
			],
			"min":[
				-0.8448200225830078,
				-0.8396503329277039,
				-0.9112622737884521
			],
			"type":"VEC3"
		},
		{
			"bufferView":5,
			"componentType":5126,
			"count":12774,
			"type":"VEC3"
		},
		{
			"bufferView":6,
			"componentType":5126,
			"count":12774,
			"type":"VEC2"
		},
		{
			"bufferView":7,
			"componentType":5123,
			"count":73284,
			"type":"SCALAR"
		}
	],
	"bufferViews":[
		{
			"buffer":0,
			"byteLength":148680,
			"byteOffset":0,
			"target":34962
		},
		{
			"buffer":0,
			"byteLength":148680,
			"byteOffset":148680,
			"target":34962
		},
		{
			"buffer":0,
			"byteLength":99120,
			"byteOffset":297360,
			"target":34962
		},
		{
			"buffer":0,
			"byteLength":141912,
			"byteOffset":396480,
			"target":34963
		},
		{
			"buffer":0,
			"byteLength":153288,
			"byteOffset":538392,
			"target":34962
		},
		{
			"buffer":0,
			"byteLength":153288,
			"byteOffset":691680,
			"target":34962
		},
		{
			"buffer":0,
			"byteLength":102192,
			"byteOffset":844968,
			"target":34962
		},
		{
			"buffer":0,
			"byteLength":146568,
			"byteOffset":947160,
			"target":34963
		}
	],
	"buffers":[
		{
			"byteLength":1093728,
			"uri":"Hat1.bin"
		}
	]
}
