{
	"asset":{
		"generator":"Khronos glTF Blender I/O v4.2.57",
		"version":"2.0"
	},
	"extensionsUsed":[
		"KHR_materials_specular"
	],
	"scene":0,
	"scenes":[
		{
			"name":"Scene",
			"nodes":[
				1
			]
		}
	],
	"nodes":[
		{
			"mesh":0,
			"name":"Cloth"
		},
		{
			"children":[
				0
			],
			"name":"mi_Scene_Node"
		}
	],
	"materials":[
		{
			"extensions":{
				"KHR_materials_specular":{
					"specularFactor":0.15000000596046448
				}
			},
			"name":"Silk_Duchess_Satin Copy 3_4613026"
		},
		{
			"extensions":{
				"KHR_materials_specular":{
					"specularFactor":0.15000000596046448
				}
			},
			"name":"Silk_Duchess_Satin_4176493"
		},
		{
			"extensions":{
				"KHR_materials_specular":{
					"specularFactor":0.15000000596046448
				}
			},
			"name":"Silk_Duchess_Satin Copy 2_4612874"
		},
		{
			"extensions":{
				"KHR_materials_specular":{
					"specularFactor":0.15000000596046448
				}
			},
			"name":"Silk_Duchess_Satin Copy 1_4612546"
		}
	],
	"meshes":[
		{
			"name":"Cloth_mesh",
			"primitives":[
				{
					"attributes":{
						"POSITION":0,
						"NORMAL":1,
						"TEXCOORD_0":2
					},
					"indices":3,
					"material":0
				},
				{
					"attributes":{
						"POSITION":4,
						"NORMAL":5,
						"TEXCOORD_0":6
					},
					"indices":7,
					"material":1
				},
				{
					"attributes":{
						"POSITION":8,
						"NORMAL":9,
						"TEXCOORD_0":10
					},
					"indices":11,
					"material":2
				},
				{
					"attributes":{
						"POSITION":12,
						"NORMAL":13,
						"TEXCOORD_0":14
					},
					"indices":15,
					"material":3
				}
			]
		}
	],
	"accessors":[
		{
			"bufferView":0,
			"componentType":5126,
			"count":1752,
			"max":[
				1.2423521280288696,
				2.578592300415039,
				1.1216697692871094
			],
			"min":[
				-1.285013198852539,
				2.2164926528930664,
				0.1792289912700653
			],
			"type":"VEC3"
		},
		{
			"bufferView":1,
			"componentType":5126,
			"count":1752,
			"type":"VEC3"
		},
		{
			"bufferView":2,
			"componentType":5126,
			"count":1752,
			"type":"VEC2"
		},
		{
			"bufferView":3,
			"componentType":5123,
			"count":8136,
			"type":"SCALAR"
		},
		{
			"bufferView":4,
			"componentType":5126,
			"count":1752,
			"max":[
				1.2422977685928345,
				2.5749330520629883,
				0.20671245455741882
			],
			"min":[
				-1.2850382328033447,
				2.230912208557129,
				-0.7790614366531372
			],
			"type":"VEC3"
		},
		{
			"bufferView":5,
			"componentType":5126,
			"count":1752,
			"type":"VEC3"
		},
		{
			"bufferView":6,
			"componentType":5126,
			"count":1752,
			"type":"VEC2"
		},
		{
			"bufferView":7,
			"componentType":5123,
			"count":8136,
			"type":"SCALAR"
		},
		{
			"bufferView":8,
			"componentType":5126,
			"count":63700,
			"max":[
				2.584463119506836,
				2.282632827758789,
				0.27021682262420654
			],
			"min":[
				-2.554394006729126,
				-1.5262537002563477,
				-2.25315523147583
			],
			"type":"VEC3"
		},
		{
			"bufferView":9,
			"componentType":5126,
			"count":63700,
			"type":"VEC3"
		},
		{
			"bufferView":10,
			"componentType":5126,
			"count":63700,
			"type":"VEC2"
		},
		{
			"bufferView":11,
			"componentType":5123,
			"count":369288,
			"type":"SCALAR"
		},
		{
			"bufferView":12,
			"componentType":5126,
			"count":63548,
			"max":[
				2.528681516647339,
				2.285037040710449,
				1.9131900072097778
			],
			"min":[
				-2.5534374713897705,
				-1.6269159317016602,
				0.15207508206367493
			],
			"type":"VEC3"
		},
		{
			"bufferView":13,
			"componentType":5126,
			"count":63548,
			"type":"VEC3"
		},
		{
			"bufferView":14,
			"componentType":5126,
			"count":63548,
			"type":"VEC2"
		},
		{
			"bufferView":15,
			"componentType":5123,
			"count":368376,
			"type":"SCALAR"
		}
	],
	"bufferViews":[
		{
			"buffer":0,
			"byteLength":21024,
			"byteOffset":0,
			"target":34962
		},
		{
			"buffer":0,
			"byteLength":21024,
			"byteOffset":21024,
			"target":34962
		},
		{
			"buffer":0,
			"byteLength":14016,
			"byteOffset":42048,
			"target":34962
		},
		{
			"buffer":0,
			"byteLength":16272,
			"byteOffset":56064,
			"target":34963
		},
		{
			"buffer":0,
			"byteLength":21024,
			"byteOffset":72336,
			"target":34962
		},
		{
			"buffer":0,
			"byteLength":21024,
			"byteOffset":93360,
			"target":34962
		},
		{
			"buffer":0,
			"byteLength":14016,
			"byteOffset":114384,
			"target":34962
		},
		{
			"buffer":0,
			"byteLength":16272,
			"byteOffset":128400,
			"target":34963
		},
		{
			"buffer":0,
			"byteLength":764400,
			"byteOffset":144672,
			"target":34962
		},
		{
			"buffer":0,
			"byteLength":764400,
			"byteOffset":909072,
			"target":34962
		},
		{
			"buffer":0,
			"byteLength":509600,
			"byteOffset":1673472,
			"target":34962
		},
		{
			"buffer":0,
			"byteLength":738576,
			"byteOffset":2183072,
			"target":34963
		},
		{
			"buffer":0,
			"byteLength":762576,
			"byteOffset":2921648,
			"target":34962
		},
		{
			"buffer":0,
			"byteLength":762576,
			"byteOffset":3684224,
			"target":34962
		},
		{
			"buffer":0,
			"byteLength":508384,
			"byteOffset":4446800,
			"target":34962
		},
		{
			"buffer":0,
			"byteLength":736752,
			"byteOffset":4955184,
			"target":34963
		}
	],
	"buffers":[
		{
			"byteLength":5691936,
			"uri":"Mini%20Skirt.bin"
		}
	]
}
