{
	"asset":{
		"generator":"Khronos glTF Blender I/O v4.2.57",
		"version":"2.0"
	},
	"extensionsUsed":[
		"KHR_materials_specular"
	],
	"scene":0,
	"scenes":[
		{
			"name":"Scene",
			"nodes":[
				10
			]
		}
	],
	"nodes":[
		{
			"mesh":0,
			"name":"_mesh.018",
			"rotation":[
				0.5577574968338013,
				-0.012872960418462753,
				-0.054267093539237976,
				0.8281279802322388
			],
			"scale":[
				0.5,
				1,
				0.5000001788139343
			],
			"translation":[
				0.010457747615873814,
				2.903326988220215,
				0.8729960918426514
			]
		},
		{
			"mesh":1,
			"name":"_mesh.019",
			"rotation":[
				0.6215356588363647,
				0.018136318773031235,
				-0.052000753581523895,
				0.7814477682113647
			],
			"scale":[
				0.4999999403953552,
				1,
				0.5000000596046448
			],
			"translation":[
				0.008521799929440022,
				1.9291191101074219,
				1.1632726192474365
			]
		},
		{
			"mesh":2,
			"name":"_mesh.020",
			"rotation":[
				0.6344015002250671,
				0.024554705247282982,
				-0.037150900810956955,
				0.7717199325561523
			],
			"scale":[
				0.4999999403953552,
				1,
				0.5
			],
			"translation":[
				-0.01047496683895588,
				0.9312276840209961,
				1.3563092947006226
			]
		},
		{
			"mesh":3,
			"name":"_mesh.021",
			"rotation":[
				0.6904389262199402,
				-0.027457814663648605,
				-0.032987650483846664,
				0.7221163511276245
			],
			"scale":[
				0.5,
				1,
				0.5
			],
			"translation":[
				-0.021929539740085602,
				-0.07112598419189453,
				1.511483907699585
			]
		},
		{
			"mesh":4,
			"name":"_mesh.022",
			"rotation":[
				0.7102348804473877,
				0.01575089804828167,
				-0.010843721218407154,
				0.7037050724029541
			],
			"scale":[
				0.5,
				1,
				0.5
			],
			"translation":[
				-0.03748038783669472,
				-1.081721305847168,
				1.536893606185913
			]
		},
		{
			"mesh":5,
			"name":"_mesh.023",
			"rotation":[
				0.7025148868560791,
				-0.01821918785572052,
				-0.01143175270408392,
				0.7113439440727234
			],
			"scale":[
				0.5,
				1,
				0.5
			],
			"translation":[
				-0.05146219581365585,
				-2.087796211242676,
				1.537646770477295
			]
		},
		{
			"mesh":6,
			"name":"_mesh.024",
			"rotation":[
				0.7219714522361755,
				0.16486386954784393,
				0.11493806540966034,
				0.6620924472808838
			],
			"scale":[
				0.5,
				1,
				0.5
			],
			"translation":[
				0.011445333249866962,
				3.5753355026245117,
				0.5577999949455261
			]
		},
		{
			"mesh":7,
			"name":"_mesh.025",
			"rotation":[
				0.24654267728328705,
				0.3245658576488495,
				-0.7231327295303345,
				0.5576313734054565
			],
			"scale":[
				0.5,
				1,
				0.5000000596046448
			],
			"translation":[
				2.934276580810547,
				-3.0043935775756836,
				0.23736633360385895
			]
		},
		{
			"mesh":8,
			"name":"_mesh.026",
			"rotation":[
				-0.7713210582733154,
				0.5454795956611633,
				0.03066803328692913,
				0.32645878195762634
			],
			"scale":[
				0.5,
				1,
				0.5000001192092896
			],
			"translation":[
				-2.961137056350708,
				-2.9742555618286133,
				0.16588474810123444
			]
		},
		{
			"children":[
				0,
				1,
				2,
				3,
				4,
				5,
				6,
				7,
				8
			],
			"mesh":9,
			"name":"Cloth"
		},
		{
			"children":[
				9
			],
			"name":"s_Scene_Node"
		}
	],
	"materials":[
		{
			"extensions":{
				"KHR_materials_specular":{
					"specularFactor":0.15000000596046448
				}
			},
			"name":"Default Button_8458604"
		},
		{
			"extensions":{
				"KHR_materials_specular":{
					"specularFactor":0.15000000596046448
				}
			},
			"name":"FABRIC 1 Copy 2_8576196"
		},
		{
			"extensions":{
				"KHR_materials_specular":{
					"specularFactor":0.15000000596046448
				}
			},
			"name":"FABRIC 1 Copy 3_8586812"
		},
		{
			"extensions":{
				"KHR_materials_specular":{
					"specularFactor":0.15000000596046448
				}
			},
			"name":"FABRIC 1 Copy 5_8608053"
		},
		{
			"extensions":{
				"KHR_materials_specular":{
					"specularFactor":0.15000000596046448
				}
			},
			"name":"FABRIC 1 Copy 1_8546292"
		},
		{
			"extensions":{
				"KHR_materials_specular":{
					"specularFactor":0.15000000596046448
				}
			},
			"name":"FABRIC 1 Copy 4_8597431"
		},
		{
			"extensions":{
				"KHR_materials_specular":{
					"specularFactor":0.15000000596046448
				}
			},
			"name":"FABRIC 1 Copy 6_8618669"
		},
		{
			"extensions":{
				"KHR_materials_specular":{
					"specularFactor":0.15000000596046448
				}
			},
			"name":"FABRIC 1 Copy 7_8629285"
		}
	],
	"meshes":[
		{
			"name":"_mesh.018",
			"primitives":[
				{
					"attributes":{
						"POSITION":0,
						"NORMAL":1,
						"TEXCOORD_0":2
					},
					"indices":3,
					"material":0
				}
			]
		},
		{
			"name":"_mesh.019",
			"primitives":[
				{
					"attributes":{
						"POSITION":4,
						"NORMAL":5,
						"TEXCOORD_0":6
					},
					"indices":7,
					"material":0
				}
			]
		},
		{
			"name":"_mesh.020",
			"primitives":[
				{
					"attributes":{
						"POSITION":8,
						"NORMAL":9,
						"TEXCOORD_0":10
					},
					"indices":11,
					"material":0
				}
			]
		},
		{
			"name":"_mesh.021",
			"primitives":[
				{
					"attributes":{
						"POSITION":12,
						"NORMAL":13,
						"TEXCOORD_0":14
					},
					"indices":15,
					"material":0
				}
			]
		},
		{
			"name":"_mesh.022",
			"primitives":[
				{
					"attributes":{
						"POSITION":16,
						"NORMAL":17,
						"TEXCOORD_0":18
					},
					"indices":19,
					"material":0
				}
			]
		},
		{
			"name":"_mesh.023",
			"primitives":[
				{
					"attributes":{
						"POSITION":20,
						"NORMAL":21,
						"TEXCOORD_0":22
					},
					"indices":23,
					"material":0
				}
			]
		},
		{
			"name":"_mesh.024",
			"primitives":[
				{
					"attributes":{
						"POSITION":24,
						"NORMAL":25,
						"TEXCOORD_0":26
					},
					"indices":27,
					"material":0
				}
			]
		},
		{
			"name":"_mesh.025",
			"primitives":[
				{
					"attributes":{
						"POSITION":28,
						"NORMAL":29,
						"TEXCOORD_0":30
					},
					"indices":31,
					"material":0
				}
			]
		},
		{
			"name":"_mesh.026",
			"primitives":[
				{
					"attributes":{
						"POSITION":32,
						"NORMAL":33,
						"TEXCOORD_0":34
					},
					"indices":35,
					"material":0
				}
			]
		},
		{
			"name":"Cloth_mesh.004",
			"primitives":[
				{
					"attributes":{
						"POSITION":36,
						"NORMAL":37,
						"TEXCOORD_0":38
					},
					"indices":39,
					"material":1
				},
				{
					"attributes":{
						"POSITION":40,
						"NORMAL":41,
						"TEXCOORD_0":42
					},
					"indices":43,
					"material":2
				},
				{
					"attributes":{
						"POSITION":44,
						"NORMAL":45,
						"TEXCOORD_0":46
					},
					"indices":47,
					"material":3
				},
				{
					"attributes":{
						"POSITION":48,
						"NORMAL":49,
						"TEXCOORD_0":50
					},
					"indices":51,
					"material":4
				},
				{
					"attributes":{
						"POSITION":52,
						"NORMAL":53,
						"TEXCOORD_0":54
					},
					"indices":55,
					"material":5
				},
				{
					"attributes":{
						"POSITION":56,
						"NORMAL":57,
						"TEXCOORD_0":58
					},
					"indices":59,
					"material":6
				},
				{
					"attributes":{
						"POSITION":60,
						"NORMAL":61,
						"TEXCOORD_0":62
					},
					"indices":63,
					"material":7
				}
			]
		}
	],
	"accessors":[
		{
			"bufferView":0,
			"componentType":5126,
			"count":2092,
			"max":[
				0.09999942779541016,
				0.03228616714477539,
				0.09999847412109375
			],
			"min":[
				-0.10000061988830566,
				-4.76837158203125e-07,
				-0.10000228881835938
			],
			"type":"VEC3"
		},
		{
			"bufferView":1,
			"componentType":5126,
			"count":2092,
			"type":"VEC3"
		},
		{
			"bufferView":2,
			"componentType":5126,
			"count":2092,
			"type":"VEC2"
		},
		{
			"bufferView":3,
			"componentType":5123,
			"count":8922,
			"type":"SCALAR"
		},
		{
			"bufferView":4,
			"componentType":5126,
			"count":1928,
			"max":[
				0.10000014305114746,
				0.03228569030761719,
				0.09999847412109375
			],
			"min":[
				-0.09999990463256836,
				-4.76837158203125e-07,
				-0.10000228881835938
			],
			"type":"VEC3"
		},
		{
			"bufferView":5,
			"componentType":5126,
			"count":1928,
			"type":"VEC3"
		},
		{
			"bufferView":6,
			"componentType":5126,
			"count":1928,
			"type":"VEC2"
		},
		{
			"bufferView":7,
			"componentType":5123,
			"count":8922,
			"type":"SCALAR"
		},
		{
			"bufferView":8,
			"componentType":5126,
			"count":1989,
			"max":[
				0.09999996423721313,
				0.03228640556335449,
				0.10000228881835938
			],
			"min":[
				-0.10000008344650269,
				2.384185791015625e-07,
				-0.09999847412109375
			],
			"type":"VEC3"
		},
		{
			"bufferView":9,
			"componentType":5126,
			"count":1989,
			"type":"VEC3"
		},
		{
			"bufferView":10,
			"componentType":5126,
			"count":1989,
			"type":"VEC2"
		},
		{
			"bufferView":11,
			"componentType":5123,
			"count":8922,
			"type":"SCALAR"
		},
		{
			"bufferView":12,
			"componentType":5126,
			"count":1989,
			"max":[
				0.09999966621398926,
				0.03228604793548584,
				0.10000038146972656
			],
			"min":[
				-0.10000038146972656,
				-2.384185791015625e-07,
				-0.10000228881835938
			],
			"type":"VEC3"
		},
		{
			"bufferView":13,
			"componentType":5126,
			"count":1989,
			"type":"VEC3"
		},
		{
			"bufferView":14,
			"componentType":5126,
			"count":1989,
			"type":"VEC2"
		},
		{
			"bufferView":15,
			"componentType":5123,
			"count":8922,
			"type":"SCALAR"
		},
		{
			"bufferView":16,
			"componentType":5126,
			"count":1972,
			"max":[
				0.10000000149011612,
				0.03228604793548584,
				0.10000228881835938
			],
			"min":[
				-0.10000000894069672,
				-2.384185791015625e-07,
				-0.10000038146972656
			],
			"type":"VEC3"
		},
		{
			"bufferView":17,
			"componentType":5126,
			"count":1972,
			"type":"VEC3"
		},
		{
			"bufferView":18,
			"componentType":5126,
			"count":1972,
			"type":"VEC2"
		},
		{
			"bufferView":19,
			"componentType":5123,
			"count":8922,
			"type":"SCALAR"
		},
		{
			"bufferView":20,
			"componentType":5126,
			"count":1988,
			"max":[
				0.09999996423721313,
				0.03228604793548584,
				0.09999847412109375
			],
			"min":[
				-0.10000008344650269,
				0,
				-0.10000228881835938
			],
			"type":"VEC3"
		},
		{
			"bufferView":21,
			"componentType":5126,
			"count":1988,
			"type":"VEC3"
		},
		{
			"bufferView":22,
			"componentType":5126,
			"count":1988,
			"type":"VEC2"
		},
		{
			"bufferView":23,
			"componentType":5123,
			"count":8922,
			"type":"SCALAR"
		},
		{
			"bufferView":24,
			"componentType":5126,
			"count":2072,
			"max":[
				0.10000038146972656,
				0.032285988330841064,
				0.09999656677246094
			],
			"min":[
				-0.10000038146972656,
				-1.7881393432617188e-07,
				-0.10000228881835938
			],
			"type":"VEC3"
		},
		{
			"bufferView":25,
			"componentType":5126,
			"count":2072,
			"type":"VEC3"
		},
		{
			"bufferView":26,
			"componentType":5126,
			"count":2072,
			"type":"VEC2"
		},
		{
			"bufferView":27,
			"componentType":5123,
			"count":8922,
			"type":"SCALAR"
		},
		{
			"bufferView":28,
			"componentType":5126,
			"count":2024,
			"max":[
				0.10000038146972656,
				0.03228592872619629,
				0.10000228881835938
			],
			"min":[
				-0.10000133514404297,
				-2.384185791015625e-07,
				-0.09999942779541016
			],
			"type":"VEC3"
		},
		{
			"bufferView":29,
			"componentType":5126,
			"count":2024,
			"type":"VEC3"
		},
		{
			"bufferView":30,
			"componentType":5126,
			"count":2024,
			"type":"VEC2"
		},
		{
			"bufferView":31,
			"componentType":5123,
			"count":8922,
			"type":"SCALAR"
		},
		{
			"bufferView":32,
			"componentType":5126,
			"count":2055,
			"max":[
				0.10000228881835938,
				0.032285451889038086,
				0.10000228881835938
			],
			"min":[
				-0.10000038146972656,
				-7.748603820800781e-07,
				-0.09999895095825195
			],
			"type":"VEC3"
		},
		{
			"bufferView":33,
			"componentType":5126,
			"count":2055,
			"type":"VEC3"
		},
		{
			"bufferView":34,
			"componentType":5126,
			"count":2055,
			"type":"VEC2"
		},
		{
			"bufferView":35,
			"componentType":5123,
			"count":8922,
			"type":"SCALAR"
		},
		{
			"bufferView":36,
			"componentType":5126,
			"count":40424,
			"max":[
				2.355496883392334,
				3.9599227905273438,
				1.6501730680465698
			],
			"min":[
				-0.23902882635593414,
				-3.6809282302856445,
				-0.25531938672065735
			],
			"type":"VEC3"
		},
		{
			"bufferView":37,
			"componentType":5126,
			"count":40424,
			"type":"VEC3"
		},
		{
			"bufferView":38,
			"componentType":5126,
			"count":40424,
			"type":"VEC2"
		},
		{
			"bufferView":39,
			"componentType":5123,
			"count":232854,
			"type":"SCALAR"
		},
		{
			"bufferView":40,
			"componentType":5126,
			"count":41571,
			"max":[
				3.151285409927368,
				2.9134931564331055,
				1.0320708751678467
			],
			"min":[
				1.4553707838058472,
				-3.268002510070801,
				-0.8826979398727417
			],
			"type":"VEC3"
		},
		{
			"bufferView":41,
			"componentType":5126,
			"count":41571,
			"type":"VEC3"
		},
		{
			"bufferView":42,
			"componentType":5126,
			"count":41571,
			"type":"VEC2"
		},
		{
			"bufferView":43,
			"componentType":5123,
			"count":240210,
			"type":"SCALAR"
		},
		{
			"bufferView":44,
			"componentType":5126,
			"count":8090,
			"max":[
				1.6704548597335815,
				2.068368911743164,
				1.378995656967163
			],
			"min":[
				-1.6865897178649902,
				0.5897073745727539,
				0.6822036504745483
			],
			"type":"VEC3"
		},
		{
			"bufferView":45,
			"componentType":5126,
			"count":8090,
			"type":"VEC3"
		},
		{
			"bufferView":46,
			"componentType":5126,
			"count":8090,
			"type":"VEC2"
		},
		{
			"bufferView":47,
			"componentType":5123,
			"count":45192,
			"type":"SCALAR"
		},
		{
			"bufferView":48,
			"componentType":5126,
			"count":40392,
			"max":[
				0.13178753852844238,
				3.968507766723633,
				1.7246088981628418
			],
			"min":[
				-2.358309030532837,
				-3.6735897064208984,
				-0.32671231031417847
			],
			"type":"VEC3"
		},
		{
			"bufferView":49,
			"componentType":5126,
			"count":40392,
			"type":"VEC3"
		},
		{
			"bufferView":50,
			"componentType":5126,
			"count":40392,
			"type":"VEC2"
		},
		{
			"bufferView":51,
			"componentType":5123,
			"count":232662,
			"type":"SCALAR"
		},
		{
			"bufferView":52,
			"componentType":5126,
			"count":41543,
			"max":[
				-1.4144419431686401,
				2.919379234313965,
				1.014638900756836
			],
			"min":[
				-3.2057511806488037,
				-3.2331390380859375,
				-0.9101917743682861
			],
			"type":"VEC3"
		},
		{
			"bufferView":53,
			"componentType":5126,
			"count":41543,
			"type":"VEC3"
		},
		{
			"bufferView":54,
			"componentType":5126,
			"count":41543,
			"type":"VEC2"
		},
		{
			"bufferView":55,
			"componentType":5123,
			"count":240042,
			"type":"SCALAR"
		},
		{
			"bufferView":56,
			"componentType":5126,
			"count":89294,
			"max":[
				2.357706069946289,
				4.155862808227539,
				0.16580826044082642
			],
			"min":[
				-2.354757308959961,
				-4.152006149291992,
				-1.7306522130966187
			],
			"type":"VEC3"
		},
		{
			"bufferView":57,
			"componentType":5126,
			"count":89294,
			"type":"VEC3"
		},
		{
			"bufferView":58,
			"componentType":5126,
			"count":89294,
			"type":"VEC2"
		},
		{
			"bufferView":59,
			"componentType":5125,
			"count":522624,
			"type":"SCALAR"
		},
		{
			"bufferView":60,
			"componentType":5126,
			"count":5188,
			"max":[
				0.855686366558075,
				4.516225814819336,
				0.764079213142395
			],
			"min":[
				-0.8541144132614136,
				3.1782989501953125,
				-0.6760839223861694
			],
			"type":"VEC3"
		},
		{
			"bufferView":61,
			"componentType":5126,
			"count":5188,
			"type":"VEC3"
		},
		{
			"bufferView":62,
			"componentType":5126,
			"count":5188,
			"type":"VEC2"
		},
		{
			"bufferView":63,
			"componentType":5123,
			"count":26256,
			"type":"SCALAR"
		}
	],
	"bufferViews":[
		{
			"buffer":0,
			"byteLength":25104,
			"byteOffset":0,
			"target":34962
		},
		{
			"buffer":0,
			"byteLength":25104,
			"byteOffset":25104,
			"target":34962
		},
		{
			"buffer":0,
			"byteLength":16736,
			"byteOffset":50208,
			"target":34962
		},
		{
			"buffer":0,
			"byteLength":17844,
			"byteOffset":66944,
			"target":34963
		},
		{
			"buffer":0,
			"byteLength":23136,
			"byteOffset":84788,
			"target":34962
		},
		{
			"buffer":0,
			"byteLength":23136,
			"byteOffset":107924,
			"target":34962
		},
		{
			"buffer":0,
			"byteLength":15424,
			"byteOffset":131060,
			"target":34962
		},
		{
			"buffer":0,
			"byteLength":17844,
			"byteOffset":146484,
			"target":34963
		},
		{
			"buffer":0,
			"byteLength":23868,
			"byteOffset":164328,
			"target":34962
		},
		{
			"buffer":0,
			"byteLength":23868,
			"byteOffset":188196,
			"target":34962
		},
		{
			"buffer":0,
			"byteLength":15912,
			"byteOffset":212064,
			"target":34962
		},
		{
			"buffer":0,
			"byteLength":17844,
			"byteOffset":227976,
			"target":34963
		},
		{
			"buffer":0,
			"byteLength":23868,
			"byteOffset":245820,
			"target":34962
		},
		{
			"buffer":0,
			"byteLength":23868,
			"byteOffset":269688,
			"target":34962
		},
		{
			"buffer":0,
			"byteLength":15912,
			"byteOffset":293556,
			"target":34962
		},
		{
			"buffer":0,
			"byteLength":17844,
			"byteOffset":309468,
			"target":34963
		},
		{
			"buffer":0,
			"byteLength":23664,
			"byteOffset":327312,
			"target":34962
		},
		{
			"buffer":0,
			"byteLength":23664,
			"byteOffset":350976,
			"target":34962
		},
		{
			"buffer":0,
			"byteLength":15776,
			"byteOffset":374640,
			"target":34962
		},
		{
			"buffer":0,
			"byteLength":17844,
			"byteOffset":390416,
			"target":34963
		},
		{
			"buffer":0,
			"byteLength":23856,
			"byteOffset":408260,
			"target":34962
		},
		{
			"buffer":0,
			"byteLength":23856,
			"byteOffset":432116,
			"target":34962
		},
		{
			"buffer":0,
			"byteLength":15904,
			"byteOffset":455972,
			"target":34962
		},
		{
			"buffer":0,
			"byteLength":17844,
			"byteOffset":471876,
			"target":34963
		},
		{
			"buffer":0,
			"byteLength":24864,
			"byteOffset":489720,
			"target":34962
		},
		{
			"buffer":0,
			"byteLength":24864,
			"byteOffset":514584,
			"target":34962
		},
		{
			"buffer":0,
			"byteLength":16576,
			"byteOffset":539448,
			"target":34962
		},
		{
			"buffer":0,
			"byteLength":17844,
			"byteOffset":556024,
			"target":34963
		},
		{
			"buffer":0,
			"byteLength":24288,
			"byteOffset":573868,
			"target":34962
		},
		{
			"buffer":0,
			"byteLength":24288,
			"byteOffset":598156,
			"target":34962
		},
		{
			"buffer":0,
			"byteLength":16192,
			"byteOffset":622444,
			"target":34962
		},
		{
			"buffer":0,
			"byteLength":17844,
			"byteOffset":638636,
			"target":34963
		},
		{
			"buffer":0,
			"byteLength":24660,
			"byteOffset":656480,
			"target":34962
		},
		{
			"buffer":0,
			"byteLength":24660,
			"byteOffset":681140,
			"target":34962
		},
		{
			"buffer":0,
			"byteLength":16440,
			"byteOffset":705800,
			"target":34962
		},
		{
			"buffer":0,
			"byteLength":17844,
			"byteOffset":722240,
			"target":34963
		},
		{
			"buffer":0,
			"byteLength":485088,
			"byteOffset":740084,
			"target":34962
		},
		{
			"buffer":0,
			"byteLength":485088,
			"byteOffset":1225172,
			"target":34962
		},
		{
			"buffer":0,
			"byteLength":323392,
			"byteOffset":1710260,
			"target":34962
		},
		{
			"buffer":0,
			"byteLength":465708,
			"byteOffset":2033652,
			"target":34963
		},
		{
			"buffer":0,
			"byteLength":498852,
			"byteOffset":2499360,
			"target":34962
		},
		{
			"buffer":0,
			"byteLength":498852,
			"byteOffset":2998212,
			"target":34962
		},
		{
			"buffer":0,
			"byteLength":332568,
			"byteOffset":3497064,
			"target":34962
		},
		{
			"buffer":0,
			"byteLength":480420,
			"byteOffset":3829632,
			"target":34963
		},
		{
			"buffer":0,
			"byteLength":97080,
			"byteOffset":4310052,
			"target":34962
		},
		{
			"buffer":0,
			"byteLength":97080,
			"byteOffset":4407132,
			"target":34962
		},
		{
			"buffer":0,
			"byteLength":64720,
			"byteOffset":4504212,
			"target":34962
		},
		{
			"buffer":0,
			"byteLength":90384,
			"byteOffset":4568932,
			"target":34963
		},
		{
			"buffer":0,
			"byteLength":484704,
			"byteOffset":4659316,
			"target":34962
		},
		{
			"buffer":0,
			"byteLength":484704,
			"byteOffset":5144020,
			"target":34962
		},
		{
			"buffer":0,
			"byteLength":323136,
			"byteOffset":5628724,
			"target":34962
		},
		{
			"buffer":0,
			"byteLength":465324,
			"byteOffset":5951860,
			"target":34963
		},
		{
			"buffer":0,
			"byteLength":498516,
			"byteOffset":6417184,
			"target":34962
		},
		{
			"buffer":0,
			"byteLength":498516,
			"byteOffset":6915700,
			"target":34962
		},
		{
			"buffer":0,
			"byteLength":332344,
			"byteOffset":7414216,
			"target":34962
		},
		{
			"buffer":0,
			"byteLength":480084,
			"byteOffset":7746560,
			"target":34963
		},
		{
			"buffer":0,
			"byteLength":1071528,
			"byteOffset":8226644,
			"target":34962
		},
		{
			"buffer":0,
			"byteLength":1071528,
			"byteOffset":9298172,
			"target":34962
		},
		{
			"buffer":0,
			"byteLength":714352,
			"byteOffset":10369700,
			"target":34962
		},
		{
			"buffer":0,
			"byteLength":2090496,
			"byteOffset":11084052,
			"target":34963
		},
		{
			"buffer":0,
			"byteLength":62256,
			"byteOffset":13174548,
			"target":34962
		},
		{
			"buffer":0,
			"byteLength":62256,
			"byteOffset":13236804,
			"target":34962
		},
		{
			"buffer":0,
			"byteLength":41504,
			"byteOffset":13299060,
			"target":34962
		},
		{
			"buffer":0,
			"byteLength":52512,
			"byteOffset":13340564,
			"target":34963
		}
	],
	"buffers":[
		{
			"byteLength":13393076,
			"uri":"Shirt%20Male2.bin"
		}
	]
}
