{
	"asset":{
		"generator":"Khronos glTF Blender I/O v4.2.57",
		"version":"2.0"
	},
	"extensionsUsed":[
		"KHR_materials_specular"
	],
	"scene":0,
	"scenes":[
		{
			"name":"Scene",
			"nodes":[
				0,
				1,
				4,
				5,
				6,
				7,
				8,
				9,
				10,
				12
			]
		}
	],
	"nodes":[
		{
			"name":"f_Scene_Node"
		},
		{
			"name":"Sw_Scene_Node"
		},
		{
			"mesh":0,
			"name":"_mesh.001",
			"translation":[
				0,
				0.00040439455187879503,
				0.02618892304599285
			]
		},
		{
			"children":[
				2
			],
			"mesh":1,
			"name":"_mesh"
		},
		{
			"children":[
				3
			],
			"name":"Slider_1",
			"rotation":[
				0.2969559133052826,
				-0.04477011039853096,
				-0.012962482869625092,
				0.9537530541419983
			],
			"translation":[
				0.02074691653251648,
				16.083343505859375,
				0.8804266452789307
			]
		},
		{
			"mesh":2,
			"name":"_mesh.002",
			"rotation":[
				0.2877342104911804,
				-0.04169217497110367,
				-0.011552579700946808,
				0.9567326307296753
			],
			"translation":[
				0.020597534254193306,
				16.149303436279297,
				0.9247442483901978
			]
		},
		{
			"mesh":3,
			"name":"_mesh.003",
			"rotation":[
				0.2869822084903717,
				0.07661403715610504,
				0.024021482095122337,
				0.9545651078224182
			],
			"translation":[
				0.02059783972799778,
				16.149301528930664,
				0.9247424006462097
			]
		},
		{
			"mesh":4,
			"name":"_mesh.004",
			"rotation":[
				-0.09192422032356262,
				0.005641579627990723,
				4.95934255013708e-05,
				0.9957500100135803
			],
			"translation":[
				0.03951771557331085,
				13.99946403503418,
				1.0118849277496338
			]
		},
		{
			"mesh":5,
			"name":"_mesh.005",
			"rotation":[
				-0.09187190979719162,
				-0.02665623463690281,
				0.0030310810543596745,
				0.995409369468689
			],
			"translation":[
				0.03951822221279144,
				13.99946117401123,
				1.0118844509124756
			]
		},
		{
			"name":"ss_Scene_Node"
		},
		{
			"name":"t_Scene_Node"
		},
		{
			"mesh":6,
			"name":"Cloth"
		},
		{
			"children":[
				11
			],
			"name":"gg_Scene_Node"
		}
	],
	"materials":[
		{
			"extensions":{
				"KHR_materials_specular":{
					"specularFactor":0.15000000596046448
				}
			},
			"name":"Zipper 2_11057968"
		},
		{
			"extensions":{
				"KHR_materials_specular":{
					"specularFactor":0.15000000596046448
				}
			},
			"name":"Zipper 2_11057961"
		},
		{
			"extensions":{
				"KHR_materials_specular":{
					"specularFactor":0.15000000596046448
				}
			},
			"name":"Zipper 2_11057975"
		},
		{
			"extensions":{
				"KHR_materials_specular":{
					"specularFactor":0.15000000596046448
				}
			},
			"name":"Zipper 2_11057981"
		},
		{
			"extensions":{
				"KHR_materials_specular":{
					"specularFactor":0.15000000596046448
				}
			},
			"name":"Zipper 2_11057988"
		},
		{
			"extensions":{
				"KHR_materials_specular":{
					"specularFactor":0.15000000596046448
				}
			},
			"name":"Zipper 2_11057994"
		},
		{
			"extensions":{
				"KHR_materials_specular":{
					"specularFactor":0.15000000596046448
				}
			},
			"name":"Rib_1X1_486gsm Copy 3_11615173"
		},
		{
			"extensions":{
				"KHR_materials_specular":{
					"specularFactor":0.15000000596046448
				}
			},
			"name":"Rib_1X1_486gsm Copy 1_11606401"
		},
		{
			"extensions":{
				"KHR_materials_specular":{
					"specularFactor":0.15000000596046448
				}
			},
			"name":"Rib_1X1_486gsm Copy 2_11614068"
		},
		{
			"extensions":{
				"KHR_materials_specular":{
					"specularFactor":0.15000000596046448
				}
			},
			"name":"Rib_1X1_486gsm_11606390"
		}
	],
	"meshes":[
		{
			"name":"_mesh.001",
			"primitives":[
				{
					"attributes":{
						"POSITION":0,
						"NORMAL":1,
						"TEXCOORD_0":2
					},
					"indices":3,
					"material":0
				}
			]
		},
		{
			"name":"_mesh",
			"primitives":[
				{
					"attributes":{
						"POSITION":4,
						"NORMAL":5,
						"TEXCOORD_0":6
					},
					"indices":7,
					"material":1
				}
			]
		},
		{
			"name":"_mesh.002",
			"primitives":[
				{
					"attributes":{
						"POSITION":8,
						"NORMAL":9,
						"TEXCOORD_0":10
					},
					"indices":11,
					"material":2
				}
			]
		},
		{
			"name":"_mesh.003",
			"primitives":[
				{
					"attributes":{
						"POSITION":12,
						"NORMAL":13,
						"TEXCOORD_0":14
					},
					"indices":15,
					"material":3
				}
			]
		},
		{
			"name":"_mesh.004",
			"primitives":[
				{
					"attributes":{
						"POSITION":16,
						"NORMAL":17,
						"TEXCOORD_0":18
					},
					"indices":19,
					"material":4
				}
			]
		},
		{
			"name":"_mesh.005",
			"primitives":[
				{
					"attributes":{
						"POSITION":20,
						"NORMAL":21,
						"TEXCOORD_0":22
					},
					"indices":23,
					"material":5
				}
			]
		},
		{
			"name":"Cloth_mesh.005",
			"primitives":[
				{
					"attributes":{
						"POSITION":24,
						"NORMAL":25,
						"TEXCOORD_0":26
					},
					"indices":27,
					"material":6
				},
				{
					"attributes":{
						"POSITION":28,
						"NORMAL":29,
						"TEXCOORD_0":30
					},
					"indices":31,
					"material":7
				},
				{
					"attributes":{
						"POSITION":32,
						"NORMAL":33,
						"TEXCOORD_0":34
					},
					"indices":35,
					"material":8
				},
				{
					"attributes":{
						"POSITION":36,
						"NORMAL":37,
						"TEXCOORD_0":38
					},
					"indices":39,
					"material":9
				}
			]
		}
	],
	"accessors":[
		{
			"bufferView":0,
			"componentType":5126,
			"count":726,
			"max":[
				0.04535788297653198,
				0.005001068115234375,
				0.0031404495239257812
			],
			"min":[
				-0.04535788297653198,
				-0.1555328369140625,
				-0.0031404495239257812
			],
			"type":"VEC3"
		},
		{
			"bufferView":1,
			"componentType":5126,
			"count":726,
			"type":"VEC3"
		},
		{
			"bufferView":2,
			"componentType":5126,
			"count":726,
			"type":"VEC2"
		},
		{
			"bufferView":3,
			"componentType":5123,
			"count":3480,
			"type":"SCALAR"
		},
		{
			"bufferView":4,
			"componentType":5126,
			"count":507,
			"max":[
				0.04215598106384277,
				0.07941150665283203,
				0.04529571533203125
			],
			"min":[
				-0.04215598106384277,
				-0.028280258178710938,
				-0.020673751831054688
			],
			"type":"VEC3"
		},
		{
			"bufferView":5,
			"componentType":5126,
			"count":507,
			"type":"VEC3"
		},
		{
			"bufferView":6,
			"componentType":5126,
			"count":507,
			"type":"VEC2"
		},
		{
			"bufferView":7,
			"componentType":5123,
			"count":2472,
			"type":"SCALAR"
		},
		{
			"bufferView":8,
			"componentType":5126,
			"count":1133,
			"max":[
				0.005453884601593018,
				2.86102294921875e-06,
				0.008988380432128906
			],
			"min":[
				-0.021362483501434326,
				-0.034171104431152344,
				-0.0089874267578125
			],
			"type":"VEC3"
		},
		{
			"bufferView":9,
			"componentType":5126,
			"count":1133,
			"type":"VEC3"
		},
		{
			"bufferView":10,
			"componentType":5126,
			"count":1133,
			"type":"VEC2"
		},
		{
			"bufferView":11,
			"componentType":5123,
			"count":2340,
			"type":"SCALAR"
		},
		{
			"bufferView":12,
			"componentType":5126,
			"count":1134,
			"max":[
				0.021362781524658203,
				0,
				0.008988380432128906
			],
			"min":[
				-0.005453705787658691,
				-0.03417396545410156,
				-0.0089874267578125
			],
			"type":"VEC3"
		},
		{
			"bufferView":13,
			"componentType":5126,
			"count":1134,
			"type":"VEC3"
		},
		{
			"bufferView":14,
			"componentType":5126,
			"count":1134,
			"type":"VEC2"
		},
		{
			"bufferView":15,
			"componentType":5123,
			"count":2340,
			"type":"SCALAR"
		},
		{
			"bufferView":16,
			"componentType":5126,
			"count":1305,
			"max":[
				0.023214612156152725,
				0.028703689575195312,
				0.01089167594909668
			],
			"min":[
				-0.02355540171265602,
				-0.03615283966064453,
				-0.01089167594909668
			],
			"type":"VEC3"
		},
		{
			"bufferView":17,
			"componentType":5126,
			"count":1305,
			"type":"VEC3"
		},
		{
			"bufferView":18,
			"componentType":5126,
			"count":1305,
			"type":"VEC2"
		},
		{
			"bufferView":19,
			"componentType":5123,
			"count":5088,
			"type":"SCALAR"
		},
		{
			"bufferView":20,
			"componentType":5126,
			"count":714,
			"max":[
				0.019555702805519104,
				0.03768157958984375,
				0.005934476852416992
			],
			"min":[
				0.00042967498302459717,
				-0.0299835205078125,
				-0.0057833194732666016
			],
			"type":"VEC3"
		},
		{
			"bufferView":21,
			"componentType":5126,
			"count":714,
			"type":"VEC3"
		},
		{
			"bufferView":22,
			"componentType":5126,
			"count":714,
			"type":"VEC2"
		},
		{
			"bufferView":23,
			"componentType":5123,
			"count":2778,
			"type":"SCALAR"
		},
		{
			"bufferView":24,
			"componentType":5126,
			"count":2930,
			"max":[
				1.2377855777740479,
				1.6199378967285156,
				1.1843539476394653
			],
			"min":[
				-1.2286745309829712,
				0.14247703552246094,
				-1.1944445371627808
			],
			"type":"VEC3"
		},
		{
			"bufferView":25,
			"componentType":5126,
			"count":2930,
			"type":"VEC3"
		},
		{
			"bufferView":26,
			"componentType":5126,
			"count":2930,
			"type":"VEC2"
		},
		{
			"bufferView":27,
			"componentType":5123,
			"count":14454,
			"type":"SCALAR"
		},
		{
			"bufferView":28,
			"componentType":5126,
			"count":3268,
			"max":[
				1.471789002418518,
				1.5319461822509766,
				0.7585470676422119
			],
			"min":[
				-1.4525463581085205,
				-0.3824462890625,
				-1.0927306413650513
			],
			"type":"VEC3"
		},
		{
			"bufferView":29,
			"componentType":5126,
			"count":3268,
			"type":"VEC3"
		},
		{
			"bufferView":30,
			"componentType":5126,
			"count":3268,
			"type":"VEC2"
		},
		{
			"bufferView":31,
			"componentType":5123,
			"count":15864,
			"type":"SCALAR"
		},
		{
			"bufferView":32,
			"componentType":5126,
			"count":5054,
			"max":[
				1.5251504182815552,
				1.5618247985839844,
				1.5995396375656128
			],
			"min":[
				-1.514611005783081,
				-1.7475318908691406,
				-0.44166669249534607
			],
			"type":"VEC3"
		},
		{
			"bufferView":33,
			"componentType":5126,
			"count":5054,
			"type":"VEC3"
		},
		{
			"bufferView":34,
			"componentType":5126,
			"count":5054,
			"type":"VEC2"
		},
		{
			"bufferView":35,
			"componentType":5123,
			"count":26952,
			"type":"SCALAR"
		},
		{
			"bufferView":36,
			"componentType":5126,
			"count":5172,
			"max":[
				1.4654821157455444,
				1.5615615844726562,
				0.4888455867767334
			],
			"min":[
				-1.4454152584075928,
				-1.830275535583496,
				-1.1996805667877197
			],
			"type":"VEC3"
		},
		{
			"bufferView":37,
			"componentType":5126,
			"count":5172,
			"type":"VEC3"
		},
		{
			"bufferView":38,
			"componentType":5126,
			"count":5172,
			"type":"VEC2"
		},
		{
			"bufferView":39,
			"componentType":5123,
			"count":28272,
			"type":"SCALAR"
		}
	],
	"bufferViews":[
		{
			"buffer":0,
			"byteLength":8712,
			"byteOffset":0,
			"target":34962
		},
		{
			"buffer":0,
			"byteLength":8712,
			"byteOffset":8712,
			"target":34962
		},
		{
			"buffer":0,
			"byteLength":5808,
			"byteOffset":17424,
			"target":34962
		},
		{
			"buffer":0,
			"byteLength":6960,
			"byteOffset":23232,
			"target":34963
		},
		{
			"buffer":0,
			"byteLength":6084,
			"byteOffset":30192,
			"target":34962
		},
		{
			"buffer":0,
			"byteLength":6084,
			"byteOffset":36276,
			"target":34962
		},
		{
			"buffer":0,
			"byteLength":4056,
			"byteOffset":42360,
			"target":34962
		},
		{
			"buffer":0,
			"byteLength":4944,
			"byteOffset":46416,
			"target":34963
		},
		{
			"buffer":0,
			"byteLength":13596,
			"byteOffset":51360,
			"target":34962
		},
		{
			"buffer":0,
			"byteLength":13596,
			"byteOffset":64956,
			"target":34962
		},
		{
			"buffer":0,
			"byteLength":9064,
			"byteOffset":78552,
			"target":34962
		},
		{
			"buffer":0,
			"byteLength":4680,
			"byteOffset":87616,
			"target":34963
		},
		{
			"buffer":0,
			"byteLength":13608,
			"byteOffset":92296,
			"target":34962
		},
		{
			"buffer":0,
			"byteLength":13608,
			"byteOffset":105904,
			"target":34962
		},
		{
			"buffer":0,
			"byteLength":9072,
			"byteOffset":119512,
			"target":34962
		},
		{
			"buffer":0,
			"byteLength":4680,
			"byteOffset":128584,
			"target":34963
		},
		{
			"buffer":0,
			"byteLength":15660,
			"byteOffset":133264,
			"target":34962
		},
		{
			"buffer":0,
			"byteLength":15660,
			"byteOffset":148924,
			"target":34962
		},
		{
			"buffer":0,
			"byteLength":10440,
			"byteOffset":164584,
			"target":34962
		},
		{
			"buffer":0,
			"byteLength":10176,
			"byteOffset":175024,
			"target":34963
		},
		{
			"buffer":0,
			"byteLength":8568,
			"byteOffset":185200,
			"target":34962
		},
		{
			"buffer":0,
			"byteLength":8568,
			"byteOffset":193768,
			"target":34962
		},
		{
			"buffer":0,
			"byteLength":5712,
			"byteOffset":202336,
			"target":34962
		},
		{
			"buffer":0,
			"byteLength":5556,
			"byteOffset":208048,
			"target":34963
		},
		{
			"buffer":0,
			"byteLength":35160,
			"byteOffset":213604,
			"target":34962
		},
		{
			"buffer":0,
			"byteLength":35160,
			"byteOffset":248764,
			"target":34962
		},
		{
			"buffer":0,
			"byteLength":23440,
			"byteOffset":283924,
			"target":34962
		},
		{
			"buffer":0,
			"byteLength":28908,
			"byteOffset":307364,
			"target":34963
		},
		{
			"buffer":0,
			"byteLength":39216,
			"byteOffset":336272,
			"target":34962
		},
		{
			"buffer":0,
			"byteLength":39216,
			"byteOffset":375488,
			"target":34962
		},
		{
			"buffer":0,
			"byteLength":26144,
			"byteOffset":414704,
			"target":34962
		},
		{
			"buffer":0,
			"byteLength":31728,
			"byteOffset":440848,
			"target":34963
		},
		{
			"buffer":0,
			"byteLength":60648,
			"byteOffset":472576,
			"target":34962
		},
		{
			"buffer":0,
			"byteLength":60648,
			"byteOffset":533224,
			"target":34962
		},
		{
			"buffer":0,
			"byteLength":40432,
			"byteOffset":593872,
			"target":34962
		},
		{
			"buffer":0,
			"byteLength":53904,
			"byteOffset":634304,
			"target":34963
		},
		{
			"buffer":0,
			"byteLength":62064,
			"byteOffset":688208,
			"target":34962
		},
		{
			"buffer":0,
			"byteLength":62064,
			"byteOffset":750272,
			"target":34962
		},
		{
			"buffer":0,
			"byteLength":41376,
			"byteOffset":812336,
			"target":34962
		},
		{
			"buffer":0,
			"byteLength":56544,
			"byteOffset":853712,
			"target":34963
		}
	],
	"buffers":[
		{
			"byteLength":910256,
			"uri":"Top%20female2.bin"
		}
	]
}
