{
  "accessors": [
    {
      "bufferView": 0,
      "componentType": 5125,
      "count": 23985,
      "max": [
        4095
      ],
      "min": [
        0
      ],
      "type": "SCALAR"
    },
    {
      "bufferView": 1,
      "componentType": 5125,
      "count": 23985,
      "max": [
        8288
      ],
      "min": [
        4193
      ],
      "type": "SCALAR"
    },
    {
      "bufferView": 2,
      "componentType": 5125,
      "count": 14040,
      "max": [
        11011
      ],
      "min": [
        8386
      ],
      "type": "SCALAR"
    },
    {
      "bufferView": 3,
      "componentType": 5126,
      "count": 11012,
      "max": [
        1.700573205947876,
        1.6795620918273926,
        0.36687758564949036
      ],
      "min": [
        -1.6994154453277588,
        -2.585865020751953,
        -0.1145210936665535
      ],
      "type": "VEC3"
    },
    {
      "bufferView": 4,
      "componentType": 5126,
      "count": 11012,
      "max": [
        1.0,
        0.9999368786811829,
        0.9999968409538269
      ],
      "min": [
        -0.9998034834861755,
        -0.9999704957008362,
        -0.9999973773956299
      ],
      "type": "VEC3"
    },
    {
      "bufferView": 5,
      "componentType": 5126,
      "count": 11012,
      "max": [
        0.9937887191772461,
        0.5256600379943848
      ],
      "min": [
        0.5768339037895203,
        0.008452951908111572
      ],
      "type": "VEC2"
    },
    {
      "bufferView": 6,
      "componentType": 5125,
      "count": 4407,
      "max": [
        832
      ],
      "min": [
        0
      ],
      "type": "SCALAR"
    },
    {
      "bufferView": 7,
      "componentType": 5125,
      "count": 4407,
      "max": [
        1762
      ],
      "min": [
        930
      ],
      "type": "SCALAR"
    },
    {
      "bufferView": 8,
      "componentType": 5125,
      "count": 14040,
      "max": [
        4446
      ],
      "min": [
        1860
      ],
      "type": "SCALAR"
    },
    {
      "bufferView": 9,
      "componentType": 5126,
      "count": 4447,
      "max": [
        1.7005846500396729,
        1.6791356801986694,
        0.09954004734754562
      ],
      "min": [
        -1.6994407176971436,
        -2.5845680236816406,
        -0.3393988013267517
      ],
      "type": "VEC3"
    },
    {
      "bufferView": 10,
      "componentType": 5126,
      "count": 4447,
      "max": [
        1.0,
        0.999989926815033,
        0.9999973773956299
      ],
      "min": [
        -0.9998534917831421,
        -0.9999822378158569,
        -0.9999973773956299
      ],
      "type": "VEC3"
    },
    {
      "bufferView": 11,
      "componentType": 5126,
      "count": 4447,
      "max": [
        0.9432024955749512,
        0.5816097259521484
      ],
      "min": [
        0.9092059135437012,
        0.5394390821456909
      ],
      "type": "VEC2"
    },
    {
      "bufferView": 12,
      "componentType": 5125,
      "count": 3069,
      "max": [
        581
      ],
      "min": [
        0
      ],
      "type": "SCALAR"
    },
    {
      "bufferView": 13,
      "componentType": 5125,
      "count": 3069,
      "max": [
        1333
      ],
      "min": [
        752
      ],
      "type": "SCALAR"
    },
    {
      "bufferView": 14,
      "componentType": 5125,
      "count": 10008,
      "max": [
        3362
      ],
      "min": [
        1504
      ],
      "type": "SCALAR"
    },
    {
      "bufferView": 15,
      "componentType": 5126,
      "count": 3363,
      "max": [
        0.6916612982749939,
        3.8647005558013916,
        0.30587098002433777
      ],
      "min": [
        -0.6752221584320068,
        1.2853158712387085,
        -0.05364377424120903
      ],
      "type": "VEC3"
    },
    {
      "bufferView": 16,
      "componentType": 5126,
      "count": 3363,
      "max": [
        1.0,
        0.9778959155082703,
        0.9999949932098389
      ],
      "min": [
        -0.9978652596473694,
        -0.9986600279808044,
        -0.9997900128364563
      ],
      "type": "VEC3"
    },
    {
      "bufferView": 17,
      "componentType": 5126,
      "count": 3363,
      "max": [
        0.1336326003074646,
        0.6202236413955688
      ],
      "min": [
        0.09618429839611053,
        0.007894694805145264
      ],
      "type": "VEC2"
    },
    {
      "bufferView": 18,
      "componentType": 5125,
      "count": 3036,
      "max": [
        575
      ],
      "min": [
        0
      ],
      "type": "SCALAR"
    },
    {
      "bufferView": 19,
      "componentType": 5125,
      "count": 3036,
      "max": [
        1321
      ],
      "min": [
        746
      ],
      "type": "SCALAR"
    },
    {
      "bufferView": 20,
      "componentType": 5125,
      "count": 9936,
      "max": [
        3337
      ],
      "min": [
        1492
      ],
      "type": "SCALAR"
    },
    {
      "bufferView": 21,
      "componentType": 5126,
      "count": 3338,
      "max": [
        0.7134950160980225,
        3.8546056747436523,
        0.04479030892252922
      ],
      "min": [
        -0.6710507273674011,
        1.3455277681350708,
        -0.2766844928264618
      ],
      "type": "VEC3"
    },
    {
      "bufferView": 22,
      "componentType": 5126,
      "count": 3338,
      "max": [
        1.0,
        0.9906960129737854,
        0.9998577237129211
      ],
      "min": [
        -0.9992523193359375,
        -0.999602198600769,
        -0.9998634457588196
      ],
      "type": "VEC3"
    },
    {
      "bufferView": 23,
      "componentType": 5126,
      "count": 3338,
      "max": [
        0.06523843854665756,
        0.6201443672180176
      ],
      "min": [
        0.02779012732207775,
        0.007815301418304443
      ],
      "type": "VEC2"
    },
    {
      "bufferView": 24,
      "componentType": 5125,
      "count": 4359,
      "max": [
        824
      ],
      "min": [
        0
      ],
      "type": "SCALAR"
    },
    {
      "bufferView": 25,
      "componentType": 5125,
      "count": 4359,
      "max": [
        1746
      ],
      "min": [
        922
      ],
      "type": "SCALAR"
    },
    {
      "bufferView": 26,
      "componentType": 5125,
      "count": 14040,
      "max": [
        4469
      ],
      "min": [
        1844
      ],
      "type": "SCALAR"
    },
    {
      "bufferView": 27,
      "componentType": 5126,
      "count": 4470,
      "max": [
        1.6892963647842407,
        1.6748358011245728,
        0.3278990387916565
      ],
      "min": [
        -1.6889872550964355,
        -2.5691866874694824,
        -0.11731721460819244
      ],
      "type": "VEC3"
    },
    {
      "bufferView": 28,
      "componentType": 5126,
      "count": 4470,
      "max": [
        1.0,
        0.9999783039093018,
        0.9999937415122986
      ],
      "min": [
        -0.999916672706604,
        -0.9999141097068787,
        -0.9999991655349731
      ],
      "type": "VEC3"
    },
    {
      "bufferView": 29,
      "componentType": 5126,
      "count": 4470,
      "max": [
        0.9788547158241272,
        0.5816510915756226
      ],
      "min": [
        0.9448581337928772,
        0.539480447769165
      ],
      "type": "VEC2"
    },
    {
      "bufferView": 30,
      "componentType": 5125,
      "count": 23865,
      "max": [
        4075
      ],
      "min": [
        0
      ],
      "type": "SCALAR"
    },
    {
      "bufferView": 31,
      "componentType": 5125,
      "count": 23865,
      "max": [
        8248
      ],
      "min": [
        4173
      ],
      "type": "SCALAR"
    },
    {
      "bufferView": 32,
      "componentType": 5125,
      "count": 14040,
      "max": [
        10932
      ],
      "min": [
        8346
      ],
      "type": "SCALAR"
    },
    {
      "bufferView": 33,
      "componentType": 5126,
      "count": 10933,
      "max": [
        1.711172342300415,
        1.676909327507019,
        0.08869614452123642
      ],
      "min": [
        -1.7111446857452393,
        -2.593763589859009,
        -0.36689186096191406
      ],
      "type": "VEC3"
    },
    {
      "bufferView": 34,
      "componentType": 5126,
      "count": 10933,
      "max": [
        1.0,
        0.9997407793998718,
        0.9999974966049194
      ],
      "min": [
        -0.9996581077575684,
        -0.999936580657959,
        -0.999997615814209
      ],
      "type": "VEC3"
    },
    {
      "bufferView": 35,
      "componentType": 5126,
      "count": 10933,
      "max": [
        0.563888669013977,
        0.5251606702804565
      ],
      "min": [
        0.14693383872509003,
        0.007953524589538574
      ],
      "type": "VEC2"
    },
    {
      "bufferView": 36,
      "componentType": 5125,
      "count": 3069,
      "max": [
        581
      ],
      "min": [
        0
      ],
      "type": "SCALAR"
    },
    {
      "bufferView": 37,
      "componentType": 5125,
      "count": 3069,
      "max": [
        1333
      ],
      "min": [
        752
      ],
      "type": "SCALAR"
    },
    {
      "bufferView": 38,
      "componentType": 5125,
      "count": 10008,
      "max": [
        3362
      ],
      "min": [
        1504
      ],
      "type": "SCALAR"
    },
    {
      "bufferView": 39,
      "componentType": 5126,
      "count": 3363,
      "max": [
        0.6863667368888855,
        3.850325345993042,
        0.2935170531272888
      ],
      "min": [
        -0.670094907283783,
        1.292759656906128,
        -0.05819804593920708
      ],
      "type": "VEC3"
    },
    {
      "bufferView": 40,
      "componentType": 5126,
      "count": 3363,
      "max": [
        1.0,
        0.988969624042511,
        0.9999864101409912
      ],
      "min": [
        -0.9979977607727051,
        -0.9993308186531067,
        -0.9998494386672974
      ],
      "type": "VEC3"
    },
    {
      "bufferView": 41,
      "componentType": 5126,
      "count": 3363,
      "max": [
        0.09195832163095474,
        0.24631106853485107
      ],
      "min": [
        0.0773760974407196,
        0.007872462272644043
      ],
      "type": "VEC2"
    },
    {
      "bufferView": 42,
      "componentType": 5125,
      "count": 3042,
      "max": [
        576
      ],
      "min": [
        0
      ],
      "type": "SCALAR"
    },
    {
      "bufferView": 43,
      "componentType": 5125,
      "count": 3042,
      "max": [
        1323
      ],
      "min": [
        747
      ],
      "type": "SCALAR"
    },
    {
      "bufferView": 44,
      "componentType": 5125,
      "count": 9936,
      "max": [
        3339
      ],
      "min": [
        1494
      ],
      "type": "SCALAR"
    },
    {
      "bufferView": 45,
      "componentType": 5126,
      "count": 3340,
      "max": [
        0.7126465439796448,
        3.83744478225708,
        0.04670596867799759
      ],
      "min": [
        -0.6715520620346069,
        1.34690523147583,
        -0.27541425824165344
      ],
      "type": "VEC3"
    },
    {
      "bufferView": 46,
      "componentType": 5126,
      "count": 3340,
      "max": [
        1.0,
        0.9819731116294861,
        0.9999680519104004
      ],
      "min": [
        -0.9992007613182068,
        -0.9999713897705078,
        -0.9999939203262329
      ],
      "type": "VEC3"
    },
    {
      "bufferView": 47,
      "componentType": 5126,
      "count": 3340,
      "max": [
        0.024326657876372337,
        0.2446712851524353
      ],
      "min": [
        0.00983990915119648,
        0.0077939629554748535
      ],
      "type": "VEC2"
    }
  ],
  "asset": {
    "generator": "CLO Standalone OnlineAuth",
    "version": "2.0"
  },
  "bufferViews": [
    {
      "buffer": 0,
      "byteLength": 95940
    },
    {
      "buffer": 0,
      "byteLength": 95940,
      "byteOffset": 95940
    },
    {
      "buffer": 0,
      "byteLength": 56160,
      "byteOffset": 191880
    },
    {
      "buffer": 0,
      "byteLength": 132144,
      "byteOffset": 248040
    },
    {
      "buffer": 0,
      "byteLength": 132144,
      "byteOffset": 380184
    },
    {
      "buffer": 0,
      "byteLength": 88096,
      "byteOffset": 512328
    },
    {
      "buffer": 0,
      "byteLength": 17628,
      "byteOffset": 600424
    },
    {
      "buffer": 0,
      "byteLength": 17628,
      "byteOffset": 618052
    },
    {
      "buffer": 0,
      "byteLength": 56160,
      "byteOffset": 635680
    },
    {
      "buffer": 0,
      "byteLength": 53364,
      "byteOffset": 691840
    },
    {
      "buffer": 0,
      "byteLength": 53364,
      "byteOffset": 745204
    },
    {
      "buffer": 0,
      "byteLength": 35576,
      "byteOffset": 798568
    },
    {
      "buffer": 0,
      "byteLength": 12276,
      "byteOffset": 834144
    },
    {
      "buffer": 0,
      "byteLength": 12276,
      "byteOffset": 846420
    },
    {
      "buffer": 0,
      "byteLength": 40032,
      "byteOffset": 858696
    },
    {
      "buffer": 0,
      "byteLength": 40356,
      "byteOffset": 898728
    },
    {
      "buffer": 0,
      "byteLength": 40356,
      "byteOffset": 939084
    },
    {
      "buffer": 0,
      "byteLength": 26904,
      "byteOffset": 979440
    },
    {
      "buffer": 0,
      "byteLength": 12144,
      "byteOffset": 1006344
    },
    {
      "buffer": 0,
      "byteLength": 12144,
      "byteOffset": 1018488
    },
    {
      "buffer": 0,
      "byteLength": 39744,
      "byteOffset": 1030632
    },
    {
      "buffer": 0,
      "byteLength": 40056,
      "byteOffset": 1070376
    },
    {
      "buffer": 0,
      "byteLength": 40056,
      "byteOffset": 1110432
    },
    {
      "buffer": 0,
      "byteLength": 26704,
      "byteOffset": 1150488
    },
    {
      "buffer": 0,
      "byteLength": 17436,
      "byteOffset": 1177192
    },
    {
      "buffer": 0,
      "byteLength": 17436,
      "byteOffset": 1194628
    },
    {
      "buffer": 0,
      "byteLength": 56160,
      "byteOffset": 1212064
    },
    {
      "buffer": 0,
      "byteLength": 53640,
      "byteOffset": 1268224
    },
    {
      "buffer": 0,
      "byteLength": 53640,
      "byteOffset": 1321864
    },
    {
      "buffer": 0,
      "byteLength": 35760,
      "byteOffset": 1375504
    },
    {
      "buffer": 0,
      "byteLength": 95460,
      "byteOffset": 1411264
    },
    {
      "buffer": 0,
      "byteLength": 95460,
      "byteOffset": 1506724
    },
    {
      "buffer": 0,
      "byteLength": 56160,
      "byteOffset": 1602184
    },
    {
      "buffer": 0,
      "byteLength": 131196,
      "byteOffset": 1658344
    },
    {
      "buffer": 0,
      "byteLength": 131196,
      "byteOffset": 1789540
    },
    {
      "buffer": 0,
      "byteLength": 87464,
      "byteOffset": 1920736
    },
    {
      "buffer": 0,
      "byteLength": 12276,
      "byteOffset": 2008200
    },
    {
      "buffer": 0,
      "byteLength": 12276,
      "byteOffset": 2020476
    },
    {
      "buffer": 0,
      "byteLength": 40032,
      "byteOffset": 2032752
    },
    {
      "buffer": 0,
      "byteLength": 40356,
      "byteOffset": 2072784
    },
    {
      "buffer": 0,
      "byteLength": 40356,
      "byteOffset": 2113140
    },
    {
      "buffer": 0,
      "byteLength": 26904,
      "byteOffset": 2153496
    },
    {
      "buffer": 0,
      "byteLength": 12168,
      "byteOffset": 2180400
    },
    {
      "buffer": 0,
      "byteLength": 12168,
      "byteOffset": 2192568
    },
    {
      "buffer": 0,
      "byteLength": 39744,
      "byteOffset": 2204736
    },
    {
      "buffer": 0,
      "byteLength": 40080,
      "byteOffset": 2244480
    },
    {
      "buffer": 0,
      "byteLength": 40080,
      "byteOffset": 2284560
    },
    {
      "buffer": 0,
      "byteLength": 26720,
      "byteOffset": 2324640
    }
  ],
  "buffers": [
    {
      "byteLength": 2351360,
      "uri": "Bag.bin"
    }
  ],
  "extensionsUsed": [
    "KHR_materials_specular"
  ],
  "materials": [
    {
      "extensions": {
        "KHR_materials_specular": {
          "specularFactor": 0.15000000596046448
        }
      },
      "name": "22277_37307"
    },
    {
      "extensions": {
        "KHR_materials_specular": {
          "specularFactor": 0.15000000596046448
        }
      },
      "name": "22277 Copy 2_37524"
    },
    {
      "extensions": {
        "KHR_materials_specular": {
          "specularFactor": 0.15000000596046448
        }
      },
      "name": "22277 Copy 4_37546"
    },
    {
      "extensions": {
        "KHR_materials_specular": {
          "specularFactor": 0.15000000596046448
        }
      },
      "name": "22277 Copy 6_37568"
    },
    {
      "extensions": {
        "KHR_materials_specular": {
          "specularFactor": 0.15000000596046448
        }
      },
      "name": "22277 Copy 1_37510"
    },
    {
      "extensions": {
        "KHR_materials_specular": {
          "specularFactor": 0.15000000596046448
        }
      },
      "name": "22277 Copy 3_37535"
    },
    {
      "extensions": {
        "KHR_materials_specular": {
          "specularFactor": 0.15000000596046448
        }
      },
      "name": "22277 Copy 5_37557"
    },
    {
      "extensions": {
        "KHR_materials_specular": {
          "specularFactor": 0.15000000596046448
        }
      },
      "name": "22277 Copy 7_37579"
    }
  ],
  "meshes": [
    {
      "name": "Cloth_mesh",
      "primitives": [
        {
          "attributes": {
            "NORMAL": 4,
            "POSITION": 3,
            "TEXCOORD_0": 5
          },
          "indices": 0,
          "material": 0
        },
        {
          "attributes": {
            "NORMAL": 4,
            "POSITION": 3,
            "TEXCOORD_0": 5
          },
          "indices": 1,
          "material": 0
        },
        {
          "attributes": {
            "NORMAL": 4,
            "POSITION": 3,
            "TEXCOORD_0": 5
          },
          "indices": 2,
          "material": 0
        },
        {
          "attributes": {
            "NORMAL": 10,
            "POSITION": 9,
            "TEXCOORD_0": 11
          },
          "indices": 6,
          "material": 1
        },
        {
          "attributes": {
            "NORMAL": 10,
            "POSITION": 9,
            "TEXCOORD_0": 11
          },
          "indices": 7,
          "material": 1
        },
        {
          "attributes": {
            "NORMAL": 10,
            "POSITION": 9,
            "TEXCOORD_0": 11
          },
          "indices": 8,
          "material": 1
        },
        {
          "attributes": {
            "NORMAL": 16,
            "POSITION": 15,
            "TEXCOORD_0": 17
          },
          "indices": 12,
          "material": 2
        },
        {
          "attributes": {
            "NORMAL": 16,
            "POSITION": 15,
            "TEXCOORD_0": 17
          },
          "indices": 13,
          "material": 2
        },
        {
          "attributes": {
            "NORMAL": 16,
            "POSITION": 15,
            "TEXCOORD_0": 17
          },
          "indices": 14,
          "material": 2
        },
        {
          "attributes": {
            "NORMAL": 22,
            "POSITION": 21,
            "TEXCOORD_0": 23
          },
          "indices": 18,
          "material": 3
        },
        {
          "attributes": {
            "NORMAL": 22,
            "POSITION": 21,
            "TEXCOORD_0": 23
          },
          "indices": 19,
          "material": 3
        },
        {
          "attributes": {
            "NORMAL": 22,
            "POSITION": 21,
            "TEXCOORD_0": 23
          },
          "indices": 20,
          "material": 3
        },
        {
          "attributes": {
            "NORMAL": 28,
            "POSITION": 27,
            "TEXCOORD_0": 29
          },
          "indices": 24,
          "material": 4
        },
        {
          "attributes": {
            "NORMAL": 28,
            "POSITION": 27,
            "TEXCOORD_0": 29
          },
          "indices": 25,
          "material": 4
        },
        {
          "attributes": {
            "NORMAL": 28,
            "POSITION": 27,
            "TEXCOORD_0": 29
          },
          "indices": 26,
          "material": 4
        },
        {
          "attributes": {
            "NORMAL": 34,
            "POSITION": 33,
            "TEXCOORD_0": 35
          },
          "indices": 30,
          "material": 5
        },
        {
          "attributes": {
            "NORMAL": 34,
            "POSITION": 33,
            "TEXCOORD_0": 35
          },
          "indices": 31,
          "material": 5
        },
        {
          "attributes": {
            "NORMAL": 34,
            "POSITION": 33,
            "TEXCOORD_0": 35
          },
          "indices": 32,
          "material": 5
        },
        {
          "attributes": {
            "NORMAL": 40,
            "POSITION": 39,
            "TEXCOORD_0": 41
          },
          "indices": 36,
          "material": 6
        },
        {
          "attributes": {
            "NORMAL": 40,
            "POSITION": 39,
            "TEXCOORD_0": 41
          },
          "indices": 37,
          "material": 6
        },
        {
          "attributes": {
            "NORMAL": 40,
            "POSITION": 39,
            "TEXCOORD_0": 41
          },
          "indices": 38,
          "material": 6
        },
        {
          "attributes": {
            "NORMAL": 46,
            "POSITION": 45,
            "TEXCOORD_0": 47
          },
          "indices": 42,
          "material": 7
        },
        {
          "attributes": {
            "NORMAL": 46,
            "POSITION": 45,
            "TEXCOORD_0": 47
          },
          "indices": 43,
          "material": 7
        },
        {
          "attributes": {
            "NORMAL": 46,
            "POSITION": 45,
            "TEXCOORD_0": 47
          },
          "indices": 44,
          "material": 7
        }
      ]
    }
  ],
  "nodes": [
    {
      "children": [
        1
      ],
      "name": "Bag_Scene_Node"
    },
    {
      "mesh": 0,
      "name": "Cloth"
    }
  ],
  "scene": 0,
  "scenes": [
    {
      "nodes": [
        0
      ]
    }
  ]
}