{
	"asset":{
		"generator":"Khronos glTF Blender I/O v4.2.57",
		"version":"2.0"
	},
	"extensionsUsed":[
		"KHR_materials_specular"
	],
	"scene":0,
	"scenes":[
		{
			"name":"Scene",
			"nodes":[
				1
			]
		}
	],
	"nodes":[
		{
			"mesh":0,
			"name":"Cloth"
		},
		{
			"children":[
				0
			],
			"name":"sk_Scene_Node"
		}
	],
	"materials":[
		{
			"extensions":{
				"KHR_materials_specular":{
					"specularFactor":0.15000000596046448
				}
			},
			"name":"Silk_Duchess_Satin Copy 4_3972317"
		},
		{
			"extensions":{
				"KHR_materials_specular":{
					"specularFactor":0.15000000596046448
				}
			},
			"name":"Silk_Duchess_Satin_3937100"
		},
		{
			"extensions":{
				"KHR_materials_specular":{
					"specularFactor":0.15000000596046448
				}
			},
			"name":"Silk_Duchess_Satin Copy 3_3972098"
		},
		{
			"extensions":{
				"KHR_materials_specular":{
					"specularFactor":0.15000000596046448
				}
			},
			"name":"Silk_Duchess_Satin Copy 2_3971762"
		}
	],
	"meshes":[
		{
			"name":"Cloth_mesh.008",
			"primitives":[
				{
					"attributes":{
						"POSITION":0,
						"NORMAL":1,
						"TEXCOORD_0":2
					},
					"indices":3,
					"material":0
				},
				{
					"attributes":{
						"POSITION":4,
						"NORMAL":5,
						"TEXCOORD_0":6
					},
					"indices":7,
					"material":1
				},
				{
					"attributes":{
						"POSITION":8,
						"NORMAL":9,
						"TEXCOORD_0":10
					},
					"indices":11,
					"material":2
				},
				{
					"attributes":{
						"POSITION":12,
						"NORMAL":13,
						"TEXCOORD_0":14
					},
					"indices":15,
					"material":3
				}
			]
		}
	],
	"accessors":[
		{
			"bufferView":0,
			"componentType":5126,
			"count":1212,
			"max":[
				1.259507179260254,
				5.360288619995117,
				0.9551030397415161
			],
			"min":[
				-1.350195288658142,
				4.9537553787231445,
				-0.0712510496377945
			],
			"type":"VEC3"
		},
		{
			"bufferView":1,
			"componentType":5126,
			"count":1212,
			"type":"VEC3"
		},
		{
			"bufferView":2,
			"componentType":5126,
			"count":1212,
			"type":"VEC2"
		},
		{
			"bufferView":3,
			"componentType":5123,
			"count":5616,
			"type":"SCALAR"
		},
		{
			"bufferView":4,
			"componentType":5126,
			"count":1212,
			"max":[
				1.2563905715942383,
				5.359513282775879,
				0.07016512006521225
			],
			"min":[
				-1.3501169681549072,
				4.93241024017334,
				-0.9853979349136353
			],
			"type":"VEC3"
		},
		{
			"bufferView":5,
			"componentType":5126,
			"count":1212,
			"type":"VEC3"
		},
		{
			"bufferView":6,
			"componentType":5126,
			"count":1212,
			"type":"VEC2"
		},
		{
			"bufferView":7,
			"componentType":5123,
			"count":5616,
			"type":"SCALAR"
		},
		{
			"bufferView":8,
			"componentType":5126,
			"count":54178,
			"max":[
				3.651560068130493,
				5.069205284118652,
				0.8686899542808533
			],
			"min":[
				-3.563047170639038,
				-2.699981689453125,
				-3.4864654541015625
			],
			"type":"VEC3"
		},
		{
			"bufferView":9,
			"componentType":5126,
			"count":54178,
			"type":"VEC3"
		},
		{
			"bufferView":10,
			"componentType":5126,
			"count":54178,
			"type":"VEC2"
		},
		{
			"bufferView":11,
			"componentType":5123,
			"count":312300,
			"type":"SCALAR"
		},
		{
			"bufferView":12,
			"componentType":5126,
			"count":54354,
			"max":[
				3.4485554695129395,
				5.072265625,
				4.108826637268066
			],
			"min":[
				-3.3633553981781006,
				-2.8577685356140137,
				-0.11137808859348297
			],
			"type":"VEC3"
		},
		{
			"bufferView":13,
			"componentType":5126,
			"count":54354,
			"type":"VEC3"
		},
		{
			"bufferView":14,
			"componentType":5126,
			"count":54354,
			"type":"VEC2"
		},
		{
			"bufferView":15,
			"componentType":5123,
			"count":313356,
			"type":"SCALAR"
		}
	],
	"bufferViews":[
		{
			"buffer":0,
			"byteLength":14544,
			"byteOffset":0,
			"target":34962
		},
		{
			"buffer":0,
			"byteLength":14544,
			"byteOffset":14544,
			"target":34962
		},
		{
			"buffer":0,
			"byteLength":9696,
			"byteOffset":29088,
			"target":34962
		},
		{
			"buffer":0,
			"byteLength":11232,
			"byteOffset":38784,
			"target":34963
		},
		{
			"buffer":0,
			"byteLength":14544,
			"byteOffset":50016,
			"target":34962
		},
		{
			"buffer":0,
			"byteLength":14544,
			"byteOffset":64560,
			"target":34962
		},
		{
			"buffer":0,
			"byteLength":9696,
			"byteOffset":79104,
			"target":34962
		},
		{
			"buffer":0,
			"byteLength":11232,
			"byteOffset":88800,
			"target":34963
		},
		{
			"buffer":0,
			"byteLength":650136,
			"byteOffset":100032,
			"target":34962
		},
		{
			"buffer":0,
			"byteLength":650136,
			"byteOffset":750168,
			"target":34962
		},
		{
			"buffer":0,
			"byteLength":433424,
			"byteOffset":1400304,
			"target":34962
		},
		{
			"buffer":0,
			"byteLength":624600,
			"byteOffset":1833728,
			"target":34963
		},
		{
			"buffer":0,
			"byteLength":652248,
			"byteOffset":2458328,
			"target":34962
		},
		{
			"buffer":0,
			"byteLength":652248,
			"byteOffset":3110576,
			"target":34962
		},
		{
			"buffer":0,
			"byteLength":434832,
			"byteOffset":3762824,
			"target":34962
		},
		{
			"buffer":0,
			"byteLength":626712,
			"byteOffset":4197656,
			"target":34963
		}
	],
	"buffers":[
		{
			"byteLength":4824368,
			"uri":"Midi%20Skirt.bin"
		}
	]
}
