{
	"asset":{
		"generator":"Khronos glTF Blender I/O v4.2.57",
		"version":"2.0"
	},
	"extensionsUsed":[
		"KHR_materials_specular"
	],
	"scene":0,
	"scenes":[
		{
			"name":"Scene",
			"nodes":[
				7
			]
		}
	],
	"nodes":[
		{
			"mesh":0,
			"name":"_mesh.012",
			"rotation":[
				0.5818973779678345,
				0.1677657961845398,
				-0.20220082998275757,
				0.7696524858474731
			],
			"scale":[
				0.4999999701976776,
				1,
				0.5000000596046448
			],
			"translation":[
				0.03347223252058029,
				2.433368682861328,
				0.5792328715324402
			]
		},
		{
			"mesh":1,
			"name":"_mesh.013",
			"rotation":[
				0.6263824105262756,
				0.1684967577457428,
				-0.09052617102861404,
				0.7556844353675842
			],
			"scale":[
				0.5,
				1,
				0.4999999701976776
			],
			"translation":[
				0.023753246292471886,
				1.417057991027832,
				0.8859739303588867
			]
		},
		{
			"mesh":2,
			"name":"_mesh.014",
			"rotation":[
				0.6849250197410583,
				-0.007387087214738131,
				-0.02755245938897133,
				0.7280550003051758
			],
			"scale":[
				0.4999999701976776,
				1,
				0.5
			],
			"translation":[
				0.019374214112758636,
				-0.6779794692993164,
				1.2278732061386108
			]
		},
		{
			"mesh":3,
			"name":"_mesh.015",
			"rotation":[
				0.6564356088638306,
				0.1440461128950119,
				-0.04241958260536194,
				0.7392858862876892
			],
			"scale":[
				0.4999999403953552,
				1,
				0.5
			],
			"translation":[
				0.015986530110239983,
				0.3715362548828125,
				1.0748696327209473
			]
		},
		{
			"mesh":4,
			"name":"_mesh.016",
			"rotation":[
				0.713099479675293,
				-0.10037954896688461,
				0.09810319542884827,
				0.6868688464164734
			],
			"scale":[
				0.5,
				1,
				0.4999999403953552
			],
			"translation":[
				-0.006545264273881912,
				-2.7824220657348633,
				1.2668143510818481
			]
		},
		{
			"mesh":5,
			"name":"_mesh.017",
			"rotation":[
				0.7068825364112854,
				-0.07088640332221985,
				0.004012267105281353,
				0.7037586569786072
			],
			"scale":[
				0.4999999701976776,
				1,
				0.5000000596046448
			],
			"translation":[
				0.01243729330599308,
				-1.7301712036132812,
				1.2840558290481567
			]
		},
		{
			"children":[
				0,
				1,
				2,
				3,
				4,
				5
			],
			"mesh":6,
			"name":"Cloth"
		},
		{
			"children":[
				6
			],
			"name":"sh_Scene_Node"
		}
	],
	"materials":[
		{
			"extensions":{
				"KHR_materials_specular":{
					"specularFactor":0.15000000596046448
				}
			},
			"name":"Button 1_7065621"
		},
		{
			"extensions":{
				"KHR_materials_specular":{
					"specularFactor":0
				}
			},
			"name":"Lace Copy 4_8171783"
		},
		{
			"extensions":{
				"KHR_materials_specular":{
					"specularFactor":0
				}
			},
			"name":"Lace Copy 6_8186989"
		},
		{
			"extensions":{
				"KHR_materials_specular":{
					"specularFactor":0
				}
			},
			"name":"Lace Copy 7_8197081"
		},
		{
			"extensions":{
				"KHR_materials_specular":{
					"specularFactor":0
				}
			},
			"name":"Lace Copy 5_8181941"
		},
		{
			"extensions":{
				"KHR_materials_specular":{
					"specularFactor":0
				}
			},
			"name":"Lace Copy 3_8156647"
		},
		{
			"extensions":{
				"KHR_materials_specular":{
					"specularFactor":0
				}
			},
			"name":"Lace Copy 1_8126232"
		},
		{
			"extensions":{
				"KHR_materials_specular":{
					"specularFactor":0
				}
			},
			"name":"Lace Copy 2_8136464"
		}
	],
	"meshes":[
		{
			"name":"_mesh.012",
			"primitives":[
				{
					"attributes":{
						"POSITION":0,
						"NORMAL":1,
						"TEXCOORD_0":2
					},
					"indices":3,
					"material":0
				}
			]
		},
		{
			"name":"_mesh.013",
			"primitives":[
				{
					"attributes":{
						"POSITION":4,
						"NORMAL":5,
						"TEXCOORD_0":6
					},
					"indices":7,
					"material":0
				}
			]
		},
		{
			"name":"_mesh.014",
			"primitives":[
				{
					"attributes":{
						"POSITION":8,
						"NORMAL":9,
						"TEXCOORD_0":10
					},
					"indices":11,
					"material":0
				}
			]
		},
		{
			"name":"_mesh.015",
			"primitives":[
				{
					"attributes":{
						"POSITION":12,
						"NORMAL":13,
						"TEXCOORD_0":14
					},
					"indices":15,
					"material":0
				}
			]
		},
		{
			"name":"_mesh.016",
			"primitives":[
				{
					"attributes":{
						"POSITION":16,
						"NORMAL":17,
						"TEXCOORD_0":18
					},
					"indices":19,
					"material":0
				}
			]
		},
		{
			"name":"_mesh.017",
			"primitives":[
				{
					"attributes":{
						"POSITION":20,
						"NORMAL":21,
						"TEXCOORD_0":22
					},
					"indices":23,
					"material":0
				}
			]
		},
		{
			"name":"Cloth_mesh.003",
			"primitives":[
				{
					"attributes":{
						"POSITION":24,
						"NORMAL":25,
						"TEXCOORD_0":26
					},
					"indices":27,
					"material":1
				},
				{
					"attributes":{
						"POSITION":28,
						"NORMAL":29,
						"TEXCOORD_0":30
					},
					"indices":31,
					"material":2
				},
				{
					"attributes":{
						"POSITION":32,
						"NORMAL":33,
						"TEXCOORD_0":34
					},
					"indices":35,
					"material":3
				},
				{
					"attributes":{
						"POSITION":36,
						"NORMAL":37,
						"TEXCOORD_0":38
					},
					"indices":39,
					"material":4
				},
				{
					"attributes":{
						"POSITION":40,
						"NORMAL":41,
						"TEXCOORD_0":42
					},
					"indices":43,
					"material":5
				},
				{
					"attributes":{
						"POSITION":44,
						"NORMAL":45,
						"TEXCOORD_0":46
					},
					"indices":47,
					"material":6
				},
				{
					"attributes":{
						"POSITION":48,
						"NORMAL":49,
						"TEXCOORD_0":50
					},
					"indices":51,
					"material":7
				}
			]
		}
	],
	"accessors":[
		{
			"bufferView":0,
			"componentType":5126,
			"count":965,
			"max":[
				0.10001399368047714,
				0.015167079865932465,
				0.1000744104385376
			],
			"min":[
				-0.09998581558465958,
				-0.01445404440164566,
				-0.09992825984954834
			],
			"type":"VEC3"
		},
		{
			"bufferView":1,
			"componentType":5126,
			"count":965,
			"type":"VEC3"
		},
		{
			"bufferView":2,
			"componentType":5126,
			"count":965,
			"type":"VEC2"
		},
		{
			"bufferView":3,
			"componentType":5123,
			"count":3738,
			"type":"SCALAR"
		},
		{
			"bufferView":4,
			"componentType":5126,
			"count":994,
			"max":[
				0.10001438856124878,
				0.015166756696999073,
				0.10007389634847641
			],
			"min":[
				-0.09998577833175659,
				-0.014453890733420849,
				-0.09992877393960953
			],
			"type":"VEC3"
		},
		{
			"bufferView":5,
			"componentType":5126,
			"count":994,
			"type":"VEC3"
		},
		{
			"bufferView":6,
			"componentType":5126,
			"count":994,
			"type":"VEC2"
		},
		{
			"bufferView":7,
			"componentType":5123,
			"count":3738,
			"type":"SCALAR"
		},
		{
			"bufferView":8,
			"componentType":5126,
			"count":922,
			"max":[
				0.10001437366008759,
				0.01516677625477314,
				0.10007165372371674
			],
			"min":[
				-0.09998579323291779,
				-0.01445363275706768,
				-0.09992720186710358
			],
			"type":"VEC3"
		},
		{
			"bufferView":9,
			"componentType":5126,
			"count":922,
			"type":"VEC3"
		},
		{
			"bufferView":10,
			"componentType":5126,
			"count":922,
			"type":"VEC2"
		},
		{
			"bufferView":11,
			"componentType":5123,
			"count":3738,
			"type":"SCALAR"
		},
		{
			"bufferView":12,
			"componentType":5126,
			"count":907,
			"max":[
				0.10001446306705475,
				0.015166761353611946,
				0.10007347166538239
			],
			"min":[
				-0.09998606145381927,
				-0.014453647658228874,
				-0.09992729127407074
			],
			"type":"VEC3"
		},
		{
			"bufferView":13,
			"componentType":5126,
			"count":907,
			"type":"VEC3"
		},
		{
			"bufferView":14,
			"componentType":5126,
			"count":907,
			"type":"VEC2"
		},
		{
			"bufferView":15,
			"componentType":5123,
			"count":3738,
			"type":"SCALAR"
		},
		{
			"bufferView":16,
			"componentType":5126,
			"count":1073,
			"max":[
				0.10001426935195923,
				0.015166674740612507,
				0.10007403045892715
			],
			"min":[
				-0.09998571872711182,
				-0.014453674666583538,
				-0.09992863982915878
			],
			"type":"VEC3"
		},
		{
			"bufferView":17,
			"componentType":5126,
			"count":1073,
			"type":"VEC3"
		},
		{
			"bufferView":18,
			"componentType":5126,
			"count":1073,
			"type":"VEC2"
		},
		{
			"bufferView":19,
			"componentType":5123,
			"count":3738,
			"type":"SCALAR"
		},
		{
			"bufferView":20,
			"componentType":5126,
			"count":964,
			"max":[
				0.100014328956604,
				0.015166684985160828,
				0.10007261484861374
			],
			"min":[
				-0.09998559951782227,
				-0.014453604817390442,
				-0.0999300554394722
			],
			"type":"VEC3"
		},
		{
			"bufferView":21,
			"componentType":5126,
			"count":964,
			"type":"VEC3"
		},
		{
			"bufferView":22,
			"componentType":5126,
			"count":964,
			"type":"VEC2"
		},
		{
			"bufferView":23,
			"componentType":5123,
			"count":3738,
			"type":"SCALAR"
		},
		{
			"bufferView":24,
			"componentType":5126,
			"count":2912,
			"max":[
				0.9238861203193665,
				3.799319267272949,
				0.5014614462852478
			],
			"min":[
				-0.9223040342330933,
				2.5803518295288086,
				-0.9726497530937195
			],
			"type":"VEC3"
		},
		{
			"bufferView":25,
			"componentType":5126,
			"count":2912,
			"type":"VEC3"
		},
		{
			"bufferView":26,
			"componentType":5126,
			"count":2912,
			"type":"VEC2"
		},
		{
			"bufferView":27,
			"componentType":5123,
			"count":14496,
			"type":"SCALAR"
		},
		{
			"bufferView":28,
			"componentType":5126,
			"count":6440,
			"max":[
				2.9044148921966553,
				2.556857109069824,
				0.3481082320213318
			],
			"min":[
				1.5289679765701294,
				0.06952381134033203,
				-1.1787809133529663
			],
			"type":"VEC3"
		},
		{
			"bufferView":29,
			"componentType":5126,
			"count":6440,
			"type":"VEC3"
		},
		{
			"bufferView":30,
			"componentType":5126,
			"count":6440,
			"type":"VEC2"
		},
		{
			"bufferView":31,
			"componentType":5123,
			"count":34548,
			"type":"SCALAR"
		},
		{
			"bufferView":32,
			"componentType":5126,
			"count":6431,
			"max":[
				-1.5563547611236572,
				2.5610246658325195,
				0.37790757417678833
			],
			"min":[
				-2.9492838382720947,
				0.12693405151367188,
				-1.1740925312042236
			],
			"type":"VEC3"
		},
		{
			"bufferView":33,
			"componentType":5126,
			"count":6431,
			"type":"VEC3"
		},
		{
			"bufferView":34,
			"componentType":5126,
			"count":6431,
			"type":"VEC2"
		},
		{
			"bufferView":35,
			"componentType":5123,
			"count":34488,
			"type":"SCALAR"
		},
		{
			"bufferView":36,
			"componentType":5126,
			"count":997,
			"max":[
				0.8360017538070679,
				3.7362680435180664,
				0.3165305256843567
			],
			"min":[
				-0.8338464498519897,
				2.881105422973633,
				-0.920394778251648
			],
			"type":"VEC3"
		},
		{
			"bufferView":37,
			"componentType":5126,
			"count":997,
			"type":"VEC3"
		},
		{
			"bufferView":38,
			"componentType":5126,
			"count":997,
			"type":"VEC2"
		},
		{
			"bufferView":39,
			"componentType":5123,
			"count":4770,
			"type":"SCALAR"
		},
		{
			"bufferView":40,
			"componentType":5126,
			"count":17950,
			"max":[
				2.2304019927978516,
				3.454953193664551,
				-0.042376838624477386
			],
			"min":[
				-2.235643148422241,
				-3.97955322265625,
				-1.6373486518859863
			],
			"type":"VEC3"
		},
		{
			"bufferView":41,
			"componentType":5126,
			"count":17950,
			"type":"VEC3"
		},
		{
			"bufferView":42,
			"componentType":5126,
			"count":17950,
			"type":"VEC2"
		},
		{
			"bufferView":43,
			"componentType":5123,
			"count":101040,
			"type":"SCALAR"
		},
		{
			"bufferView":44,
			"componentType":5126,
			"count":19890,
			"max":[
				2.216672658920288,
				3.2779245376586914,
				1.2819284200668335
			],
			"min":[
				-0.11432866007089615,
				-3.9315719604492188,
				-0.3244607150554657
			],
			"type":"VEC3"
		},
		{
			"bufferView":45,
			"componentType":5126,
			"count":19890,
			"type":"VEC3"
		},
		{
			"bufferView":46,
			"componentType":5126,
			"count":19890,
			"type":"VEC2"
		},
		{
			"bufferView":47,
			"componentType":5123,
			"count":110052,
			"type":"SCALAR"
		},
		{
			"bufferView":48,
			"componentType":5126,
			"count":19896,
			"max":[
				0.17961294949054718,
				3.29049015045166,
				1.243750810623169
			],
			"min":[
				-2.231066942214966,
				-3.948491096496582,
				-0.49741441011428833
			],
			"type":"VEC3"
		},
		{
			"bufferView":49,
			"componentType":5126,
			"count":19896,
			"type":"VEC3"
		},
		{
			"bufferView":50,
			"componentType":5126,
			"count":19896,
			"type":"VEC2"
		},
		{
			"bufferView":51,
			"componentType":5123,
			"count":110172,
			"type":"SCALAR"
		}
	],
	"bufferViews":[
		{
			"buffer":0,
			"byteLength":11580,
			"byteOffset":0,
			"target":34962
		},
		{
			"buffer":0,
			"byteLength":11580,
			"byteOffset":11580,
			"target":34962
		},
		{
			"buffer":0,
			"byteLength":7720,
			"byteOffset":23160,
			"target":34962
		},
		{
			"buffer":0,
			"byteLength":7476,
			"byteOffset":30880,
			"target":34963
		},
		{
			"buffer":0,
			"byteLength":11928,
			"byteOffset":38356,
			"target":34962
		},
		{
			"buffer":0,
			"byteLength":11928,
			"byteOffset":50284,
			"target":34962
		},
		{
			"buffer":0,
			"byteLength":7952,
			"byteOffset":62212,
			"target":34962
		},
		{
			"buffer":0,
			"byteLength":7476,
			"byteOffset":70164,
			"target":34963
		},
		{
			"buffer":0,
			"byteLength":11064,
			"byteOffset":77640,
			"target":34962
		},
		{
			"buffer":0,
			"byteLength":11064,
			"byteOffset":88704,
			"target":34962
		},
		{
			"buffer":0,
			"byteLength":7376,
			"byteOffset":99768,
			"target":34962
		},
		{
			"buffer":0,
			"byteLength":7476,
			"byteOffset":107144,
			"target":34963
		},
		{
			"buffer":0,
			"byteLength":10884,
			"byteOffset":114620,
			"target":34962
		},
		{
			"buffer":0,
			"byteLength":10884,
			"byteOffset":125504,
			"target":34962
		},
		{
			"buffer":0,
			"byteLength":7256,
			"byteOffset":136388,
			"target":34962
		},
		{
			"buffer":0,
			"byteLength":7476,
			"byteOffset":143644,
			"target":34963
		},
		{
			"buffer":0,
			"byteLength":12876,
			"byteOffset":151120,
			"target":34962
		},
		{
			"buffer":0,
			"byteLength":12876,
			"byteOffset":163996,
			"target":34962
		},
		{
			"buffer":0,
			"byteLength":8584,
			"byteOffset":176872,
			"target":34962
		},
		{
			"buffer":0,
			"byteLength":7476,
			"byteOffset":185456,
			"target":34963
		},
		{
			"buffer":0,
			"byteLength":11568,
			"byteOffset":192932,
			"target":34962
		},
		{
			"buffer":0,
			"byteLength":11568,
			"byteOffset":204500,
			"target":34962
		},
		{
			"buffer":0,
			"byteLength":7712,
			"byteOffset":216068,
			"target":34962
		},
		{
			"buffer":0,
			"byteLength":7476,
			"byteOffset":223780,
			"target":34963
		},
		{
			"buffer":0,
			"byteLength":34944,
			"byteOffset":231256,
			"target":34962
		},
		{
			"buffer":0,
			"byteLength":34944,
			"byteOffset":266200,
			"target":34962
		},
		{
			"buffer":0,
			"byteLength":23296,
			"byteOffset":301144,
			"target":34962
		},
		{
			"buffer":0,
			"byteLength":28992,
			"byteOffset":324440,
			"target":34963
		},
		{
			"buffer":0,
			"byteLength":77280,
			"byteOffset":353432,
			"target":34962
		},
		{
			"buffer":0,
			"byteLength":77280,
			"byteOffset":430712,
			"target":34962
		},
		{
			"buffer":0,
			"byteLength":51520,
			"byteOffset":507992,
			"target":34962
		},
		{
			"buffer":0,
			"byteLength":69096,
			"byteOffset":559512,
			"target":34963
		},
		{
			"buffer":0,
			"byteLength":77172,
			"byteOffset":628608,
			"target":34962
		},
		{
			"buffer":0,
			"byteLength":77172,
			"byteOffset":705780,
			"target":34962
		},
		{
			"buffer":0,
			"byteLength":51448,
			"byteOffset":782952,
			"target":34962
		},
		{
			"buffer":0,
			"byteLength":68976,
			"byteOffset":834400,
			"target":34963
		},
		{
			"buffer":0,
			"byteLength":11964,
			"byteOffset":903376,
			"target":34962
		},
		{
			"buffer":0,
			"byteLength":11964,
			"byteOffset":915340,
			"target":34962
		},
		{
			"buffer":0,
			"byteLength":7976,
			"byteOffset":927304,
			"target":34962
		},
		{
			"buffer":0,
			"byteLength":9540,
			"byteOffset":935280,
			"target":34963
		},
		{
			"buffer":0,
			"byteLength":215400,
			"byteOffset":944820,
			"target":34962
		},
		{
			"buffer":0,
			"byteLength":215400,
			"byteOffset":1160220,
			"target":34962
		},
		{
			"buffer":0,
			"byteLength":143600,
			"byteOffset":1375620,
			"target":34962
		},
		{
			"buffer":0,
			"byteLength":202080,
			"byteOffset":1519220,
			"target":34963
		},
		{
			"buffer":0,
			"byteLength":238680,
			"byteOffset":1721300,
			"target":34962
		},
		{
			"buffer":0,
			"byteLength":238680,
			"byteOffset":1959980,
			"target":34962
		},
		{
			"buffer":0,
			"byteLength":159120,
			"byteOffset":2198660,
			"target":34962
		},
		{
			"buffer":0,
			"byteLength":220104,
			"byteOffset":2357780,
			"target":34963
		},
		{
			"buffer":0,
			"byteLength":238752,
			"byteOffset":2577884,
			"target":34962
		},
		{
			"buffer":0,
			"byteLength":238752,
			"byteOffset":2816636,
			"target":34962
		},
		{
			"buffer":0,
			"byteLength":159168,
			"byteOffset":3055388,
			"target":34962
		},
		{
			"buffer":0,
			"byteLength":220344,
			"byteOffset":3214556,
			"target":34963
		}
	],
	"buffers":[
		{
			"byteLength":3434900,
			"uri":"Shirt%20Male1.bin"
		}
	]
}
