{
	"asset":{
		"generator":"Khronos glTF Blender I/O v4.2.57",
		"version":"2.0"
	},
	"extensionsUsed":[
		"KHR_materials_specular"
	],
	"scene":0,
	"scenes":[
		{
			"name":"Scene",
			"nodes":[
				1
			]
		}
	],
	"nodes":[
		{
			"mesh":0,
			"name":"Cloth"
		},
		{
			"children":[
				0
			],
			"name":"H_Scene_Node"
		}
	],
	"materials":[
		{
			"extensions":{
				"KHR_materials_specular":{
					"specularFactor":0.15000000596046448
				}
			},
			"name":"Hat fabric_2532704"
		}
	],
	"meshes":[
		{
			"name":"Cloth_mesh",
			"primitives":[
				{
					"attributes":{
						"POSITION":0,
						"NORMAL":1,
						"TEXCOORD_0":2
					},
					"indices":3,
					"material":0
				}
			]
		}
	],
	"accessors":[
		{
			"bufferView":0,
			"componentType":5126,
			"count":33237,
			"max":[
				0.9675706028938293,
				0.7486163377761841,
				1.4075615406036377
			],
			"min":[
				-0.9579793810844421,
				-0.8926666378974915,
				-0.8438968062400818
			],
			"type":"VEC3"
		},
		{
			"bufferView":1,
			"componentType":5126,
			"count":33237,
			"type":"VEC3"
		},
		{
			"bufferView":2,
			"componentType":5126,
			"count":33237,
			"type":"VEC2"
		},
		{
			"bufferView":3,
			"componentType":5123,
			"count":190356,
			"type":"SCALAR"
		}
	],
	"bufferViews":[
		{
			"buffer":0,
			"byteLength":398844,
			"byteOffset":0,
			"target":34962
		},
		{
			"buffer":0,
			"byteLength":398844,
			"byteOffset":398844,
			"target":34962
		},
		{
			"buffer":0,
			"byteLength":265896,
			"byteOffset":797688,
			"target":34962
		},
		{
			"buffer":0,
			"byteLength":380712,
			"byteOffset":1063584,
			"target":34963
		}
	],
	"buffers":[
		{
			"byteLength":1444296,
			"uri":"H2.bin"
		}
	]
}
