{
    "asset" : {
        "generator" : "Khronos glTF Blender I/O v1.7.33",
        "version" : "2.0"
    },
    "scene" : 0,
    "scenes" : [
        {
            "name" : "Scene",
            "nodes" : [
                0,
                1,
                2,
                3,
                4,
                5,
                6
            ]
        }
    ],
    "nodes" : [
        {
            "mesh" : 0,
            "name" : "Body"
        },
        {
            "mesh" : 1,
            "name" : "Stitch"
        },
        {
            "mesh" : 2,
            "name" : "Label"
        },
        {
            "mesh" : 3,
            "name" : "Hanger"
        },
        {
            "mesh" : 4,
            "name" : "R_Sleeve"
        },
        {
            "mesh" : 5,
            "name" : "L_Sleeve"
        },
        {
            "mesh" : 6,
            "name" : "Collar"
        }
    ],
    "materials" : [
        {
            "doubleSided" : true,
            "name" : "Default OBJ.001",
            "normalTexture" : {
                "index" : 0
            },
            "pbrMetallicRoughness" : {
                "baseColorTexture" : {
                    "index" : 1
                },
                "metallicFactor" : 0
            }
        },
        {
            "doubleSided" : true,
            "name" : "Default OBJ.002",
            "normalTexture" : {
                "index" : 2
            },
            "pbrMetallicRoughness" : {
                "baseColorTexture" : {
                    "index" : 3
                },
                "metallicFactor" : 0
            }
        },
        {
            "doubleSided" : true,
            "name" : "Default OBJ.006",
            "normalTexture" : {
                "index" : 4
            },
            "pbrMetallicRoughness" : {
                "baseColorTexture" : {
                    "index" : 5
                },
                "metallicFactor" : 0
            }
        },
        {
            "doubleSided" : true,
            "name" : "Default OBJ.004",
            "normalTexture" : {
                "index" : 6
            },
            "pbrMetallicRoughness" : {
                "baseColorTexture" : {
                    "index" : 7
                },
                "metallicFactor" : 0
            }
        },
        {
            "doubleSided" : true,
            "name" : "Default OBJ.007",
            "normalTexture" : {
                "index" : 8
            },
            "pbrMetallicRoughness" : {
                "baseColorTexture" : {
                    "index" : 9
                },
                "metallicFactor" : 0
            }
        },
        {
            "doubleSided" : true,
            "name" : "Default OBJ.005",
            "normalTexture" : {
                "index" : 10
            },
            "pbrMetallicRoughness" : {
                "baseColorTexture" : {
                    "index" : 11
                },
                "metallicFactor" : 0
            }
        },
        {
            "doubleSided" : true,
            "name" : "Default OBJ.003",
            "normalTexture" : {
                "index" : 12
            },
            "pbrMetallicRoughness" : {
                "baseColorTexture" : {
                    "index" : 13
                },
                "metallicFactor" : 0
            }
        }
    ],
    "meshes" : [
        {
            "name" : "1.039",
            "primitives" : [
                {
                    "attributes" : {
                        "POSITION" : 0,
                        "NORMAL" : 1,
                        "TEXCOORD_0" : 2
                    },
                    "indices" : 3,
                    "material" : 0
                }
            ]
        },
        {
            "name" : "1.040",
            "primitives" : [
                {
                    "attributes" : {
                        "POSITION" : 4,
                        "NORMAL" : 5,
                        "TEXCOORD_0" : 6
                    },
                    "indices" : 7,
                    "material" : 1
                }
            ]
        },
        {
            "name" : "1.041",
            "primitives" : [
                {
                    "attributes" : {
                        "POSITION" : 8,
                        "NORMAL" : 9,
                        "TEXCOORD_0" : 10
                    },
                    "indices" : 11,
                    "material" : 2
                }
            ]
        },
        {
            "name" : "1.042",
            "primitives" : [
                {
                    "attributes" : {
                        "POSITION" : 12,
                        "NORMAL" : 13,
                        "TEXCOORD_0" : 14
                    },
                    "indices" : 15,
                    "material" : 3
                }
            ]
        },
        {
            "name" : "1.043",
            "primitives" : [
                {
                    "attributes" : {
                        "POSITION" : 16,
                        "NORMAL" : 17,
                        "TEXCOORD_0" : 18
                    },
                    "indices" : 19,
                    "material" : 4
                }
            ]
        },
        {
            "name" : "1.044",
            "primitives" : [
                {
                    "attributes" : {
                        "POSITION" : 20,
                        "NORMAL" : 21,
                        "TEXCOORD_0" : 22
                    },
                    "indices" : 23,
                    "material" : 5
                }
            ]
        },
        {
            "name" : "1.045",
            "primitives" : [
                {
                    "attributes" : {
                        "POSITION" : 24,
                        "NORMAL" : 25,
                        "TEXCOORD_0" : 26
                    },
                    "indices" : 27,
                    "material" : 6
                }
            ]
        }
    ],
    "textures" : [
        {
            "sampler" : 0,
            "source" : 0
        },
        {
            "sampler" : 0,
            "source" : 1
        },
        {
            "sampler" : 0,
            "source" : 0
        },
        {
            "sampler" : 0,
            "source" : 1
        },
        {
            "sampler" : 0,
            "source" : 0
        },
        {
            "sampler" : 0,
            "source" : 1
        },
        {
            "sampler" : 0,
            "source" : 0
        },
        {
            "sampler" : 0,
            "source" : 1
        },
        {
            "sampler" : 0,
            "source" : 0
        },
        {
            "sampler" : 0,
            "source" : 1
        },
        {
            "sampler" : 0,
            "source" : 0
        },
        {
            "sampler" : 0,
            "source" : 1
        },
        {
            "sampler" : 0,
            "source" : 0
        },
        {
            "sampler" : 0,
            "source" : 1
        }
    ],
    "images" : [
        {
            "bufferView" : 4,
            "mimeType" : "image/png",
            "name" : "Tshirt_normal_2048"
        },
        {
            "bufferView" : 5,
            "mimeType" : "image/png",
            "name" : "Tshirt"
        }
    ],
    "accessors" : [
        {
            "bufferView" : 0,
            "componentType" : 5126,
            "count" : 8916,
            "max" : [
                0.25057101249694824,
                0.3761157989501953,
                0.09959915280342102
            ],
            "min" : [
                -0.25341200828552246,
                -0.3500772714614868,
                -0.21083785593509674
            ],
            "type" : "VEC3"
        },
        {
            "bufferView" : 1,
            "componentType" : 5126,
            "count" : 8916,
            "type" : "VEC3"
        },
        {
            "bufferView" : 2,
            "componentType" : 5126,
            "count" : 8916,
            "type" : "VEC2"
        },
        {
            "bufferView" : 3,
            "componentType" : 5123,
            "count" : 51012,
            "type" : "SCALAR"
        },
        {
            "bufferView" : 6,
            "componentType" : 5126,
            "count" : 1414,
            "max" : [
                0.25137099623680115,
                0.3776017427444458,
                0.008060255087912083
            ],
            "min" : [
                -0.2544659972190857,
                0.09775245189666748,
                -0.1403057724237442
            ],
            "type" : "VEC3"
        },
        {
            "bufferView" : 7,
            "componentType" : 5126,
            "count" : 1414,
            "type" : "VEC3"
        },
        {
            "bufferView" : 8,
            "componentType" : 5126,
            "count" : 1414,
            "type" : "VEC2"
        },
        {
            "bufferView" : 9,
            "componentType" : 5123,
            "count" : 7092,
            "type" : "SCALAR"
        },
        {
            "bufferView" : 10,
            "componentType" : 5126,
            "count" : 86,
            "max" : [
                0.016392000019550323,
                0.37044668197631836,
                -0.12461773306131363
            ],
            "min" : [
                -0.014526000246405602,
                0.2875617742538452,
                -0.16120974719524384
            ],
            "type" : "VEC3"
        },
        {
            "bufferView" : 11,
            "componentType" : 5126,
            "count" : 86,
            "type" : "VEC3"
        },
        {
            "bufferView" : 12,
            "componentType" : 5126,
            "count" : 86,
            "type" : "VEC2"
        },
        {
            "bufferView" : 13,
            "componentType" : 5123,
            "count" : 504,
            "type" : "SCALAR"
        },
        {
            "bufferView" : 14,
            "componentType" : 5126,
            "count" : 193,
            "max" : [
                0.028301000595092773,
                0.372613787651062,
                -0.12185274064540863
            ],
            "min" : [
                -0.02844800055027008,
                0.3525336980819702,
                -0.13233372569084167
            ],
            "type" : "VEC3"
        },
        {
            "bufferView" : 15,
            "componentType" : 5126,
            "count" : 193,
            "type" : "VEC3"
        },
        {
            "bufferView" : 16,
            "componentType" : 5126,
            "count" : 193,
            "type" : "VEC2"
        },
        {
            "bufferView" : 17,
            "componentType" : 5123,
            "count" : 924,
            "type" : "SCALAR"
        },
        {
            "bufferView" : 18,
            "componentType" : 5126,
            "count" : 1122,
            "max" : [
                -0.15715156495571136,
                0.2562117576599121,
                -0.01056777685880661
            ],
            "min" : [
                -0.3140130043029785,
                0.022765517234802246,
                -0.1394057720899582
            ],
            "type" : "VEC3"
        },
        {
            "bufferView" : 19,
            "componentType" : 5126,
            "count" : 1122,
            "type" : "VEC3"
        },
        {
            "bufferView" : 20,
            "componentType" : 5126,
            "count" : 1122,
            "type" : "VEC2"
        },
        {
            "bufferView" : 21,
            "componentType" : 5123,
            "count" : 6084,
            "type" : "SCALAR"
        },
        {
            "bufferView" : 22,
            "componentType" : 5126,
            "count" : 1219,
            "max" : [
                0.31774401664733887,
                0.26071178913116455,
                -0.008224786259233952
            ],
            "min" : [
                0.15652400255203247,
                0.02451646327972412,
                -0.13893577456474304
            ],
            "type" : "VEC3"
        },
        {
            "bufferView" : 23,
            "componentType" : 5126,
            "count" : 1219,
            "type" : "VEC3"
        },
        {
            "bufferView" : 24,
            "componentType" : 5126,
            "count" : 1219,
            "type" : "VEC2"
        },
        {
            "bufferView" : 25,
            "componentType" : 5123,
            "count" : 6663,
            "type" : "SCALAR"
        },
        {
            "bufferView" : 26,
            "componentType" : 5126,
            "count" : 350,
            "max" : [
                0.0953029990196228,
                0.39235174655914307,
                0.007061254698783159
            ],
            "min" : [
                -0.09600000083446503,
                0.3076406717300415,
                -0.12491673231124878
            ],
            "type" : "VEC3"
        },
        {
            "bufferView" : 27,
            "componentType" : 5126,
            "count" : 350,
            "type" : "VEC3"
        },
        {
            "bufferView" : 28,
            "componentType" : 5126,
            "count" : 350,
            "type" : "VEC2"
        },
        {
            "bufferView" : 29,
            "componentType" : 5123,
            "count" : 1764,
            "type" : "SCALAR"
        }
    ],
    "bufferViews" : [
        {
            "buffer" : 0,
            "byteLength" : 106992,
            "byteOffset" : 0
        },
        {
            "buffer" : 0,
            "byteLength" : 106992,
            "byteOffset" : 106992
        },
        {
            "buffer" : 0,
            "byteLength" : 71328,
            "byteOffset" : 213984
        },
        {
            "buffer" : 0,
            "byteLength" : 102024,
            "byteOffset" : 285312
        },
        {
            "buffer" : 0,
            "byteLength" : 1635190,
            "byteOffset" : 387336
        },
        {
            "buffer" : 0,
            "byteLength" : 29283,
            "byteOffset" : 2022528
        },
        {
            "buffer" : 0,
            "byteLength" : 16968,
            "byteOffset" : 2051812
        },
        {
            "buffer" : 0,
            "byteLength" : 16968,
            "byteOffset" : 2068780
        },
        {
            "buffer" : 0,
            "byteLength" : 11312,
            "byteOffset" : 2085748
        },
        {
            "buffer" : 0,
            "byteLength" : 14184,
            "byteOffset" : 2097060
        },
        {
            "buffer" : 0,
            "byteLength" : 1032,
            "byteOffset" : 2111244
        },
        {
            "buffer" : 0,
            "byteLength" : 1032,
            "byteOffset" : 2112276
        },
        {
            "buffer" : 0,
            "byteLength" : 688,
            "byteOffset" : 2113308
        },
        {
            "buffer" : 0,
            "byteLength" : 1008,
            "byteOffset" : 2113996
        },
        {
            "buffer" : 0,
            "byteLength" : 2316,
            "byteOffset" : 2115004
        },
        {
            "buffer" : 0,
            "byteLength" : 2316,
            "byteOffset" : 2117320
        },
        {
            "buffer" : 0,
            "byteLength" : 1544,
            "byteOffset" : 2119636
        },
        {
            "buffer" : 0,
            "byteLength" : 1848,
            "byteOffset" : 2121180
        },
        {
            "buffer" : 0,
            "byteLength" : 13464,
            "byteOffset" : 2123028
        },
        {
            "buffer" : 0,
            "byteLength" : 13464,
            "byteOffset" : 2136492
        },
        {
            "buffer" : 0,
            "byteLength" : 8976,
            "byteOffset" : 2149956
        },
        {
            "buffer" : 0,
            "byteLength" : 12168,
            "byteOffset" : 2158932
        },
        {
            "buffer" : 0,
            "byteLength" : 14628,
            "byteOffset" : 2171100
        },
        {
            "buffer" : 0,
            "byteLength" : 14628,
            "byteOffset" : 2185728
        },
        {
            "buffer" : 0,
            "byteLength" : 9752,
            "byteOffset" : 2200356
        },
        {
            "buffer" : 0,
            "byteLength" : 13326,
            "byteOffset" : 2210108
        },
        {
            "buffer" : 0,
            "byteLength" : 4200,
            "byteOffset" : 2223436
        },
        {
            "buffer" : 0,
            "byteLength" : 4200,
            "byteOffset" : 2227636
        },
        {
            "buffer" : 0,
            "byteLength" : 2800,
            "byteOffset" : 2231836
        },
        {
            "buffer" : 0,
            "byteLength" : 3528,
            "byteOffset" : 2234636
        }
    ],
    "samplers" : [
        {
            "magFilter" : 9729,
            "minFilter" : 9987
        }
    ],
    "buffers" : [
        {
            "byteLength" : 2238164,
            "uri" : "data:application/octet-stream;base64,"
        }
    ]
}
