{
	"asset":{
		"generator":"Khronos glTF Blender I/O v4.2.57",
		"version":"2.0"
	},
	"extensionsUsed":[
		"KHR_materials_specular"
	],
	"scene":0,
	"scenes":[
		{
			"name":"Scene",
			"nodes":[
				1
			]
		}
	],
	"nodes":[
		{
			"mesh":0,
			"name":"Cloth"
		},
		{
			"children":[
				0
			],
			"name":"L_Scene_Node"
		}
	],
	"materials":[
		{
			"extensions":{
				"KHR_materials_specular":{
					"specularFactor":0.15000000596046448
				}
			},
			"name":"FABRIC 1_939347"
		},
		{
			"extensions":{
				"KHR_materials_specular":{
					"specularFactor":0.15000000596046448
				}
			},
			"name":"FABRIC 1 Copy 2_1129429"
		},
		{
			"extensions":{
				"KHR_materials_specular":{
					"specularFactor":0.15000000596046448
				}
			},
			"name":"FABRIC 1 Copy 1_1129321"
		},
		{
			"extensions":{
				"KHR_materials_specular":{
					"specularFactor":0.15000000596046448
				}
			},
			"name":"FABRIC 1 Copy 5_1129753"
		},
		{
			"extensions":{
				"KHR_materials_specular":{
					"specularFactor":0.15000000596046448
				}
			},
			"name":"FABRIC 1 Copy 3_1129537"
		},
		{
			"extensions":{
				"KHR_materials_specular":{
					"specularFactor":0.15000000596046448
				}
			},
			"name":"FABRIC 1 Copy 4_1129645"
		}
	],
	"meshes":[
		{
			"name":"Cloth_mesh.001",
			"primitives":[
				{
					"attributes":{
						"POSITION":0,
						"NORMAL":1,
						"TEXCOORD_0":2
					},
					"indices":3,
					"material":0
				},
				{
					"attributes":{
						"POSITION":4,
						"NORMAL":5,
						"TEXCOORD_0":6
					},
					"indices":7,
					"material":1
				},
				{
					"attributes":{
						"POSITION":8,
						"NORMAL":9,
						"TEXCOORD_0":10
					},
					"indices":11,
					"material":2
				},
				{
					"attributes":{
						"POSITION":12,
						"NORMAL":13,
						"TEXCOORD_0":14
					},
					"indices":15,
					"material":3
				},
				{
					"attributes":{
						"POSITION":16,
						"NORMAL":17,
						"TEXCOORD_0":18
					},
					"indices":19,
					"material":4
				},
				{
					"attributes":{
						"POSITION":20,
						"NORMAL":21,
						"TEXCOORD_0":22
					},
					"indices":23,
					"material":5
				}
			]
		}
	],
	"accessors":[
		{
			"bufferView":0,
			"componentType":5126,
			"count":3932,
			"max":[
				1.705759048461914,
				5.423666000366211,
				0.035797327756881714
			],
			"min":[
				-1.7134031057357788,
				4.427007675170898,
				-1.0963683128356934
			],
			"type":"VEC3"
		},
		{
			"bufferView":1,
			"componentType":5126,
			"count":3932,
			"type":"VEC3"
		},
		{
			"bufferView":2,
			"componentType":5126,
			"count":3932,
			"type":"VEC2"
		},
		{
			"bufferView":3,
			"componentType":5123,
			"count":20496,
			"type":"SCALAR"
		},
		{
			"bufferView":4,
			"componentType":5126,
			"count":9804,
			"max":[
				2.0263516902923584,
				4.571769714355469,
				0.2629377245903015
			],
			"min":[
				-0.010950000956654549,
				-6.146603107452393,
				-1.4033747911453247
			],
			"type":"VEC3"
		},
		{
			"bufferView":5,
			"componentType":5126,
			"count":9804,
			"type":"VEC3"
		},
		{
			"bufferView":6,
			"componentType":5126,
			"count":9804,
			"type":"VEC2"
		},
		{
			"bufferView":7,
			"componentType":5123,
			"count":54624,
			"type":"SCALAR"
		},
		{
			"bufferView":8,
			"componentType":5126,
			"count":10090,
			"max":[
				2.0263452529907227,
				4.590806007385254,
				1.2168506383895874
			],
			"min":[
				-0.009156256914138794,
				-6.176037311553955,
				-0.29801833629608154
			],
			"type":"VEC3"
		},
		{
			"bufferView":9,
			"componentType":5126,
			"count":10090,
			"type":"VEC3"
		},
		{
			"bufferView":10,
			"componentType":5126,
			"count":10090,
			"type":"VEC2"
		},
		{
			"bufferView":11,
			"componentType":5123,
			"count":56316,
			"type":"SCALAR"
		},
		{
			"bufferView":12,
			"componentType":5126,
			"count":5024,
			"max":[
				1.7228950262069702,
				5.409579277038574,
				1.255357265472412
			],
			"min":[
				-1.732841968536377,
				4.353104591369629,
				-0.16055704653263092
			],
			"type":"VEC3"
		},
		{
			"bufferView":13,
			"componentType":5126,
			"count":5024,
			"type":"VEC3"
		},
		{
			"bufferView":14,
			"componentType":5126,
			"count":5024,
			"type":"VEC2"
		},
		{
			"bufferView":15,
			"componentType":5123,
			"count":26880,
			"type":"SCALAR"
		},
		{
			"bufferView":16,
			"componentType":5126,
			"count":10078,
			"max":[
				0.025552043691277504,
				4.581197738647461,
				1.2168126106262207
			],
			"min":[
				-2.0283987522125244,
				-6.176036834716797,
				-0.29801803827285767
			],
			"type":"VEC3"
		},
		{
			"bufferView":17,
			"componentType":5126,
			"count":10078,
			"type":"VEC3"
		},
		{
			"bufferView":18,
			"componentType":5126,
			"count":10078,
			"type":"VEC2"
		},
		{
			"bufferView":19,
			"componentType":5123,
			"count":56244,
			"type":"SCALAR"
		},
		{
			"bufferView":20,
			"componentType":5126,
			"count":9850,
			"max":[
				0.037089403718709946,
				4.592730522155762,
				0.25931480526924133
			],
			"min":[
				-2.027791976928711,
				-6.146602630615234,
				-1.3988555669784546
			],
			"type":"VEC3"
		},
		{
			"bufferView":21,
			"componentType":5126,
			"count":9850,
			"type":"VEC3"
		},
		{
			"bufferView":22,
			"componentType":5126,
			"count":9850,
			"type":"VEC2"
		},
		{
			"bufferView":23,
			"componentType":5123,
			"count":54900,
			"type":"SCALAR"
		}
	],
	"bufferViews":[
		{
			"buffer":0,
			"byteLength":47184,
			"byteOffset":0,
			"target":34962
		},
		{
			"buffer":0,
			"byteLength":47184,
			"byteOffset":47184,
			"target":34962
		},
		{
			"buffer":0,
			"byteLength":31456,
			"byteOffset":94368,
			"target":34962
		},
		{
			"buffer":0,
			"byteLength":40992,
			"byteOffset":125824,
			"target":34963
		},
		{
			"buffer":0,
			"byteLength":117648,
			"byteOffset":166816,
			"target":34962
		},
		{
			"buffer":0,
			"byteLength":117648,
			"byteOffset":284464,
			"target":34962
		},
		{
			"buffer":0,
			"byteLength":78432,
			"byteOffset":402112,
			"target":34962
		},
		{
			"buffer":0,
			"byteLength":109248,
			"byteOffset":480544,
			"target":34963
		},
		{
			"buffer":0,
			"byteLength":121080,
			"byteOffset":589792,
			"target":34962
		},
		{
			"buffer":0,
			"byteLength":121080,
			"byteOffset":710872,
			"target":34962
		},
		{
			"buffer":0,
			"byteLength":80720,
			"byteOffset":831952,
			"target":34962
		},
		{
			"buffer":0,
			"byteLength":112632,
			"byteOffset":912672,
			"target":34963
		},
		{
			"buffer":0,
			"byteLength":60288,
			"byteOffset":1025304,
			"target":34962
		},
		{
			"buffer":0,
			"byteLength":60288,
			"byteOffset":1085592,
			"target":34962
		},
		{
			"buffer":0,
			"byteLength":40192,
			"byteOffset":1145880,
			"target":34962
		},
		{
			"buffer":0,
			"byteLength":53760,
			"byteOffset":1186072,
			"target":34963
		},
		{
			"buffer":0,
			"byteLength":120936,
			"byteOffset":1239832,
			"target":34962
		},
		{
			"buffer":0,
			"byteLength":120936,
			"byteOffset":1360768,
			"target":34962
		},
		{
			"buffer":0,
			"byteLength":80624,
			"byteOffset":1481704,
			"target":34962
		},
		{
			"buffer":0,
			"byteLength":112488,
			"byteOffset":1562328,
			"target":34963
		},
		{
			"buffer":0,
			"byteLength":118200,
			"byteOffset":1674816,
			"target":34962
		},
		{
			"buffer":0,
			"byteLength":118200,
			"byteOffset":1793016,
			"target":34962
		},
		{
			"buffer":0,
			"byteLength":78800,
			"byteOffset":1911216,
			"target":34962
		},
		{
			"buffer":0,
			"byteLength":109800,
			"byteOffset":1990016,
			"target":34963
		}
	],
	"buffers":[
		{
			"byteLength":2099816,
			"uri":"Leggins2.bin"
		}
	]
}
