{
	"asset":{
		"generator":"Khronos glTF Blender I/O v4.2.57",
		"version":"2.0"
	},
	"extensionsUsed":[
		"KHR_materials_specular"
	],
	"scene":0,
	"scenes":[
		{
			"name":"Scene",
			"nodes":[
				8
			]
		}
	],
	"nodes":[
		{
			"mesh":0,
			"name":"_mesh.002",
			"rotation":[
				-0.23752157390117645,
				0.03405211120843887,
				0.05271824821829796,
				0.9693528413772583
			],
			"translation":[
				-0.011954529210925102,
				2.617539644241333,
				0.6299037337303162
			]
		},
		{
			"mesh":1,
			"name":"_mesh.003",
			"rotation":[
				-0.23693521320819855,
				-0.0013395407004281878,
				0.007173285819590092,
				0.9714981317520142
			],
			"translation":[
				-0.0023544300347566605,
				2.61993145942688,
				0.6291772723197937
			]
		},
		{
			"mesh":2,
			"name":"_mesh.004",
			"rotation":[
				0.072222501039505,
				0.014503962360322475,
				-0.004037706647068262,
				0.9972749352455139
			],
			"translation":[
				0.09209193289279938,
				-2.6627261638641357,
				1.3713356256484985
			]
		},
		{
			"mesh":3,
			"name":"_mesh.005",
			"rotation":[
				0.07484948635101318,
				0.03237417712807655,
				0.004637748934328556,
				0.996658444404602
			],
			"translation":[
				0.09405551850795746,
				-2.662792921066284,
				1.3715922832489014
			]
		},
		{
			"mesh":4,
			"name":"_mesh.001",
			"translation":[
				0,
				0.0004056116449646652,
				0.02618861198425293
			]
		},
		{
			"children":[
				4
			],
			"mesh":5,
			"name":"_mesh"
		},
		{
			"children":[
				5
			],
			"name":"Slider_1",
			"rotation":[
				-0.23752157390117645,
				0.03405211120843887,
				0.05271824821829796,
				0.9693528413772583
			],
			"translation":[
				-0.005620462819933891,
				2.5475752353668213,
				0.6663037538528442
			]
		},
		{
			"children":[
				0,
				1,
				2,
				3,
				6
			],
			"mesh":6,
			"name":"Cloth"
		},
		{
			"children":[
				7
			],
			"name":"B_Scene_Node"
		}
	],
	"materials":[
		{
			"extensions":{
				"KHR_materials_specular":{
					"specularFactor":0.15000000596046448
				}
			},
			"name":"Zipper 2_2590313"
		},
		{
			"extensions":{
				"KHR_materials_specular":{
					"specularFactor":0.15000000596046448
				}
			},
			"name":"Zipper 2_2590319"
		},
		{
			"extensions":{
				"KHR_materials_specular":{
					"specularFactor":0.15000000596046448
				}
			},
			"name":"Zipper 2_2590326"
		},
		{
			"extensions":{
				"KHR_materials_specular":{
					"specularFactor":0.15000000596046448
				}
			},
			"name":"Zipper 2_2590332"
		},
		{
			"extensions":{
				"KHR_materials_specular":{
					"specularFactor":0.15000000596046448
				}
			},
			"name":"Zipper 2_2590306"
		},
		{
			"extensions":{
				"KHR_materials_specular":{
					"specularFactor":0.15000000596046448
				}
			},
			"name":"Zipper 2_2590299"
		},
		{
			"extensions":{
				"KHR_materials_specular":{
					"specularFactor":0.05000000074505806
				}
			},
			"name":"V2_Cut_Sew_Knit_Rib_2 Copy 2_2867739"
		},
		{
			"extensions":{
				"KHR_materials_specular":{
					"specularFactor":0.05000000074505806
				}
			},
			"name":"V2_Cut_Sew_Knit_Rib_2 Copy 1_2863725"
		},
		{
			"extensions":{
				"KHR_materials_specular":{
					"specularFactor":0.05000000074505806
				}
			},
			"name":"V2_Cut_Sew_Knit_Rib_2_2590009"
		},
		{
			"extensions":{
				"KHR_materials_specular":{
					"specularFactor":0.05000000074505806
				}
			},
			"name":"V2_Cut_Sew_Knit_Rib_2 Copy 3_2871799"
		},
		{
			"extensions":{
				"KHR_materials_specular":{
					"specularFactor":0.2199999988079071
				}
			},
			"name":"Nylon_Canvas Copy 2_2830679"
		},
		{
			"extensions":{
				"KHR_materials_specular":{
					"specularFactor":0.05000000074505806
				}
			},
			"name":"V2_Cut_Sew_Knit_Rib_2 Copy 4_2875817"
		},
		{
			"extensions":{
				"KHR_materials_specular":{
					"specularFactor":0.2199999988079071
				}
			},
			"name":"Nylon_Canvas Copy 3_2838835"
		},
		{
			"extensions":{
				"KHR_materials_specular":{
					"specularFactor":0.2199999988079071
				}
			},
			"name":"Nylon_Canvas Copy 4_2855407"
		},
		{
			"extensions":{
				"KHR_materials_specular":{
					"specularFactor":0.15000000596046448
				}
			},
			"name":"Nylon_Featherweight_2590023"
		},
		{
			"extensions":{
				"KHR_materials_specular":{
					"specularFactor":0.2199999988079071
				}
			},
			"name":"Nylon_Canvas Copy 5_2859570"
		},
		{
			"extensions":{
				"KHR_materials_specular":{
					"specularFactor":0.15000000596046448
				}
			},
			"name":"Zipper 2_2590276"
		},
		{
			"extensions":{
				"KHR_materials_specular":{
					"specularFactor":0.15000000596046448
				}
			},
			"name":"Zipper 2_2590281"
		}
	],
	"meshes":[
		{
			"name":"_mesh.002",
			"primitives":[
				{
					"attributes":{
						"POSITION":0,
						"NORMAL":1,
						"TEXCOORD_0":2
					},
					"indices":3,
					"material":0
				}
			]
		},
		{
			"name":"_mesh.003",
			"primitives":[
				{
					"attributes":{
						"POSITION":4,
						"NORMAL":5,
						"TEXCOORD_0":6
					},
					"indices":7,
					"material":1
				}
			]
		},
		{
			"name":"_mesh.004",
			"primitives":[
				{
					"attributes":{
						"POSITION":8,
						"NORMAL":9,
						"TEXCOORD_0":10
					},
					"indices":11,
					"material":2
				}
			]
		},
		{
			"name":"_mesh.005",
			"primitives":[
				{
					"attributes":{
						"POSITION":12,
						"NORMAL":13,
						"TEXCOORD_0":14
					},
					"indices":15,
					"material":3
				}
			]
		},
		{
			"name":"_mesh.001",
			"primitives":[
				{
					"attributes":{
						"POSITION":16,
						"NORMAL":17,
						"TEXCOORD_0":18
					},
					"indices":19,
					"material":4
				}
			]
		},
		{
			"name":"_mesh",
			"primitives":[
				{
					"attributes":{
						"POSITION":20,
						"NORMAL":21,
						"TEXCOORD_0":22
					},
					"indices":23,
					"material":5
				}
			]
		},
		{
			"name":"Cloth_mesh",
			"primitives":[
				{
					"attributes":{
						"POSITION":24,
						"NORMAL":25,
						"TEXCOORD_0":26
					},
					"indices":27,
					"material":6
				},
				{
					"attributes":{
						"POSITION":28,
						"NORMAL":29,
						"TEXCOORD_0":30
					},
					"indices":31,
					"material":7
				},
				{
					"attributes":{
						"POSITION":32,
						"NORMAL":33,
						"TEXCOORD_0":34
					},
					"indices":35,
					"material":8
				},
				{
					"attributes":{
						"POSITION":36,
						"NORMAL":37,
						"TEXCOORD_0":38
					},
					"indices":39,
					"material":9
				},
				{
					"attributes":{
						"POSITION":40,
						"NORMAL":41,
						"TEXCOORD_0":42
					},
					"indices":43,
					"material":10
				},
				{
					"attributes":{
						"POSITION":44,
						"NORMAL":45,
						"TEXCOORD_0":46
					},
					"indices":47,
					"material":11
				},
				{
					"attributes":{
						"POSITION":48,
						"NORMAL":49,
						"TEXCOORD_0":50
					},
					"indices":51,
					"material":12
				},
				{
					"attributes":{
						"POSITION":52,
						"NORMAL":53,
						"TEXCOORD_0":54
					},
					"indices":55,
					"material":13
				},
				{
					"attributes":{
						"POSITION":56,
						"NORMAL":57,
						"TEXCOORD_0":58
					},
					"indices":59,
					"material":14
				},
				{
					"attributes":{
						"POSITION":60,
						"NORMAL":61,
						"TEXCOORD_0":62
					},
					"indices":63,
					"material":15
				},
				{
					"attributes":{
						"POSITION":64,
						"NORMAL":65,
						"TEXCOORD_0":66
					},
					"indices":67,
					"material":16
				},
				{
					"attributes":{
						"POSITION":68,
						"NORMAL":69,
						"TEXCOORD_0":70
					},
					"indices":71,
					"material":17
				}
			]
		}
	],
	"accessors":[
		{
			"bufferView":0,
			"componentType":5126,
			"count":1230,
			"max":[
				0.005453824996948242,
				9.5367431640625e-07,
				0.0089874267578125
			],
			"min":[
				-0.021362513303756714,
				-0.034171104431152344,
				-0.0089874267578125
			],
			"type":"VEC3"
		},
		{
			"bufferView":1,
			"componentType":5126,
			"count":1230,
			"type":"VEC3"
		},
		{
			"bufferView":2,
			"componentType":5126,
			"count":1230,
			"type":"VEC2"
		},
		{
			"bufferView":3,
			"componentType":5123,
			"count":2340,
			"type":"SCALAR"
		},
		{
			"bufferView":4,
			"componentType":5126,
			"count":1214,
			"max":[
				0.021362505853176117,
				4.76837158203125e-07,
				0.008987188339233398
			],
			"min":[
				-0.00545370951294899,
				-0.03417158126831055,
				-0.0089874267578125
			],
			"type":"VEC3"
		},
		{
			"bufferView":5,
			"componentType":5126,
			"count":1214,
			"type":"VEC3"
		},
		{
			"bufferView":6,
			"componentType":5126,
			"count":1214,
			"type":"VEC2"
		},
		{
			"bufferView":7,
			"componentType":5123,
			"count":2340,
			"type":"SCALAR"
		},
		{
			"bufferView":8,
			"componentType":5126,
			"count":1334,
			"max":[
				0.023214612156152725,
				0.028702497482299805,
				0.01089179515838623
			],
			"min":[
				-0.02355540543794632,
				-0.03615307807922363,
				-0.010891556739807129
			],
			"type":"VEC3"
		},
		{
			"bufferView":9,
			"componentType":5126,
			"count":1334,
			"type":"VEC3"
		},
		{
			"bufferView":10,
			"componentType":5126,
			"count":1334,
			"type":"VEC2"
		},
		{
			"bufferView":11,
			"componentType":5123,
			"count":5088,
			"type":"SCALAR"
		},
		{
			"bufferView":12,
			"componentType":5126,
			"count":726,
			"max":[
				0.01955571211874485,
				0.03767848014831543,
				0.005934596061706543
			],
			"min":[
				0.00042969107744283974,
				-0.029984712600708008,
				-0.0057828426361083984
			],
			"type":"VEC3"
		},
		{
			"bufferView":13,
			"componentType":5126,
			"count":726,
			"type":"VEC3"
		},
		{
			"bufferView":14,
			"componentType":5126,
			"count":726,
			"type":"VEC2"
		},
		{
			"bufferView":15,
			"componentType":5123,
			"count":2778,
			"type":"SCALAR"
		},
		{
			"bufferView":16,
			"componentType":5126,
			"count":715,
			"max":[
				0.04535791277885437,
				0.005001068115234375,
				0.0031402111053466797
			],
			"min":[
				-0.04535788297653198,
				-0.1555309295654297,
				-0.003139495849609375
			],
			"type":"VEC3"
		},
		{
			"bufferView":17,
			"componentType":5126,
			"count":715,
			"type":"VEC3"
		},
		{
			"bufferView":18,
			"componentType":5126,
			"count":715,
			"type":"VEC2"
		},
		{
			"bufferView":19,
			"componentType":5123,
			"count":3480,
			"type":"SCALAR"
		},
		{
			"bufferView":20,
			"componentType":5126,
			"count":502,
			"max":[
				0.04215589165687561,
				0.07941198348999023,
				0.04529619216918945
			],
			"min":[
				-0.042155951261520386,
				-0.028278827667236328,
				-0.02067279815673828
			],
			"type":"VEC3"
		},
		{
			"bufferView":21,
			"componentType":5126,
			"count":502,
			"type":"VEC3"
		},
		{
			"bufferView":22,
			"componentType":5126,
			"count":502,
			"type":"VEC2"
		},
		{
			"bufferView":23,
			"componentType":5123,
			"count":2472,
			"type":"SCALAR"
		},
		{
			"bufferView":24,
			"componentType":5126,
			"count":1845,
			"max":[
				-0.518778383731842,
				-1.9373154640197754,
				1.4127588272094727
			],
			"min":[
				-1.7338958978652954,
				-2.6991982460021973,
				0.14134377241134644
			],
			"type":"VEC3"
		},
		{
			"bufferView":25,
			"componentType":5126,
			"count":1845,
			"type":"VEC3"
		},
		{
			"bufferView":26,
			"componentType":5126,
			"count":1845,
			"type":"VEC2"
		},
		{
			"bufferView":27,
			"componentType":5123,
			"count":9870,
			"type":"SCALAR"
		},
		{
			"bufferView":28,
			"componentType":5126,
			"count":1823,
			"max":[
				1.7642978429794312,
				-1.919759750366211,
				1.349625587463379
			],
			"min":[
				0.6896056532859802,
				-2.6881561279296875,
				-0.021387703716754913
			],
			"type":"VEC3"
		},
		{
			"bufferView":29,
			"componentType":5126,
			"count":1823,
			"type":"VEC3"
		},
		{
			"bufferView":30,
			"componentType":5126,
			"count":1823,
			"type":"VEC2"
		},
		{
			"bufferView":31,
			"componentType":5123,
			"count":9738,
			"type":"SCALAR"
		},
		{
			"bufferView":32,
			"componentType":5126,
			"count":4196,
			"max":[
				1.713151454925537,
				-1.9607205390930176,
				0.19969968497753143
			],
			"min":[
				-1.721784234046936,
				-2.725903272628784,
				-1.1760691404342651
			],
			"type":"VEC3"
		},
		{
			"bufferView":33,
			"componentType":5126,
			"count":4196,
			"type":"VEC3"
		},
		{
			"bufferView":34,
			"componentType":5126,
			"count":4196,
			"type":"VEC2"
		},
		{
			"bufferView":35,
			"componentType":5123,
			"count":22824,
			"type":"SCALAR"
		},
		{
			"bufferView":36,
			"componentType":5126,
			"count":2130,
			"max":[
				2.9774999618530273,
				-2.8828439712524414,
				0.6056818962097168
			],
			"min":[
				2.1512389183044434,
				-3.7118263244628906,
				-0.26314523816108704
			],
			"type":"VEC3"
		},
		{
			"bufferView":37,
			"componentType":5126,
			"count":2130,
			"type":"VEC3"
		},
		{
			"bufferView":38,
			"componentType":5126,
			"count":2130,
			"type":"VEC2"
		},
		{
			"bufferView":39,
			"componentType":5123,
			"count":11400,
			"type":"SCALAR"
		},
		{
			"bufferView":40,
			"componentType":5126,
			"count":27635,
			"max":[
				3.1274120807647705,
				3.315903902053833,
				1.5696929693222046
			],
			"min":[
				0.02370186522603035,
				-3.07306170463562,
				-0.9098014235496521
			],
			"type":"VEC3"
		},
		{
			"bufferView":41,
			"componentType":5126,
			"count":27635,
			"type":"VEC3"
		},
		{
			"bufferView":42,
			"componentType":5126,
			"count":27635,
			"type":"VEC2"
		},
		{
			"bufferView":43,
			"componentType":5123,
			"count":156366,
			"type":"SCALAR"
		},
		{
			"bufferView":44,
			"componentType":5126,
			"count":2130,
			"max":[
				-2.1336910724639893,
				-2.9397363662719727,
				0.6315417289733887
			],
			"min":[
				-2.939685583114624,
				-3.734551429748535,
				-0.2460639625787735
			],
			"type":"VEC3"
		},
		{
			"bufferView":45,
			"componentType":5126,
			"count":2130,
			"type":"VEC3"
		},
		{
			"bufferView":46,
			"componentType":5126,
			"count":2130,
			"type":"VEC2"
		},
		{
			"bufferView":47,
			"componentType":5123,
			"count":11400,
			"type":"SCALAR"
		},
		{
			"bufferView":48,
			"componentType":5126,
			"count":27650,
			"max":[
				0.06621834635734558,
				3.2576816082000732,
				1.5500918626785278
			],
			"min":[
				-3.0869224071502686,
				-3.1265206336975098,
				-0.8614863157272339
			],
			"type":"VEC3"
		},
		{
			"bufferView":49,
			"componentType":5126,
			"count":27650,
			"type":"VEC3"
		},
		{
			"bufferView":50,
			"componentType":5126,
			"count":27650,
			"type":"VEC2"
		},
		{
			"bufferView":51,
			"componentType":5123,
			"count":156444,
			"type":"SCALAR"
		},
		{
			"bufferView":52,
			"componentType":5126,
			"count":2835,
			"max":[
				0.8906188607215881,
				3.7702901363372803,
				0.6574381589889526
			],
			"min":[
				-0.9310057163238525,
				2.59240984916687,
				-0.6979868412017822
			],
			"type":"VEC3"
		},
		{
			"bufferView":53,
			"componentType":5126,
			"count":2835,
			"type":"VEC3"
		},
		{
			"bufferView":54,
			"componentType":5126,
			"count":2835,
			"type":"VEC2"
		},
		{
			"bufferView":55,
			"componentType":5123,
			"count":15000,
			"type":"SCALAR"
		},
		{
			"bufferView":56,
			"componentType":5126,
			"count":7243,
			"max":[
				2.3451671600341797,
				3.362321138381958,
				-0.0427154004573822
			],
			"min":[
				-2.354125738143921,
				1.1164023876190186,
				-1.4210257530212402
			],
			"type":"VEC3"
		},
		{
			"bufferView":57,
			"componentType":5126,
			"count":7243,
			"type":"VEC3"
		},
		{
			"bufferView":58,
			"componentType":5126,
			"count":7243,
			"type":"VEC2"
		},
		{
			"bufferView":59,
			"componentType":5123,
			"count":40836,
			"type":"SCALAR"
		},
		{
			"bufferView":60,
			"componentType":5126,
			"count":24031,
			"max":[
				2.381099224090576,
				3.400763750076294,
				0.21507999300956726
			],
			"min":[
				-2.389287233352661,
				-2.0643796920776367,
				-1.565567970275879
			],
			"type":"VEC3"
		},
		{
			"bufferView":61,
			"componentType":5126,
			"count":24031,
			"type":"VEC3"
		},
		{
			"bufferView":62,
			"componentType":5126,
			"count":24031,
			"type":"VEC2"
		},
		{
			"bufferView":63,
			"componentType":5123,
			"count":137226,
			"type":"SCALAR"
		},
		{
			"bufferView":64,
			"componentType":5126,
			"count":372,
			"max":[
				0.13920177519321442,
				2.621084451675415,
				1.519671082496643
			],
			"min":[
				-0.05669034272432327,
				-2.696629047393799,
				0.6269598603248596
			],
			"type":"VEC3"
		},
		{
			"bufferView":65,
			"componentType":5126,
			"count":372,
			"type":"VEC3"
		},
		{
			"bufferView":66,
			"componentType":5126,
			"count":372,
			"type":"VEC2"
		},
		{
			"bufferView":67,
			"componentType":5123,
			"count":1092,
			"type":"SCALAR"
		},
		{
			"bufferView":68,
			"componentType":5126,
			"count":1367,
			"max":[
				0.13920177519321442,
				2.621084451675415,
				1.519671082496643
			],
			"min":[
				-0.05669034272432327,
				-2.696629047393799,
				0.6269598603248596
			],
			"type":"VEC3"
		},
		{
			"bufferView":69,
			"componentType":5126,
			"count":1367,
			"type":"VEC3"
		},
		{
			"bufferView":70,
			"componentType":5126,
			"count":1367,
			"type":"VEC2"
		},
		{
			"bufferView":71,
			"componentType":5123,
			"count":6696,
			"type":"SCALAR"
		}
	],
	"bufferViews":[
		{
			"buffer":0,
			"byteLength":14760,
			"byteOffset":0,
			"target":34962
		},
		{
			"buffer":0,
			"byteLength":14760,
			"byteOffset":14760,
			"target":34962
		},
		{
			"buffer":0,
			"byteLength":9840,
			"byteOffset":29520,
			"target":34962
		},
		{
			"buffer":0,
			"byteLength":4680,
			"byteOffset":39360,
			"target":34963
		},
		{
			"buffer":0,
			"byteLength":14568,
			"byteOffset":44040,
			"target":34962
		},
		{
			"buffer":0,
			"byteLength":14568,
			"byteOffset":58608,
			"target":34962
		},
		{
			"buffer":0,
			"byteLength":9712,
			"byteOffset":73176,
			"target":34962
		},
		{
			"buffer":0,
			"byteLength":4680,
			"byteOffset":82888,
			"target":34963
		},
		{
			"buffer":0,
			"byteLength":16008,
			"byteOffset":87568,
			"target":34962
		},
		{
			"buffer":0,
			"byteLength":16008,
			"byteOffset":103576,
			"target":34962
		},
		{
			"buffer":0,
			"byteLength":10672,
			"byteOffset":119584,
			"target":34962
		},
		{
			"buffer":0,
			"byteLength":10176,
			"byteOffset":130256,
			"target":34963
		},
		{
			"buffer":0,
			"byteLength":8712,
			"byteOffset":140432,
			"target":34962
		},
		{
			"buffer":0,
			"byteLength":8712,
			"byteOffset":149144,
			"target":34962
		},
		{
			"buffer":0,
			"byteLength":5808,
			"byteOffset":157856,
			"target":34962
		},
		{
			"buffer":0,
			"byteLength":5556,
			"byteOffset":163664,
			"target":34963
		},
		{
			"buffer":0,
			"byteLength":8580,
			"byteOffset":169220,
			"target":34962
		},
		{
			"buffer":0,
			"byteLength":8580,
			"byteOffset":177800,
			"target":34962
		},
		{
			"buffer":0,
			"byteLength":5720,
			"byteOffset":186380,
			"target":34962
		},
		{
			"buffer":0,
			"byteLength":6960,
			"byteOffset":192100,
			"target":34963
		},
		{
			"buffer":0,
			"byteLength":6024,
			"byteOffset":199060,
			"target":34962
		},
		{
			"buffer":0,
			"byteLength":6024,
			"byteOffset":205084,
			"target":34962
		},
		{
			"buffer":0,
			"byteLength":4016,
			"byteOffset":211108,
			"target":34962
		},
		{
			"buffer":0,
			"byteLength":4944,
			"byteOffset":215124,
			"target":34963
		},
		{
			"buffer":0,
			"byteLength":22140,
			"byteOffset":220068,
			"target":34962
		},
		{
			"buffer":0,
			"byteLength":22140,
			"byteOffset":242208,
			"target":34962
		},
		{
			"buffer":0,
			"byteLength":14760,
			"byteOffset":264348,
			"target":34962
		},
		{
			"buffer":0,
			"byteLength":19740,
			"byteOffset":279108,
			"target":34963
		},
		{
			"buffer":0,
			"byteLength":21876,
			"byteOffset":298848,
			"target":34962
		},
		{
			"buffer":0,
			"byteLength":21876,
			"byteOffset":320724,
			"target":34962
		},
		{
			"buffer":0,
			"byteLength":14584,
			"byteOffset":342600,
			"target":34962
		},
		{
			"buffer":0,
			"byteLength":19476,
			"byteOffset":357184,
			"target":34963
		},
		{
			"buffer":0,
			"byteLength":50352,
			"byteOffset":376660,
			"target":34962
		},
		{
			"buffer":0,
			"byteLength":50352,
			"byteOffset":427012,
			"target":34962
		},
		{
			"buffer":0,
			"byteLength":33568,
			"byteOffset":477364,
			"target":34962
		},
		{
			"buffer":0,
			"byteLength":45648,
			"byteOffset":510932,
			"target":34963
		},
		{
			"buffer":0,
			"byteLength":25560,
			"byteOffset":556580,
			"target":34962
		},
		{
			"buffer":0,
			"byteLength":25560,
			"byteOffset":582140,
			"target":34962
		},
		{
			"buffer":0,
			"byteLength":17040,
			"byteOffset":607700,
			"target":34962
		},
		{
			"buffer":0,
			"byteLength":22800,
			"byteOffset":624740,
			"target":34963
		},
		{
			"buffer":0,
			"byteLength":331620,
			"byteOffset":647540,
			"target":34962
		},
		{
			"buffer":0,
			"byteLength":331620,
			"byteOffset":979160,
			"target":34962
		},
		{
			"buffer":0,
			"byteLength":221080,
			"byteOffset":1310780,
			"target":34962
		},
		{
			"buffer":0,
			"byteLength":312732,
			"byteOffset":1531860,
			"target":34963
		},
		{
			"buffer":0,
			"byteLength":25560,
			"byteOffset":1844592,
			"target":34962
		},
		{
			"buffer":0,
			"byteLength":25560,
			"byteOffset":1870152,
			"target":34962
		},
		{
			"buffer":0,
			"byteLength":17040,
			"byteOffset":1895712,
			"target":34962
		},
		{
			"buffer":0,
			"byteLength":22800,
			"byteOffset":1912752,
			"target":34963
		},
		{
			"buffer":0,
			"byteLength":331800,
			"byteOffset":1935552,
			"target":34962
		},
		{
			"buffer":0,
			"byteLength":331800,
			"byteOffset":2267352,
			"target":34962
		},
		{
			"buffer":0,
			"byteLength":221200,
			"byteOffset":2599152,
			"target":34962
		},
		{
			"buffer":0,
			"byteLength":312888,
			"byteOffset":2820352,
			"target":34963
		},
		{
			"buffer":0,
			"byteLength":34020,
			"byteOffset":3133240,
			"target":34962
		},
		{
			"buffer":0,
			"byteLength":34020,
			"byteOffset":3167260,
			"target":34962
		},
		{
			"buffer":0,
			"byteLength":22680,
			"byteOffset":3201280,
			"target":34962
		},
		{
			"buffer":0,
			"byteLength":30000,
			"byteOffset":3223960,
			"target":34963
		},
		{
			"buffer":0,
			"byteLength":86916,
			"byteOffset":3253960,
			"target":34962
		},
		{
			"buffer":0,
			"byteLength":86916,
			"byteOffset":3340876,
			"target":34962
		},
		{
			"buffer":0,
			"byteLength":57944,
			"byteOffset":3427792,
			"target":34962
		},
		{
			"buffer":0,
			"byteLength":81672,
			"byteOffset":3485736,
			"target":34963
		},
		{
			"buffer":0,
			"byteLength":288372,
			"byteOffset":3567408,
			"target":34962
		},
		{
			"buffer":0,
			"byteLength":288372,
			"byteOffset":3855780,
			"target":34962
		},
		{
			"buffer":0,
			"byteLength":192248,
			"byteOffset":4144152,
			"target":34962
		},
		{
			"buffer":0,
			"byteLength":274452,
			"byteOffset":4336400,
			"target":34963
		},
		{
			"buffer":0,
			"byteLength":4464,
			"byteOffset":4610852,
			"target":34962
		},
		{
			"buffer":0,
			"byteLength":4464,
			"byteOffset":4615316,
			"target":34962
		},
		{
			"buffer":0,
			"byteLength":2976,
			"byteOffset":4619780,
			"target":34962
		},
		{
			"buffer":0,
			"byteLength":2184,
			"byteOffset":4622756,
			"target":34963
		},
		{
			"buffer":0,
			"byteLength":16404,
			"byteOffset":4624940,
			"target":34962
		},
		{
			"buffer":0,
			"byteLength":16404,
			"byteOffset":4641344,
			"target":34962
		},
		{
			"buffer":0,
			"byteLength":10936,
			"byteOffset":4657748,
			"target":34962
		},
		{
			"buffer":0,
			"byteLength":13392,
			"byteOffset":4668684,
			"target":34963
		}
	],
	"buffers":[
		{
			"byteLength":4682076,
			"uri":"Bomber.bin"
		}
	]
}
